<svg width="250" height="44" viewBox="0 0 250 44" fill="none" xmlns="http://www.w3.org/2000/svg">
<path d="M59.4409 10.8096H63.8704V19.2767H67.036L73.5797 10.8096H78.6431L70.8354 20.7577L79.2769 32.4H73.7884L67.2485 23.2971H63.8704V32.4H59.4409V10.8096Z" fill="#212322"/>
<path d="M85.8174 10.8096H95.3065L101.216 32.4H96.5818L91.9397 14.8261H89.1955L84.5534 32.4H79.9114L85.8174 10.8096Z" fill="#212322"/>
<path d="M104.387 10.8132H108.821V19.4898H111.774C112.787 14.2016 117.05 10.3906 122.534 10.3906C128.657 10.3906 133.508 15.3019 133.508 21.6065C133.508 27.9112 128.645 32.8263 122.534 32.8263C119.927 32.8207 117.408 31.8783 115.434 30.1699C113.46 28.4615 112.161 26.1002 111.774 23.5139H108.821V32.4037H104.387V10.8132ZM122.534 28.8059C126.121 28.8059 128.866 26.0114 128.866 21.6065C128.866 17.2017 126.121 14.411 122.534 14.411C118.948 14.411 116.203 17.2055 116.203 21.6065C116.203 26.0076 118.948 28.8059 122.534 28.8059Z" fill="#212322"/>
<path d="M137.101 10.8096H141.53V18.4239C141.53 20.9671 143.007 22.4481 145.751 22.4481C147.13 22.4929 148.505 22.2772 149.805 21.8123C150.253 21.6814 150.673 21.467 151.042 21.1803V10.8096H155.475V32.4H151.042V24.9913C150.597 25.3037 150.115 25.5594 149.607 25.7527C148.245 26.2569 146.8 26.5009 145.349 26.4723C140.073 26.4723 137.12 23.5522 137.12 18.8579L137.101 10.8096Z" fill="#212322"/>
<path d="M169.806 10.3906C171.606 10.3894 173.361 10.951 174.828 11.9973C175.471 12.4417 176.053 12.9691 176.559 13.5658H176.771V10.8132H181.205V32.4037H176.771V29.4379H176.559C176.069 30.0859 175.486 30.657 174.828 31.1321C173.382 32.2286 171.619 32.8233 169.806 32.8263C164.113 32.8263 159.68 28.3795 159.68 21.6066C159.68 14.8336 164.109 10.3906 169.806 10.3906ZM170.653 28.8059C174.24 28.8059 176.771 26.3084 176.771 21.6066C176.771 16.9047 174.24 14.411 170.653 14.411C166.812 14.411 164.326 16.9085 164.326 21.6066C164.326 26.3046 166.812 28.8059 170.653 28.8059Z" fill="#212322"/>
<path d="M186.691 10.8096H197.455C201.672 10.8096 203.995 13.0939 203.995 16.1015C203.995 18.1346 203.152 19.2767 202.306 19.9544C201.811 20.3478 201.234 20.6226 200.617 20.7577V20.9176C201.374 21.0405 202.095 21.3305 202.727 21.7666C203.782 22.4862 204.838 23.7996 204.838 26.2096C204.838 29.636 202.052 32.3924 197.664 32.3924H186.691V10.8096ZM197.03 19.2767C198.719 19.2767 199.562 18.5153 199.562 16.9467C199.562 15.6371 198.719 14.8299 197.03 14.8299H191.124V19.2767H197.03ZM197.455 28.3759C199.353 28.3759 200.408 27.3175 200.408 25.6271C200.408 24.1461 199.353 23.0877 197.455 23.0877H191.124V28.3759H197.455Z" fill="#212322"/>
<path d="M206.951 10.8096H225.732V14.8261H218.554V32.4H214.125V14.8261H206.951V10.8096Z" fill="#212322"/>
<path d="M238.816 10.3915C240.29 10.3731 241.752 10.6507 243.117 11.2078C244.482 11.7649 245.722 12.5904 246.764 13.6356C247.806 14.6808 248.629 15.9245 249.184 17.2936C249.74 18.6627 250.016 20.1295 249.998 21.6075C250.025 23.098 249.756 24.5791 249.207 25.9641C248.657 27.3492 247.837 28.6105 246.796 29.6743C245.755 30.7381 244.513 31.5831 243.142 32.1599C241.772 32.7368 240.3 33.0339 238.814 33.0339C237.328 33.0339 235.857 32.7368 234.486 32.1599C233.116 31.5831 231.873 30.7381 230.832 29.6743C229.791 28.6105 228.971 27.3492 228.422 25.9641C227.872 24.5791 227.603 23.098 227.63 21.6075C227.612 20.1291 227.889 18.6621 228.444 17.2927C229 15.9234 229.823 14.6795 230.866 13.6342C231.908 12.589 233.149 11.7636 234.514 11.2067C235.88 10.6498 237.342 10.3726 238.816 10.3915ZM238.816 28.8068C242.653 28.8068 245.356 26.0124 245.356 21.6075C245.356 17.2026 242.653 14.4119 238.816 14.4119C234.979 14.4119 232.269 17.2064 232.269 21.6075C232.269 26.0085 234.975 28.8068 238.816 28.8068Z" fill="#212322"/>
<path d="M42.3601 32.8252C42.3581 32.8448 42.3581 32.8644 42.3601 32.884V32.8252Z" fill="#212322"/>
<path d="M43.2455 18.086L38.9716 19.4719L16.2965 26.8578C15.7833 27.0252 15.2423 27.0897 14.7043 27.0473C14.1663 27.005 13.642 26.8567 13.1612 26.6109C12.6803 26.3652 12.2525 26.0268 11.9022 25.6152C11.5518 25.2035 11.2857 24.7266 11.1192 24.2118L11.0547 24.0138L14.9642 22.7422L38.6528 15.0251L42.828 13.6621C43.0127 15.1368 43.1518 16.6114 43.2455 18.086Z" fill="#212322"/>
<path d="M43.2979 23.6118C43.2523 25.1614 43.1498 26.7147 42.998 28.2604C42.8538 29.702 42.6615 31.1412 42.4211 32.5777C42.4211 32.6957 42.3793 32.81 42.3603 32.928C41.9228 35.2842 40.7867 37.4531 39.1005 39.1512C37.4143 40.8493 35.2565 41.9976 32.9092 42.4459L32.4803 42.5182C25.3185 43.7217 18.007 43.7217 10.8452 42.5182L10.4163 42.4459C8.06901 41.9976 5.91123 40.8493 4.22503 39.1512C2.53883 37.4531 1.40269 35.2842 0.965143 32.928C0.965143 32.81 0.923391 32.6957 0.908209 32.5777C-0.302736 25.3721 -0.302736 18.014 0.908209 10.8083C0.908209 10.6903 0.946165 10.5723 0.965143 10.4581C1.40546 8.09367 2.54969 5.9186 4.24702 4.21951C5.94435 2.52042 8.11511 1.37706 10.4732 0.940132C10.5909 0.917289 10.3555 0.940132 10.4732 0.940132C17.7711 -0.292593 25.2213 -0.313172 32.5259 0.879217L32.875 0.940132C34.8676 1.30927 36.7327 2.18442 38.2922 3.48208C39.8517 4.77975 41.0537 6.45662 41.7834 8.35269L37.6993 9.6852L16.2957 16.6295C15.7826 16.797 15.2415 16.8614 14.7036 16.819C14.1656 16.7767 13.6412 16.6284 13.1604 16.3827C12.6796 16.1369 12.2518 15.7986 11.9014 15.3869C11.551 14.9752 11.285 14.4984 11.1185 13.9835L11.0539 13.7855L14.9634 12.5139L34.6704 6.09504C33.7767 5.57679 32.801 5.21622 31.7857 5.02903C28.4374 4.45916 25.0475 4.17135 21.6514 4.16861C18.1519 4.18774 14.6598 4.49205 11.2096 5.07853C9.71148 5.36906 8.33545 6.10566 7.26094 7.19227C6.18643 8.27887 5.46331 9.66505 5.18589 11.17L5.13655 11.4784C4.00546 18.2486 4.00546 25.1603 5.13655 31.9305L5.1783 32.1818C5.17727 32.2008 5.17727 32.2199 5.1783 32.2389C5.45419 33.7408 6.17395 35.1247 7.24409 36.211C8.31422 37.2973 9.68529 38.0357 11.1792 38.3304L11.4601 38.376H11.5398C14.8817 38.9306 18.264 39.2044 21.6514 39.1946C25.037 39.1936 28.4167 38.9096 31.7553 38.3456H31.8312L32.1121 38.2999C33.606 38.0052 34.9771 37.2668 36.0472 36.1805C37.1174 35.0942 37.8371 33.7103 38.113 32.2084L38.1662 31.9C38.2838 31.1729 38.3939 30.4419 38.4888 29.7109L21.936 35.1247C21.4217 35.2918 20.8795 35.3554 20.3406 35.3118C19.8017 35.2682 19.2766 35.1183 18.7956 34.8707C18.3146 34.623 17.8871 34.2826 17.5375 33.8689C17.188 33.4552 16.9234 32.9763 16.7588 32.4597L16.6943 32.2617L20.6038 30.9901L38.9215 25.0167L43.2979 23.6118Z" fill="#212322"/>
</svg>
