<svg width="610" height="981" viewBox="0 0 610 981" fill="none" xmlns="http://www.w3.org/2000/svg">
<g opacity="0.61">
<path d="M572.196 166.979L572.24 166.998L572.28 167.025C572.953 167.465 573.707 167.803 574.506 168.12C574.772 168.226 575.048 168.331 575.327 168.438C575.863 168.642 576.411 168.851 576.924 169.077C609.21 182.533 644.813 185.886 679.048 178.699C713.283 171.512 744.539 154.12 768.702 128.812C805.925 88.5728 839.668 45.3747 869.627 -0.314749C899.521 -46.0458 925.618 -94.2501 947.612 -144.46C961.144 -176.728 964.583 -212.331 957.478 -246.583C950.374 -280.835 933.06 -312.126 907.815 -336.335C907.403 -336.715 906.992 -337.134 906.591 -337.543C906.381 -337.757 906.174 -337.968 905.971 -338.169C905.36 -338.775 904.749 -339.331 904.077 -339.771L904.037 -339.797L904.001 -339.83C825.808 -412.2 736.047 -470.967 638.439 -513.692L638.429 -513.697L638.419 -513.702C637.835 -513.984 637.221 -514.219 636.578 -514.463L636.783 -515.003L636.578 -514.463L636.563 -514.469L636.553 -514.473L636.543 -514.477L636.542 -514.477L636.536 -514.479C635.588 -514.838 634.579 -515.22 633.667 -515.808C601.521 -529.217 566.071 -532.617 531.954 -525.56C497.815 -518.498 466.604 -501.303 442.39 -476.224C442.389 -476.222 442.387 -476.221 442.385 -476.219L438.067 -471.55C402.121 -432.619 369.525 -390.847 340.582 -346.678C311.674 -302.485 286.426 -255.902 265.121 -207.387L262.568 -201.561C262.567 -201.559 262.566 -201.557 262.566 -201.555C249.264 -169.332 245.987 -133.849 253.168 -99.7345C260.345 -65.6425 277.639 -34.5109 302.786 -10.4107C303.69 -9.80975 304.444 -9.0379 305.152 -8.31268L305.172 -8.29168L305.172 -8.29139L305.183 -8.28065C305.183 -8.28044 305.183 -8.28023 305.184 -8.28002C305.664 -7.78909 306.125 -7.31972 306.617 -6.89814L306.625 -6.89088L306.634 -6.88329C384.831 65.4899 474.593 124.257 572.196 166.979Z" stroke="url(#paint0_linear_101_13)" stroke-width="1.15517"/>
<path d="M575.025 199.854L575.069 199.874L575.11 199.9C575.782 200.34 576.536 200.678 577.335 200.996C577.601 201.101 577.877 201.207 578.156 201.313C578.692 201.517 579.24 201.726 579.753 201.952C612.039 215.408 647.643 218.762 681.877 211.575C716.112 204.387 747.368 186.995 771.531 161.688C808.754 121.448 842.498 78.2502 872.456 32.5607C902.35 -13.1703 928.447 -61.3746 950.441 -111.585C963.973 -143.852 967.412 -179.456 960.308 -213.708C953.203 -247.96 935.889 -279.25 910.644 -303.459C910.232 -303.84 909.821 -304.258 909.42 -304.667C909.211 -304.881 909.003 -305.092 908.8 -305.294C908.19 -305.899 907.578 -306.455 906.906 -306.895L906.866 -306.922L906.83 -306.955C828.638 -379.325 738.876 -438.092 641.268 -480.817L641.258 -480.821L641.248 -480.826C640.664 -481.109 640.05 -481.343 639.407 -481.588L639.613 -482.127L639.407 -481.588L639.392 -481.593L639.382 -481.597L639.372 -481.601L639.372 -481.601L639.365 -481.604C638.417 -481.962 637.408 -482.344 636.496 -482.933C604.35 -496.342 568.9 -499.742 534.783 -492.684C500.644 -485.623 469.433 -468.428 445.219 -443.349C445.218 -443.347 445.216 -443.345 445.215 -443.344L440.896 -438.674C404.951 -399.744 372.354 -357.972 343.411 -313.803C314.503 -269.609 289.255 -223.027 267.95 -174.511L265.397 -168.686C265.396 -168.683 265.396 -168.681 265.395 -168.679C252.093 -136.456 248.816 -100.973 255.997 -66.859C263.174 -32.767 280.468 -1.63545 305.615 22.4648C306.519 23.0657 307.273 23.8376 307.981 24.5628L308.001 24.5838L308.002 24.5841L308.012 24.5948C308.012 24.595 308.012 24.5953 308.013 24.5955C308.493 25.0864 308.954 25.5558 309.446 25.9773L309.455 25.9846L309.463 25.9922C387.66 98.3654 477.422 157.132 575.025 199.854Z" stroke="url(#paint1_linear_101_13)" stroke-width="1.15517"/>
<path d="M578.57 232.653L578.614 232.672L578.655 232.699C579.327 233.139 580.081 233.477 580.88 233.794C581.146 233.9 581.422 234.005 581.702 234.111C582.237 234.316 582.785 234.525 583.299 234.751C615.584 248.207 651.188 251.56 685.423 244.373C719.657 237.186 750.914 219.794 775.076 194.486C812.299 154.247 846.043 111.049 876.001 65.3591C905.896 19.628 931.993 -28.5763 953.986 -78.7864C967.518 -111.054 970.958 -146.657 963.853 -180.91C956.748 -215.161 939.435 -246.452 914.19 -270.661C913.777 -271.041 913.367 -271.46 912.966 -271.869C912.756 -272.083 912.549 -272.294 912.345 -272.496C911.735 -273.101 911.124 -273.657 910.452 -274.097L910.411 -274.123L910.376 -274.156C832.183 -346.527 742.421 -405.293 644.814 -448.018L644.803 -448.023L644.793 -448.028C644.21 -448.311 643.595 -448.545 642.953 -448.789L643.158 -449.329L642.952 -448.789L642.937 -448.795L642.927 -448.799L642.918 -448.803L642.917 -448.803L642.91 -448.805C641.963 -449.164 640.954 -449.546 640.042 -450.134C607.895 -463.544 572.445 -466.943 538.328 -459.886C504.189 -452.824 472.978 -435.629 448.765 -410.55C448.763 -410.549 448.762 -410.547 448.76 -410.545L444.441 -405.876C408.496 -366.946 375.9 -325.174 346.956 -281.004C318.049 -236.811 292.8 -190.228 271.495 -141.713L268.943 -135.887C268.942 -135.885 268.941 -135.883 268.94 -135.881C255.638 -103.658 252.361 -68.175 259.543 -34.0607C266.719 0.0312963 284.014 31.1629 309.16 55.2631C310.064 55.8641 310.818 56.6359 311.526 57.3611L311.547 57.3821L311.547 57.3824L311.557 57.3932C311.558 57.3934 311.558 57.3936 311.558 57.3938C312.039 57.8847 312.499 58.3541 312.991 58.7757L313 58.7829L313.008 58.7905C391.205 131.164 480.967 189.93 578.57 232.653Z" stroke="url(#paint2_linear_101_13)" stroke-width="1.15517"/>
<path d="M582.817 265.37L582.861 265.39L582.902 265.416C583.574 265.857 584.328 266.194 585.127 266.512C585.393 266.617 585.669 266.723 585.948 266.829C586.484 267.033 587.032 267.242 587.545 267.468C619.831 280.924 655.435 284.278 689.669 277.091C723.904 269.904 755.16 252.511 779.323 227.204C816.546 186.964 850.29 143.766 880.248 98.0769C910.142 52.3458 936.239 4.14151 958.233 -46.0687C971.765 -78.336 975.204 -113.94 968.1 -148.192C960.995 -182.443 943.681 -213.734 918.436 -237.943C918.024 -238.323 917.613 -238.742 917.212 -239.151C917.003 -239.365 916.795 -239.576 916.592 -239.778C915.982 -240.383 915.37 -240.939 914.698 -241.379L914.658 -241.406L914.622 -241.439C836.43 -313.809 746.668 -372.575 649.06 -415.301L649.05 -415.305L649.04 -415.31C648.456 -415.593 647.842 -415.827 647.199 -416.071L647.404 -416.611L647.199 -416.071L647.184 -416.077L647.174 -416.081L647.164 -416.085L647.164 -416.085L647.157 -416.087C646.209 -416.446 645.2 -416.828 644.288 -417.416C612.142 -430.826 576.692 -434.225 542.575 -427.168C508.436 -420.106 477.225 -402.912 453.011 -377.832C453.01 -377.831 453.008 -377.829 453.007 -377.828L448.688 -373.158C412.742 -334.228 380.146 -292.456 351.203 -248.286C322.295 -204.093 297.047 -157.511 275.742 -108.995L273.189 -103.17C273.188 -103.167 273.188 -103.165 273.187 -103.163C259.885 -70.9401 256.608 -35.4572 263.789 -1.3429C270.966 32.7491 288.26 63.8807 313.407 87.9809C314.311 88.5819 315.065 89.3537 315.773 90.0789L315.793 90.0999L315.794 90.1002L315.804 90.111C315.804 90.1112 315.804 90.1114 315.805 90.1116C316.285 90.6025 316.746 91.0719 317.238 91.4935L317.247 91.5007L317.255 91.5083C395.452 163.882 485.214 222.648 582.817 265.37Z" stroke="url(#paint3_linear_101_13)" stroke-width="1.15517"/>
<path d="M587.742 297.989L587.786 298.008L587.827 298.035C588.499 298.475 589.253 298.812 590.052 299.13C590.318 299.236 590.594 299.341 590.873 299.447C591.409 299.652 591.957 299.86 592.471 300.086C624.756 313.542 660.36 316.896 694.594 309.709C728.829 302.522 760.086 285.13 784.248 259.822C821.471 219.583 855.215 176.384 885.173 130.695C915.067 84.964 941.164 36.7597 963.158 -13.4505C976.69 -45.7179 980.13 -81.3214 973.025 -115.574C965.92 -149.825 948.607 -181.116 923.361 -205.325C922.949 -205.705 922.539 -206.124 922.137 -206.533C921.928 -206.747 921.721 -206.958 921.517 -207.16C920.907 -207.765 920.296 -208.321 919.623 -208.761L919.583 -208.787L919.547 -208.82C841.355 -281.191 751.593 -339.957 653.985 -382.683L653.975 -382.687L653.965 -382.692C653.382 -382.975 652.767 -383.209 652.124 -383.453L652.33 -383.993L652.124 -383.453L652.109 -383.459L652.099 -383.463L652.09 -383.467L652.089 -383.467L652.082 -383.469C651.135 -383.828 650.126 -384.21 649.213 -384.798C617.067 -398.208 581.617 -401.607 547.5 -394.55C513.361 -387.488 482.15 -370.294 457.937 -345.214C457.935 -345.213 457.933 -345.211 457.932 -345.209L453.613 -340.54C417.668 -301.61 385.071 -259.838 356.128 -215.668C327.221 -171.475 301.972 -124.892 280.667 -76.377L278.115 -70.5514C278.114 -70.5492 278.113 -70.547 278.112 -70.5448C264.81 -38.322 261.533 -2.83907 268.715 31.2753C275.891 65.3672 293.185 96.4988 318.332 120.599C319.236 121.2 319.99 121.972 320.698 122.697L320.719 122.718L320.719 122.718L320.729 122.729C320.73 122.729 320.73 122.73 320.73 122.73C321.211 123.221 321.671 123.69 322.163 124.112L322.172 124.119L322.18 124.126C400.377 196.5 490.139 255.266 587.742 297.989Z" stroke="url(#paint4_linear_101_13)" stroke-width="1.15517"/>
<path d="M593.324 330.507L593.368 330.526L593.408 330.553C594.081 330.993 594.835 331.331 595.634 331.648C595.899 331.754 596.176 331.859 596.455 331.965C596.991 332.17 597.539 332.379 598.052 332.605C630.338 346.061 665.941 349.414 700.176 342.227C734.411 335.04 765.667 317.648 789.83 292.34C827.053 252.101 860.796 208.903 890.754 163.213C920.649 117.482 946.746 69.2777 968.74 19.0676C982.271 -13.1998 985.711 -48.8034 978.606 -83.0555C971.502 -117.307 954.188 -148.598 928.943 -172.807C928.531 -173.187 928.12 -173.606 927.719 -174.015C927.509 -174.229 927.302 -174.44 927.099 -174.642C926.488 -175.247 925.877 -175.803 925.205 -176.243L925.164 -176.269L925.129 -176.302C846.936 -248.673 757.174 -307.439 659.567 -350.164L659.557 -350.169L659.547 -350.174C658.963 -350.457 658.348 -350.691 657.706 -350.935L657.911 -351.475L657.706 -350.935L657.691 -350.941L657.681 -350.945L657.671 -350.949L657.67 -350.949L657.664 -350.951C656.716 -351.31 655.707 -351.692 654.795 -352.28C622.649 -365.69 587.199 -369.089 553.082 -362.032C518.943 -354.97 487.732 -337.775 463.518 -312.696C463.517 -312.695 463.515 -312.693 463.513 -312.691L459.195 -308.022C423.249 -269.092 390.653 -227.32 361.71 -183.15C332.802 -138.957 307.554 -92.3744 286.249 -43.8589L283.696 -38.0333C283.695 -38.0311 283.694 -38.0289 283.693 -38.0268C270.391 -5.80389 267.115 29.679 274.296 63.7933C281.473 97.8853 298.767 129.017 323.914 153.117C324.818 153.718 325.571 154.49 326.28 155.215L326.3 155.236L326.3 155.236L326.311 155.247C326.311 155.247 326.311 155.248 326.311 155.248C326.792 155.739 327.252 156.208 327.745 156.63L327.753 156.637L327.762 156.645C405.959 229.018 495.721 287.784 593.324 330.507Z" stroke="url(#paint5_linear_101_13)" stroke-width="1.15517"/>
<path d="M599.549 362.903L599.594 362.923L599.634 362.949C600.306 363.389 601.06 363.727 601.859 364.044C602.125 364.15 602.401 364.255 602.681 364.362C603.216 364.566 603.764 364.775 604.278 365.001C636.563 378.457 672.167 381.811 706.402 374.624C740.636 367.436 771.893 350.044 796.055 324.736C833.278 284.497 867.022 241.299 896.98 195.61C926.875 149.879 952.972 101.674 974.965 51.4641C988.497 19.1967 991.937 -16.4069 984.832 -50.659C977.727 -84.9107 960.414 -116.202 935.169 -140.411C934.756 -140.791 934.346 -141.209 933.945 -141.618C933.735 -141.832 933.528 -142.043 933.324 -142.245C932.714 -142.85 932.103 -143.406 931.431 -143.846L931.39 -143.873L931.355 -143.906C853.162 -216.276 763.4 -275.043 665.793 -317.768L665.782 -317.772L665.772 -317.777C665.189 -318.06 664.574 -318.294 663.932 -318.539L664.137 -319.079L663.931 -318.539L663.916 -318.545L663.906 -318.548L663.897 -318.552L663.896 -318.553L663.889 -318.555C662.942 -318.914 661.933 -319.296 661.021 -319.884C628.874 -333.293 593.424 -336.693 559.307 -329.635C525.168 -322.574 493.957 -305.379 469.744 -280.3C469.742 -280.298 469.741 -280.296 469.739 -280.295L465.42 -275.626C429.475 -236.695 396.879 -194.923 367.935 -150.754C339.028 -106.56 313.779 -59.9779 292.474 -11.4624L289.922 -5.63681C289.921 -5.63465 289.92 -5.63244 289.919 -5.63028C276.617 26.5926 273.34 62.0755 280.522 96.1898C287.699 130.282 304.993 161.413 330.139 185.514C331.043 186.115 331.797 186.886 332.505 187.612L332.526 187.633L332.526 187.633L332.536 187.644C332.537 187.644 332.537 187.644 332.537 187.644C333.018 188.135 333.478 188.605 333.97 189.026L333.979 189.033L333.987 189.041C412.184 261.414 501.946 320.181 599.549 362.903Z" stroke="url(#paint6_linear_101_13)" stroke-width="1.15517"/>
<path d="M606.406 395.174L606.45 395.194L606.491 395.22C607.163 395.66 607.917 395.998 608.716 396.315C608.982 396.421 609.258 396.526 609.537 396.633C610.073 396.837 610.621 397.046 611.135 397.272C643.42 410.728 679.024 414.082 713.258 406.895C747.493 399.707 778.75 382.315 802.912 357.007C840.135 316.768 873.879 273.57 903.837 227.881C933.731 182.15 959.829 133.945 981.822 83.735C995.354 51.4677 998.794 15.8641 991.689 -18.388C984.584 -52.6397 967.271 -83.9306 942.026 -108.14C941.613 -108.52 941.203 -108.938 940.802 -109.347C940.592 -109.561 940.385 -109.772 940.181 -109.974C939.571 -110.579 938.96 -111.135 938.287 -111.575L938.247 -111.602L938.212 -111.635C860.019 -184.005 770.257 -242.772 672.649 -285.497L672.639 -285.501L672.629 -285.506C672.046 -285.789 671.431 -286.023 670.789 -286.268L670.994 -286.808L670.788 -286.268L670.773 -286.274L670.763 -286.277L670.754 -286.281L670.753 -286.282L670.746 -286.284C669.799 -286.643 668.79 -287.025 667.878 -287.613C635.731 -301.022 600.281 -304.422 566.164 -297.364C532.025 -290.303 500.814 -273.108 476.601 -248.029C476.599 -248.027 476.597 -248.025 476.596 -248.024L472.277 -243.355C436.332 -204.424 403.736 -162.652 374.792 -118.483C345.885 -74.2893 320.636 -27.7069 299.331 20.8086L296.779 26.6342C296.778 26.6363 296.777 26.6386 296.776 26.6407C283.474 58.8636 280.197 94.3465 287.379 128.461C294.555 162.553 311.849 193.684 336.996 217.785C337.9 218.386 338.654 219.157 339.362 219.883L339.383 219.904L339.383 219.904L339.393 219.915C339.394 219.915 339.394 219.915 339.394 219.915C339.875 220.406 340.335 220.876 340.827 221.297L340.836 221.304L340.844 221.312C419.041 293.685 508.803 352.452 606.406 395.174Z" stroke="url(#paint7_linear_101_13)" stroke-width="1.15517"/>
<path d="M613.872 427.315L613.916 427.334L613.957 427.361C614.629 427.801 615.383 428.139 616.182 428.456C616.448 428.562 616.724 428.667 617.003 428.773C617.539 428.978 618.087 429.187 618.601 429.413C650.886 442.869 686.49 446.222 720.724 439.035C754.959 431.848 786.216 414.456 810.378 389.148C847.601 348.909 881.345 305.711 911.303 260.021C941.197 214.29 967.294 166.086 989.288 115.876C1002.82 83.6083 1006.26 48.0047 999.155 13.7526C992.05 -20.4991 974.737 -51.79 949.491 -75.999C949.079 -76.3791 948.669 -76.7977 948.267 -77.2068C948.058 -77.4206 947.851 -77.6317 947.647 -77.8334C947.037 -78.4387 946.426 -78.9946 945.753 -79.4348L945.713 -79.4613L945.677 -79.4942C867.485 -151.864 777.723 -210.631 680.115 -253.356L680.105 -253.361L680.095 -253.366C679.511 -253.648 678.897 -253.883 678.254 -254.127L678.46 -254.667L678.254 -254.127L678.239 -254.133L678.229 -254.137L678.22 -254.141L678.219 -254.141L678.212 -254.143C677.264 -254.502 676.256 -254.884 675.343 -255.472C643.197 -268.881 607.747 -272.281 573.63 -265.224C539.491 -258.162 508.28 -240.967 484.066 -215.888C484.065 -215.886 484.063 -215.885 484.062 -215.883L479.743 -211.214C443.798 -172.283 411.201 -130.512 382.258 -86.3422C353.351 -42.1487 328.102 4.4337 306.797 52.9492L304.244 58.7748C304.244 58.777 304.243 58.7792 304.242 58.7813C290.94 91.0042 287.663 126.487 294.845 160.601C302.021 194.693 319.315 225.825 344.462 249.925C345.366 250.526 346.12 251.298 346.828 252.023L346.848 252.044L346.849 252.045L346.859 252.055C346.859 252.055 346.86 252.056 346.86 252.056C347.341 252.547 347.801 253.016 348.293 253.438L348.302 253.445L348.31 253.453C426.507 325.826 516.269 384.593 613.872 427.315Z" stroke="url(#paint8_linear_101_13)" stroke-width="1.15517"/>
<path d="M621.929 459.307L621.973 459.326L622.013 459.352C622.686 459.793 623.44 460.13 624.239 460.448C624.504 460.553 624.781 460.659 625.06 460.765C625.596 460.969 626.144 461.178 626.657 461.404C658.943 474.86 694.546 478.214 728.781 471.027C763.016 463.84 794.272 446.447 818.435 421.14C855.658 380.9 889.401 337.702 919.359 292.013C949.254 246.282 975.351 198.078 997.345 147.867C1010.88 115.6 1014.32 79.9964 1007.21 45.7443C1000.11 11.4926 982.793 -19.7983 957.548 -44.0073C957.136 -44.3874 956.725 -44.806 956.324 -45.2151C956.114 -45.4289 955.907 -45.64 955.704 -45.8417C955.093 -46.447 954.482 -47.0029 953.81 -47.4431L953.769 -47.4696L953.734 -47.5025C875.541 -119.873 785.779 -178.639 688.172 -221.365L688.162 -221.369L688.152 -221.374C687.568 -221.657 686.953 -221.891 686.311 -222.135L686.516 -222.675L686.311 -222.135L686.296 -222.141L686.286 -222.145L686.276 -222.149L686.275 -222.149L686.269 -222.151C685.321 -222.51 684.312 -222.892 683.4 -223.48C651.254 -236.89 615.804 -240.289 581.687 -233.232C547.547 -226.17 516.337 -208.976 492.123 -183.896C492.122 -183.895 492.12 -183.893 492.118 -183.891L487.8 -179.222C451.854 -140.292 419.258 -98.5198 390.315 -54.3505C361.407 -10.157 336.158 36.4254 314.853 84.9409L312.301 90.7665C312.3 90.7687 312.299 90.7709 312.298 90.773C298.996 122.996 295.72 158.479 302.901 192.593C310.078 226.685 327.372 257.817 352.519 281.917C353.423 282.518 354.176 283.29 354.885 284.015L354.905 284.036L354.905 284.036L354.916 284.047C354.916 284.047 354.916 284.047 354.916 284.048C355.397 284.539 355.857 285.008 356.35 285.429L356.358 285.437L356.367 285.444C434.564 357.818 524.326 416.584 621.929 459.307Z" stroke="url(#paint9_linear_101_13)" stroke-width="1.15517"/>
<path d="M630.597 491.25L630.641 491.27L630.681 491.296C631.354 491.736 632.108 492.074 632.906 492.392C633.172 492.497 633.448 492.603 633.728 492.709C634.264 492.913 634.812 493.122 635.325 493.348C667.611 506.804 703.214 510.158 737.449 502.971C771.684 495.783 802.94 478.391 827.103 453.084C864.326 412.844 898.069 369.646 928.027 323.957C957.922 278.226 984.019 230.021 1006.01 179.811C1019.54 147.544 1022.98 111.94 1015.88 77.6881C1008.77 43.4364 991.461 12.1456 966.216 -12.0635C965.804 -12.4436 965.393 -12.8621 964.992 -13.2712C964.782 -13.485 964.575 -13.6962 964.372 -13.8979C963.761 -14.5032 963.15 -15.0591 962.478 -15.4993L962.437 -15.5258L962.402 -15.5586C884.209 -87.9289 794.447 -146.696 696.84 -189.421L696.83 -189.425L696.82 -189.43C696.236 -189.713 695.621 -189.947 694.979 -190.192L695.184 -190.731L694.979 -190.192L694.964 -190.197L694.954 -190.201L694.944 -190.205L694.943 -190.206L694.937 -190.208C693.989 -190.566 692.98 -190.948 692.068 -191.537C659.922 -204.946 624.472 -208.346 590.355 -201.288C556.215 -194.227 525.005 -177.032 500.791 -151.953C500.789 -151.951 500.788 -151.949 500.786 -151.948L496.468 -147.278C460.522 -108.348 427.926 -66.576 398.983 -22.4066C370.075 21.7869 344.826 68.3692 323.521 116.885L320.969 122.71C320.968 122.713 320.967 122.715 320.966 122.717C307.664 154.94 304.388 190.423 311.569 224.537C318.746 258.629 336.04 289.761 361.187 313.861C362.091 314.462 362.844 315.234 363.553 315.959L363.573 315.98L363.573 315.98L363.584 315.991C363.584 315.991 363.584 315.991 363.584 315.991C364.065 316.482 364.525 316.952 365.018 317.373L365.026 317.381L365.035 317.388C443.232 389.761 532.994 448.528 630.597 491.25Z" stroke="url(#paint10_linear_101_13)" stroke-width="1.15517"/>
<path d="M639.401 522.559L639.445 522.578L639.486 522.605C640.158 523.045 640.912 523.383 641.711 523.7C641.977 523.806 642.253 523.911 642.532 524.018C643.068 524.222 643.616 524.431 644.129 524.657C676.415 538.113 712.019 541.466 746.253 534.279C780.488 527.092 811.744 509.7 835.907 484.392C873.13 444.153 906.874 400.955 936.832 355.265C966.726 309.534 992.823 261.33 1014.82 211.12C1028.35 178.852 1031.79 143.249 1024.68 108.997C1017.58 74.745 1000.27 43.4542 975.02 19.2451C974.608 18.865 974.197 18.4464 973.796 18.0374C973.587 17.8236 973.379 17.6124 973.176 17.4107C972.566 16.8054 971.954 16.2495 971.282 15.8093L971.242 15.7828L971.206 15.75C893.014 -56.6203 803.252 -115.387 705.644 -158.112L705.634 -158.117L705.624 -158.122C705.04 -158.404 704.426 -158.639 703.783 -158.883L703.988 -159.423L703.783 -158.883L703.768 -158.889L703.758 -158.892L703.748 -158.897L703.748 -158.897L703.741 -158.899C702.793 -159.258 701.784 -159.64 700.872 -160.228C668.726 -173.637 633.276 -177.037 599.159 -169.98C565.02 -162.918 533.809 -145.723 509.595 -120.644C509.594 -120.642 509.592 -120.641 509.591 -120.639L505.272 -115.97C469.326 -77.0393 436.73 -35.2674 407.787 8.90198C378.879 53.0955 353.631 99.6778 332.326 148.193L329.773 154.019C329.772 154.021 329.772 154.023 329.771 154.025C316.469 186.248 313.192 221.731 320.373 255.846C327.55 289.938 344.844 321.069 369.991 345.169C370.895 345.77 371.649 346.542 372.357 347.267L372.377 347.288L372.378 347.289L372.388 347.299C372.388 347.3 372.388 347.3 372.389 347.3C372.869 347.791 373.33 348.26 373.822 348.682L373.831 348.689L373.839 348.697C452.036 421.07 541.798 479.837 639.401 522.559Z" stroke="url(#paint11_linear_101_13)" stroke-width="1.15517"/>
<path d="M647.405 554.55L647.449 554.569L647.489 554.596C648.162 555.036 648.916 555.374 649.715 555.691C649.981 555.797 650.257 555.902 650.536 556.008C651.072 556.213 651.62 556.421 652.133 556.648C684.419 570.104 720.022 573.457 754.257 566.27C788.492 559.083 819.748 541.691 843.911 516.383C881.134 476.144 914.877 432.945 944.836 387.256C974.73 341.525 1000.83 293.321 1022.82 243.111C1036.35 210.843 1039.79 175.24 1032.69 140.987C1025.58 106.736 1008.27 75.4449 983.024 51.2359C982.612 50.8558 982.201 50.4372 981.8 50.0281C981.59 49.8143 981.383 49.6031 981.18 49.4014C980.569 48.7962 979.958 48.2402 979.286 47.8L979.246 47.7736L979.21 47.7407C901.017 -24.6296 811.256 -83.3962 713.648 -126.121L713.638 -126.126L713.628 -126.131C713.044 -126.414 712.43 -126.648 711.787 -126.892L711.992 -127.432L711.787 -126.892L711.772 -126.898L711.762 -126.902L711.752 -126.906L711.751 -126.906L711.745 -126.908C710.797 -127.267 709.788 -127.649 708.876 -128.237C676.73 -141.647 641.28 -145.046 607.163 -137.989C573.024 -130.927 541.813 -113.732 517.599 -88.6532C517.598 -88.6516 517.596 -88.6499 517.594 -88.6483L513.276 -83.979C477.33 -45.0485 444.734 -3.27668 415.791 40.8927C386.883 85.0862 361.635 131.669 340.33 180.184L337.777 186.01C337.776 186.012 337.775 186.014 337.775 186.016C324.473 218.239 321.196 253.722 328.377 287.836C335.554 321.928 352.848 353.06 377.995 377.16C378.899 377.761 379.653 378.533 380.361 379.258L380.381 379.279L380.381 379.279L380.392 379.29C380.392 379.29 380.392 379.291 380.393 379.291C380.873 379.782 381.334 380.251 381.826 380.673L381.834 380.68L381.843 380.688C460.04 453.061 549.802 511.827 647.405 554.55Z" stroke="url(#paint12_linear_101_13)" stroke-width="1.15517"/>
<path d="M654.259 586.808L654.303 586.827L654.344 586.853C655.016 587.294 655.77 587.631 656.569 587.949C656.835 588.054 657.111 588.16 657.39 588.266C657.926 588.47 658.474 588.679 658.988 588.905C691.273 602.361 726.877 605.715 761.112 598.528C795.346 591.341 826.603 573.948 850.765 548.641C887.988 508.401 921.732 465.203 951.69 419.514C981.585 373.783 1007.68 325.579 1029.68 275.368C1043.21 243.101 1046.65 207.497 1039.54 173.245C1032.44 138.994 1015.12 107.703 989.879 83.4937C989.466 83.1136 989.056 82.695 988.655 82.2859C988.445 82.0721 988.238 81.861 988.034 81.6592C987.424 81.054 986.813 80.498 986.14 80.0579L986.1 80.0314L986.065 79.9985C907.872 7.62825 818.11 -51.1384 720.502 -93.8637L720.492 -93.8681L720.482 -93.873C719.899 -94.1558 719.284 -94.39 718.642 -94.6344L718.847 -95.1743L718.641 -94.6345L718.626 -94.6402L718.616 -94.644L718.607 -94.648L718.606 -94.6484L718.599 -94.6504C717.652 -95.0094 716.643 -95.3913 715.731 -95.9795C683.584 -109.389 648.134 -112.788 614.017 -105.731C579.878 -98.6694 548.667 -81.4747 524.454 -56.3954C524.452 -56.3938 524.451 -56.3921 524.449 -56.3905L520.13 -51.7212C484.185 -12.7907 451.589 28.9811 422.645 73.1505C393.738 117.344 368.489 163.926 347.184 212.442L344.632 218.267C344.631 218.27 344.63 218.272 344.629 218.274C331.327 250.497 328.05 285.98 335.232 320.094C342.408 354.186 359.702 385.318 384.849 409.418C385.753 410.019 386.507 410.791 387.215 411.516L387.236 411.537L387.236 411.537L387.246 411.548C387.247 411.548 387.247 411.548 387.247 411.549C387.728 412.04 388.188 412.509 388.68 412.93L388.689 412.938L388.697 412.945C466.894 485.319 556.656 544.085 654.259 586.808Z" stroke="url(#paint13_linear_101_13)" stroke-width="1.15517"/>
<path d="M659.873 619.309L659.918 619.329L659.958 619.355C660.631 619.796 661.384 620.133 662.183 620.451C662.449 620.556 662.725 620.662 663.005 620.768C663.54 620.972 664.089 621.181 664.602 621.407C696.887 634.863 732.491 638.217 766.726 631.03C800.961 623.843 832.217 606.45 856.379 581.143C893.603 540.903 927.346 497.705 957.304 452.016C987.199 406.285 1013.3 358.08 1035.29 307.87C1048.82 275.603 1052.26 239.999 1045.16 205.747C1038.05 171.496 1020.74 140.205 995.493 115.996C995.081 115.616 994.67 115.197 994.269 114.788C994.059 114.574 993.852 114.363 993.649 114.161C993.038 113.556 992.427 113 991.755 112.56L991.714 112.533L991.679 112.5C913.486 40.1302 823.724 -18.6365 726.117 -61.3617L726.107 -61.3662L726.096 -61.371C725.513 -61.6539 724.898 -61.8881 724.256 -62.1324L724.461 -62.6723L724.256 -62.1325L724.24 -62.1383L724.231 -62.142L724.221 -62.146L724.22 -62.1464L724.214 -62.1485C723.266 -62.5074 722.257 -62.8893 721.345 -63.4775C689.199 -76.8868 653.749 -80.2865 619.632 -73.2292C585.492 -66.1674 554.281 -48.9727 530.068 -23.8934C530.066 -23.8918 530.065 -23.8902 530.063 -23.8885L525.745 -19.2193C489.799 19.7112 457.203 61.4831 428.259 105.652C399.352 149.846 374.103 196.428 352.798 244.944L350.246 250.769C350.245 250.772 350.244 250.774 350.243 250.776C336.941 282.999 333.664 318.482 340.846 352.596C348.023 386.688 365.317 417.82 390.464 441.92C391.368 442.521 392.121 443.293 392.829 444.018L392.85 444.039L392.85 444.039L392.861 444.05C392.861 444.05 392.861 444.05 392.861 444.051C393.342 444.541 393.802 445.011 394.295 445.432L394.303 445.44L394.311 445.447C472.509 517.821 562.27 576.587 659.873 619.309Z" stroke="url(#paint14_linear_101_13)" stroke-width="1.15517"/>
<path d="M664.165 652.001L664.209 652.02L664.25 652.047C664.922 652.487 665.676 652.825 666.475 653.142C666.741 653.248 667.017 653.353 667.296 653.46C667.832 653.664 668.38 653.873 668.894 654.099C701.179 667.555 736.783 670.908 771.017 663.721C805.252 656.534 836.509 639.142 860.671 613.834C897.894 573.595 931.638 530.397 961.596 484.707C991.49 438.976 1017.59 390.772 1039.58 340.562C1053.11 308.294 1056.55 272.691 1049.45 238.439C1042.34 204.187 1025.03 172.896 999.784 148.687C999.372 148.307 998.962 147.888 998.56 147.479C998.351 147.265 998.144 147.054 997.94 146.853C997.33 146.247 996.719 145.691 996.046 145.251L996.006 145.225L995.97 145.192C917.778 72.8216 828.016 14.055 730.408 -28.6703L730.398 -28.6747L730.388 -28.6796C729.804 -28.9624 729.19 -29.1966 728.547 -29.441L728.753 -29.9809L728.547 -29.4411L728.532 -29.4469L728.522 -29.4506L728.513 -29.4546L728.512 -29.455L728.505 -29.4571C727.557 -29.816 726.549 -30.1979 725.636 -30.7861C693.49 -44.1954 658.04 -47.5951 623.923 -40.5378C589.784 -33.476 558.573 -16.2813 534.359 8.79798C534.358 8.79961 534.356 8.80124 534.355 8.80287L530.036 13.4721C494.091 52.4026 461.494 94.1745 432.551 138.344C403.644 182.537 378.395 229.12 357.09 277.635L354.537 283.461C354.537 283.463 354.536 283.465 354.535 283.467C341.233 315.69 337.956 351.173 345.137 385.287C352.314 419.379 369.608 450.511 394.755 474.611C395.659 475.212 396.413 475.984 397.121 476.709L397.141 476.73L397.142 476.731L397.152 476.741C397.152 476.742 397.153 476.742 397.153 476.742C397.634 477.233 398.094 477.702 398.586 478.124L398.595 478.131L398.603 478.139C476.8 550.512 566.562 609.279 664.165 652.001Z" stroke="url(#paint15_linear_101_13)" stroke-width="1.15517"/>
<path d="M667.037 684.857L667.081 684.877L667.122 684.903C667.794 685.343 668.548 685.681 669.347 685.999C669.613 686.104 669.889 686.209 670.168 686.316C670.704 686.52 671.252 686.729 671.766 686.955C704.051 700.411 739.655 703.765 773.889 696.578C808.124 689.39 839.381 671.998 863.543 646.691C900.766 606.451 934.51 563.253 964.468 517.564C994.362 471.833 1020.46 423.628 1042.45 373.418C1055.98 341.151 1059.42 305.547 1052.32 271.295C1045.22 237.043 1027.9 205.753 1002.66 181.543C1002.24 181.163 1001.83 180.745 1001.43 180.336C1001.22 180.122 1001.02 179.911 1000.81 179.709C1000.2 179.104 999.591 178.548 998.918 178.108L998.878 178.081L998.842 178.048C920.65 105.678 830.888 46.9114 733.28 4.18613L733.27 4.1817L733.26 4.1768C732.676 3.894 732.062 3.6598 731.419 3.4154L731.625 2.87555L731.419 3.41534L731.404 3.40956L731.394 3.40585L731.385 3.40183L731.384 3.40143L731.377 3.39939C730.429 3.04044 729.421 2.65851 728.508 2.07032C696.362 -11.339 660.912 -14.7386 626.795 -7.68139C592.656 -0.619589 561.445 16.5751 537.232 41.6544C537.23 41.6561 537.228 41.6577 537.227 41.6593L532.908 46.3286C496.963 85.2591 464.366 127.031 435.423 171.2C406.516 215.394 381.267 261.976 359.962 310.492L357.41 316.317C357.409 316.319 357.408 316.322 357.407 316.324C344.105 348.547 340.828 384.03 348.01 418.144C355.186 452.236 372.48 483.367 397.627 507.468C398.531 508.069 399.285 508.841 399.993 509.566L400.013 509.587L400.014 509.587L400.024 509.598C400.024 509.598 400.025 509.598 400.025 509.598C400.506 510.089 400.966 510.559 401.458 510.98L401.467 510.988L401.475 510.995C479.672 583.368 569.434 642.135 667.037 684.857Z" stroke="url(#paint16_linear_101_13)" stroke-width="1.15517"/>
<path d="M668.398 717.808L668.443 717.828L668.483 717.854C669.155 718.295 669.909 718.632 670.708 718.95C670.974 719.055 671.25 719.161 671.53 719.267C672.065 719.471 672.613 719.68 673.127 719.906C705.412 733.362 741.016 736.716 775.251 729.529C809.486 722.342 840.742 704.949 864.904 679.642C902.128 639.402 935.871 596.204 965.829 550.515C995.724 504.784 1021.82 456.579 1043.81 406.369C1057.35 374.102 1060.79 338.498 1053.68 304.246C1046.58 269.995 1029.26 238.704 1004.02 214.495C1003.61 214.115 1003.19 213.696 1002.79 213.287C1002.58 213.073 1002.38 212.862 1002.17 212.66C1001.56 212.055 1000.95 211.499 1000.28 211.059L1000.24 211.032L1000.2 210.999C922.011 138.629 832.249 79.8626 734.642 37.1373L734.631 37.1329L734.621 37.128C734.038 36.8452 733.423 36.611 732.781 36.3666L732.986 35.8267L732.78 36.3665L732.765 36.3607L732.756 36.357L732.746 36.353L732.745 36.3526L732.739 36.3506C731.791 35.9916 730.782 35.6097 729.87 35.0215C697.723 21.6122 662.274 18.2125 628.157 25.2698C594.017 32.3316 562.806 49.5263 538.593 74.6056C538.591 74.6072 538.59 74.6089 538.588 74.6105L534.27 79.2797C498.324 118.21 465.728 159.982 436.784 204.151C407.877 248.345 382.628 294.927 361.323 343.443L358.771 349.268C358.77 349.271 358.769 349.273 358.768 349.275C345.466 381.498 342.189 416.981 349.371 451.095C356.548 485.187 373.842 516.319 398.988 540.419C399.893 541.02 400.646 541.792 401.354 542.517L401.375 542.538L401.375 542.538L401.386 542.549C401.386 542.549 401.386 542.549 401.386 542.55C401.867 543.04 402.327 543.51 402.82 543.931L402.828 543.939L402.836 543.946C481.033 616.32 570.795 675.086 668.398 717.808Z" stroke="url(#paint17_linear_101_13)" stroke-width="1.15517"/>
<path d="M668.161 750.788L668.205 750.808L668.245 750.834C668.918 751.275 669.672 751.612 670.47 751.93C670.736 752.035 671.012 752.141 671.292 752.247C671.828 752.451 672.376 752.66 672.889 752.886C705.174 766.342 740.778 769.696 775.013 762.509C809.248 755.322 840.504 737.929 864.667 712.622C901.89 672.382 935.633 629.184 965.591 583.495C995.486 537.764 1021.58 489.559 1043.58 439.349C1057.11 407.082 1060.55 371.478 1053.44 337.226C1046.34 302.975 1029.03 271.684 1003.78 247.475C1003.37 247.095 1002.96 246.676 1002.56 246.267C1002.35 246.053 1002.14 245.842 1001.94 245.64C1001.33 245.035 1000.71 244.479 1000.04 244.039L1000 244.012L999.966 243.979C921.773 171.609 832.011 112.843 734.404 70.1173L734.394 70.1128L734.384 70.108C733.8 69.8252 733.185 69.591 732.543 69.3466L732.748 68.8067L732.543 69.3465L732.528 69.3407L732.518 69.337L732.508 69.333L732.507 69.3326L732.501 69.3305C731.553 68.9716 730.544 68.5897 729.632 68.0015C697.486 54.5922 662.036 51.1925 627.919 58.2498C593.779 65.3116 562.568 82.5063 538.355 107.586C538.353 107.587 538.352 107.589 538.35 107.59L534.032 112.26C498.086 151.19 465.49 192.962 436.547 237.131C407.639 281.325 382.39 327.907 361.085 376.423L358.533 382.248C358.532 382.251 358.531 382.253 358.53 382.255C345.228 414.478 341.952 449.961 349.133 484.075C356.31 518.167 373.604 549.299 398.751 573.399C399.655 574 400.408 574.772 401.117 575.497L401.137 575.518L401.137 575.518L401.148 575.529C401.148 575.529 401.148 575.529 401.148 575.53C401.629 576.02 402.089 576.49 402.582 576.911L402.59 576.919L402.598 576.926C480.796 649.3 570.558 708.066 668.161 750.788Z" stroke="url(#paint18_linear_101_13)" stroke-width="1.15517"/>
<path d="M666.235 783.71L666.279 783.73L666.32 783.756C666.992 784.196 667.746 784.534 668.545 784.852C668.811 784.957 669.087 785.062 669.366 785.169C669.902 785.373 670.45 785.582 670.963 785.808C703.249 799.264 738.853 802.618 773.087 795.431C807.322 788.243 838.578 770.851 862.741 745.544C899.964 705.304 933.708 662.106 963.666 616.417C993.56 570.686 1019.66 522.481 1041.65 472.271C1055.18 440.004 1058.62 404.4 1051.52 370.148C1044.41 335.896 1027.1 304.606 1001.85 280.397C1001.44 280.016 1001.03 279.598 1000.63 279.189C1000.42 278.975 1000.21 278.764 1000.01 278.562C999.4 277.957 998.788 277.401 998.116 276.961L998.076 276.934L998.04 276.901C919.847 204.531 830.086 145.764 732.478 103.039L732.468 103.035L732.458 103.03C731.874 102.747 731.26 102.513 730.617 102.268L730.822 101.729L730.617 102.268L730.602 102.263L730.592 102.259L730.582 102.255L730.582 102.254L730.575 102.252C729.627 101.893 728.618 101.512 727.706 100.923C695.56 87.5141 660.11 84.1144 625.993 91.1716C591.854 98.2334 560.643 115.428 536.429 140.507C536.428 140.509 536.426 140.511 536.425 140.512L532.106 145.182C496.16 184.112 463.564 225.884 434.621 270.053C405.713 314.247 380.465 360.829 359.16 409.345L356.607 415.17C356.606 415.172 356.606 415.175 356.605 415.177C343.303 447.4 340.026 482.883 347.207 516.997C354.384 551.089 371.678 582.221 396.825 606.321C397.729 606.922 398.483 607.694 399.191 608.419L399.211 608.44L399.212 608.44L399.222 608.451C399.222 608.451 399.222 608.451 399.223 608.451C399.703 608.942 400.164 609.412 400.656 609.833L400.664 609.841L400.673 609.848C478.87 682.221 568.632 740.988 666.235 783.71Z" stroke="url(#paint19_linear_101_13)" stroke-width="1.15517"/>
<path d="M662.552 816.492L662.596 816.511L662.636 816.537C663.309 816.978 664.063 817.315 664.862 817.633C665.128 817.739 665.404 817.844 665.683 817.95C666.219 818.154 666.767 818.363 667.28 818.589C699.566 832.045 735.169 835.399 769.404 828.212C803.639 821.025 834.895 803.633 859.058 778.325C896.281 738.085 930.024 694.887 959.982 649.198C989.877 603.467 1015.97 555.263 1037.97 505.052C1051.5 472.785 1054.94 437.181 1047.83 402.929C1040.73 368.678 1023.42 337.387 998.171 313.178C997.759 312.798 997.348 312.379 996.947 311.97C996.737 311.756 996.53 311.545 996.327 311.343C995.716 310.738 995.105 310.182 994.433 309.742L994.393 309.715L994.357 309.683C916.164 237.312 826.403 178.546 728.795 135.82L728.785 135.816L728.775 135.811C728.191 135.528 727.577 135.294 726.934 135.05L727.139 134.51L726.934 135.05L726.919 135.044L726.909 135.04L726.899 135.036L726.898 135.036L726.892 135.034C725.944 134.675 724.935 134.293 724.023 133.705C691.877 120.295 656.427 116.896 622.31 123.953C588.171 131.015 556.96 148.209 532.746 173.289C532.745 173.29 532.743 173.292 532.741 173.294L528.423 177.963C492.477 216.893 459.881 258.665 430.938 302.835C402.03 347.028 376.782 393.61 355.477 442.126L352.924 447.952C352.923 447.954 352.922 447.956 352.922 447.958C339.62 480.181 336.343 515.664 343.524 549.778C350.701 583.87 367.995 615.002 393.142 639.102C394.046 639.703 394.799 640.475 395.508 641.2L395.528 641.221L395.528 641.221L395.539 641.232C395.539 641.232 395.539 641.232 395.539 641.233C396.02 641.724 396.481 642.193 396.973 642.615L396.981 642.622L396.99 642.629C475.187 715.003 564.949 773.769 662.552 816.492Z" stroke="url(#paint20_linear_101_13)" stroke-width="1.15517"/>
<path d="M657.046 849.009L657.091 849.029L657.131 849.055C657.803 849.495 658.557 849.833 659.356 850.15C659.622 850.256 659.898 850.361 660.178 850.468C660.713 850.672 661.261 850.881 661.775 851.107C694.06 864.563 729.664 867.917 763.899 860.729C798.134 853.542 829.39 836.15 853.552 810.842C890.775 770.603 924.519 727.405 954.477 681.716C984.372 635.984 1010.47 587.78 1032.46 537.57C1045.99 505.303 1049.43 469.699 1042.33 435.447C1035.22 401.195 1017.91 369.904 992.666 345.695C992.253 345.315 991.843 344.897 991.442 344.488C991.232 344.274 991.025 344.063 990.821 343.861C990.211 343.256 989.6 342.7 988.928 342.26L988.887 342.233L988.852 342.2C910.659 269.83 820.897 211.063 723.29 168.338L723.279 168.334L723.269 168.329C722.686 168.046 722.071 167.812 721.429 167.567L721.634 167.027L721.428 167.567L721.413 167.561L721.404 167.558L721.394 167.554L721.393 167.553L721.386 167.551C720.439 167.192 719.43 166.81 718.518 166.222C686.371 152.813 650.922 149.413 616.805 156.47C582.665 163.532 551.454 180.727 527.241 205.806C527.239 205.808 527.238 205.81 527.236 205.811L522.917 210.48C486.972 249.411 454.376 291.183 425.432 335.352C396.525 379.546 371.276 426.128 349.971 474.644L347.419 480.469C347.418 480.471 347.417 480.474 347.416 480.476C334.114 512.699 330.837 548.181 338.019 582.296C345.196 616.388 362.49 647.519 387.636 671.62C388.54 672.221 389.294 672.992 390.002 673.718L390.023 673.739L390.023 673.739L390.034 673.75C390.034 673.75 390.034 673.75 390.034 673.75C390.515 674.241 390.975 674.711 391.468 675.132L391.476 675.139L391.484 675.147C469.681 747.52 559.443 806.287 657.046 849.009Z" stroke="url(#paint21_linear_101_13)" stroke-width="1.15517"/>
<path d="M649.678 881.166L649.722 881.185L649.762 881.212C650.435 881.652 651.189 881.99 651.988 882.307C652.253 882.413 652.53 882.518 652.809 882.625C653.345 882.829 653.893 883.038 654.406 883.264C686.692 896.72 722.295 900.073 756.53 892.886C790.765 885.699 822.021 868.307 846.184 842.999C883.407 802.76 917.15 759.562 947.108 713.872C977.003 668.141 1003.1 619.937 1025.09 569.727C1038.63 537.459 1042.07 501.856 1034.96 467.604C1027.86 433.352 1010.54 402.061 985.297 377.852C984.885 377.472 984.474 377.053 984.073 376.644C983.863 376.431 983.656 376.219 983.453 376.018C982.842 375.412 982.231 374.856 981.559 374.416L981.518 374.39L981.483 374.357C903.29 301.987 813.529 243.22 715.921 200.495L715.911 200.49L715.901 200.485C715.317 200.203 714.702 199.968 714.06 199.724L714.265 199.184L714.06 199.724L714.045 199.718L714.035 199.714L714.025 199.71L714.024 199.71L714.018 199.708C713.07 199.349 712.061 198.967 711.149 198.379C679.003 184.97 643.553 181.57 609.436 188.627C575.297 195.689 544.086 212.884 519.872 237.963C519.871 237.965 519.869 237.966 519.867 237.968L515.549 242.637C479.603 281.568 447.007 323.34 418.064 367.509C389.156 411.702 363.908 458.285 342.603 506.8L340.05 512.626C340.049 512.628 340.048 512.63 340.047 512.632C326.745 544.855 323.469 580.338 330.65 614.453C337.827 648.544 355.121 679.676 380.268 703.776C381.172 704.377 381.925 705.149 382.634 705.874L382.654 705.895L382.654 705.896L382.665 705.906C382.665 705.907 382.665 705.907 382.665 705.907C383.146 706.398 383.606 706.867 384.099 707.289L384.107 707.296L384.116 707.304C462.313 779.677 552.075 838.444 649.678 881.166Z" stroke="url(#paint22_linear_101_13)" stroke-width="1.15517"/>
<path d="M640.427 912.829L640.471 912.848L640.511 912.875C641.184 913.315 641.938 913.653 642.737 913.97C643.003 914.076 643.279 914.181 643.558 914.288C644.094 914.492 644.642 914.701 645.155 914.927C677.441 928.383 713.044 931.736 747.279 924.549C781.514 917.362 812.77 899.97 836.933 874.662C874.156 834.423 907.899 791.225 937.857 745.535C967.752 699.804 993.849 651.6 1015.84 601.39C1029.37 569.122 1032.81 533.519 1025.71 499.267C1018.6 465.015 1001.29 433.724 976.046 409.515C975.634 409.135 975.223 408.716 974.822 408.307C974.612 408.094 974.405 407.882 974.202 407.681C973.591 407.075 972.98 406.52 972.308 406.079L972.268 406.053L972.232 406.02C894.039 333.65 804.278 274.883 706.67 232.158L706.66 232.153L706.65 232.148C706.066 231.866 705.452 231.631 704.809 231.387L705.014 230.847L704.809 231.387L704.794 231.381L704.784 231.378L704.774 231.374L704.773 231.373L704.767 231.371C703.819 231.012 702.81 230.63 701.898 230.042C669.752 216.633 634.302 213.233 600.185 220.29C566.046 227.352 534.835 244.547 510.621 269.626C510.62 269.628 510.618 269.629 510.616 269.631L506.298 274.3C470.352 313.231 437.756 355.003 408.813 399.172C379.905 443.366 354.657 489.948 333.352 538.463L330.799 544.289C330.798 544.291 330.797 544.293 330.797 544.295C317.495 576.518 314.218 612.001 321.399 646.116C328.576 680.208 345.87 711.339 371.017 735.439C371.921 736.04 372.674 736.812 373.383 737.537L373.403 737.558L373.403 737.559L373.414 737.569C373.414 737.57 373.414 737.57 373.414 737.57C373.895 738.061 374.356 738.53 374.848 738.952L374.856 738.959L374.865 738.967C453.062 811.34 542.824 870.107 640.427 912.829Z" stroke="url(#paint23_linear_101_13)" stroke-width="1.15517"/>
<path d="M629.293 943.886L629.337 943.906L629.378 943.932C630.05 944.372 630.804 944.71 631.603 945.027C631.869 945.133 632.145 945.238 632.424 945.345C632.96 945.549 633.508 945.758 634.022 945.984C666.307 959.44 701.911 962.794 736.145 955.606C770.38 948.419 801.637 931.027 825.799 905.719C863.022 865.48 896.766 822.282 926.724 776.592C956.618 730.861 982.715 682.657 1004.71 632.447C1018.24 600.18 1021.68 564.576 1014.58 530.324C1007.47 496.072 990.158 464.781 964.912 440.572C964.5 440.192 964.089 439.774 963.688 439.365C963.479 439.151 963.272 438.94 963.068 438.738C962.458 438.133 961.847 437.577 961.174 437.136L961.134 437.11L961.098 437.077C882.906 364.707 793.144 305.94 695.536 263.215L695.526 263.211L695.516 263.206C694.932 262.923 694.318 262.689 693.675 262.444L693.881 261.904L693.675 262.444L693.66 262.438L693.65 262.435L693.641 262.431L693.64 262.43L693.633 262.428C692.685 262.069 691.676 261.687 690.764 261.099C658.618 247.69 623.168 244.29 589.051 251.347C554.912 258.409 523.701 275.604 499.487 300.683C499.486 300.685 499.484 300.686 499.483 300.688L495.164 305.357C459.219 344.288 426.622 386.06 397.679 430.229C368.772 474.423 343.523 521.005 322.218 569.52L319.665 575.346C319.664 575.348 319.664 575.35 319.663 575.353C306.361 607.576 303.084 643.058 310.265 677.173C317.442 711.265 334.736 742.396 359.883 766.497C360.787 767.097 361.541 767.869 362.249 768.595L362.269 768.616L362.27 768.616L362.28 768.627C362.28 768.627 362.281 768.627 362.281 768.627C362.761 769.118 363.222 769.588 363.714 770.009L363.723 770.016L363.731 770.024C441.928 842.397 531.69 901.164 629.293 943.886Z" stroke="url(#paint24_linear_101_13)" stroke-width="1.15517"/>
<path d="M616.312 974.217L616.356 974.236L616.397 974.263C617.069 974.703 617.823 975.041 618.622 975.358C618.888 975.464 619.164 975.569 619.443 975.675C619.979 975.88 620.527 976.088 621.041 976.315C653.326 989.771 688.93 993.124 723.164 985.937C757.399 978.75 788.656 961.358 812.818 936.05C850.041 895.811 883.785 852.612 913.743 806.923C943.637 761.192 969.734 712.988 991.728 662.778C1005.26 630.51 1008.7 594.907 1001.59 560.654C994.49 526.403 977.177 495.112 951.931 470.903C951.519 470.523 951.109 470.104 950.707 469.695C950.498 469.481 950.291 469.27 950.087 469.068C949.477 468.463 948.866 467.907 948.193 467.467L948.153 467.441L948.117 467.408C869.925 395.037 780.163 336.271 682.555 293.546L682.545 293.541L682.535 293.536C681.951 293.253 681.337 293.019 680.694 292.775L680.9 292.235L680.694 292.775L680.679 292.769L680.669 292.765L680.66 292.761L680.659 292.761L680.652 292.759C679.704 292.4 678.696 292.018 677.783 291.43C645.637 278.02 610.187 274.621 576.07 281.678C541.931 288.74 510.72 305.935 486.506 331.014C486.505 331.015 486.503 331.017 486.502 331.019L482.183 335.688C446.238 374.618 413.641 416.39 384.698 460.56C355.791 504.753 330.542 551.336 309.237 599.851L306.684 605.677C306.684 605.679 306.683 605.681 306.682 605.683C293.38 637.906 290.103 673.389 297.284 707.503C304.461 741.595 321.755 772.727 346.902 796.827C347.806 797.428 348.56 798.2 349.268 798.925L349.288 798.946L349.289 798.946L349.299 798.957C349.299 798.957 349.3 798.958 349.3 798.958C349.781 799.449 350.241 799.918 350.733 800.34L350.742 800.347L350.75 800.355C428.947 872.728 518.709 931.494 616.312 974.217Z" stroke="url(#paint25_linear_101_13)" stroke-width="1.15517"/>
<path d="M601.522 1003.71L601.566 1003.73L601.607 1003.76C602.279 1004.2 603.033 1004.53 603.832 1004.85C604.098 1004.96 604.374 1005.06 604.653 1005.17C605.189 1005.37 605.737 1005.58 606.251 1005.81C638.536 1019.26 674.14 1022.62 708.374 1015.43C742.609 1008.24 773.866 990.85 798.028 965.543C835.251 925.303 868.995 882.105 898.953 836.416C928.847 790.685 954.944 742.48 976.938 692.27C990.47 660.003 993.909 624.399 986.805 590.147C979.7 555.895 962.387 524.605 937.141 500.396C936.729 500.015 936.318 499.597 935.917 499.188C935.708 498.974 935.501 498.763 935.297 498.561C934.687 497.956 934.076 497.4 933.403 496.96L933.363 496.933L933.327 496.9C855.135 424.53 765.373 365.763 667.765 323.038L667.755 323.034L667.745 323.029C667.161 322.746 666.547 322.512 665.904 322.267L666.11 321.728L665.904 322.267L665.889 322.262L665.879 322.258L665.87 322.254L665.869 322.253L665.862 322.251C664.914 321.892 663.905 321.511 662.993 320.922C630.847 307.513 595.397 304.113 561.28 311.171C527.141 318.232 495.93 335.427 471.716 360.506C471.715 360.508 471.713 360.51 471.712 360.511L467.393 365.181C431.448 404.111 398.851 445.883 369.908 490.052C341.001 534.246 315.752 580.828 294.447 629.344L291.894 635.169C291.893 635.172 291.893 635.174 291.892 635.176C278.59 667.399 275.313 702.882 282.494 736.996C289.671 771.088 306.965 802.22 332.112 826.32C333.016 826.921 333.77 827.693 334.478 828.418L334.498 828.439L334.499 828.439L334.509 828.45C334.509 828.45 334.51 828.45 334.51 828.45C334.99 828.941 335.451 829.411 335.943 829.832L335.952 829.84L335.96 829.847C414.157 902.22 503.919 960.987 601.522 1003.71Z" stroke="url(#paint26_linear_101_13)" stroke-width="1.15517"/>
<path d="M585.012 1032.27L585.056 1032.29L585.097 1032.32C585.769 1032.76 586.523 1033.1 587.322 1033.41C587.588 1033.52 587.864 1033.62 588.143 1033.73C588.679 1033.93 589.227 1034.14 589.741 1034.37C622.026 1047.83 657.63 1051.18 691.864 1043.99C726.099 1036.8 757.356 1019.41 781.518 994.105C818.741 953.866 852.485 910.668 882.443 864.978C912.337 819.247 938.435 771.043 960.428 720.833C973.96 688.565 977.4 652.962 970.295 618.71C963.19 584.458 945.877 553.167 920.632 528.958C920.219 528.578 919.809 528.159 919.407 527.75C919.198 527.536 918.991 527.325 918.787 527.124C918.177 526.518 917.566 525.962 916.893 525.522L916.853 525.496L916.817 525.463C838.625 453.093 748.863 394.326 651.255 351.601L651.245 351.596L651.235 351.591C650.652 351.309 650.037 351.074 649.394 350.83L649.6 350.29L649.394 350.83L649.379 350.824L649.369 350.82L649.36 350.816L649.359 350.816L649.352 350.814C648.405 350.455 647.396 350.073 646.483 349.485C614.337 336.076 578.887 332.676 544.77 339.733C510.631 346.795 479.42 363.99 455.207 389.069C455.205 389.071 455.203 389.072 455.202 389.074L450.883 393.743C414.938 432.674 382.341 474.445 353.398 518.615C324.491 562.808 299.242 609.391 277.937 657.906L275.385 663.732C275.384 663.734 275.383 663.736 275.382 663.738C262.08 695.961 258.803 731.444 265.985 765.558C273.161 799.65 290.455 830.782 315.602 854.882C316.506 855.483 317.26 856.255 317.968 856.98L317.989 857.001L317.989 857.002L317.999 857.012C318 857.013 318 857.013 318 857.013C318.481 857.504 318.941 857.973 319.433 858.395L319.442 858.402L319.45 858.41C397.647 930.783 487.409 989.55 585.012 1032.27Z" stroke="url(#paint27_linear_101_13)" stroke-width="1.15517"/>
<path d="M566.865 1059.82L566.909 1059.84L566.95 1059.87C567.622 1060.31 568.376 1060.65 569.175 1060.97C569.441 1061.07 569.717 1061.18 569.996 1061.28C570.532 1061.49 571.08 1061.7 571.594 1061.92C603.879 1075.38 639.483 1078.73 673.717 1071.54C707.952 1064.36 739.209 1046.97 763.371 1021.66C800.594 981.418 834.338 938.22 864.296 892.53C894.19 846.799 920.288 798.595 942.281 748.385C955.813 716.118 959.253 680.514 952.148 646.262C945.043 612.01 927.73 580.719 902.485 556.51C902.072 556.13 901.662 555.712 901.261 555.302C901.051 555.089 900.844 554.878 900.64 554.676C900.03 554.071 899.419 553.515 898.746 553.074L898.706 553.048L898.67 553.015C820.478 480.645 730.716 421.878 633.108 379.153L633.098 379.148L633.088 379.144C632.505 378.861 631.89 378.627 631.247 378.382L631.453 377.842L631.247 378.382L631.232 378.376L631.222 378.373L631.213 378.369L631.212 378.368L631.205 378.366C630.258 378.007 629.249 377.625 628.337 377.037C596.19 363.628 560.74 360.228 526.623 367.285C492.484 374.347 461.273 391.542 437.06 416.621C437.058 416.623 437.056 416.624 437.055 416.626L432.736 421.295C396.791 460.226 364.195 501.998 335.251 546.167C306.344 590.361 281.095 636.943 259.79 685.458L257.238 691.284C257.237 691.286 257.236 691.288 257.235 691.291C243.933 723.513 240.656 758.996 247.838 793.111C255.014 827.203 272.308 858.334 297.455 882.435C298.359 883.035 299.113 883.807 299.821 884.533L299.842 884.554L299.842 884.554L299.852 884.565C299.853 884.565 299.853 884.565 299.853 884.565C300.334 885.056 300.794 885.525 301.286 885.947L301.295 885.954L301.303 885.962C379.5 958.335 469.262 1017.1 566.865 1059.82Z" stroke="url(#paint28_linear_101_13)" stroke-width="1.15517"/>
<path d="M547.185 1086.31L547.229 1086.33L547.27 1086.35C547.942 1086.79 548.696 1087.13 549.495 1087.45C549.761 1087.55 550.037 1087.66 550.316 1087.77C550.852 1087.97 551.4 1088.18 551.914 1088.4C584.199 1101.86 619.803 1105.21 654.037 1098.03C688.272 1090.84 719.529 1073.45 743.691 1048.14C780.914 1007.9 814.658 964.703 844.616 919.013C874.51 873.282 900.607 825.078 922.601 774.868C936.133 742.6 939.572 706.997 932.468 672.745C925.363 638.493 908.05 607.202 882.804 582.993C882.392 582.613 881.982 582.194 881.58 581.785C881.371 581.572 881.164 581.36 880.96 581.159C880.35 580.553 879.739 579.998 879.066 579.557L879.026 579.531L878.99 579.498C800.798 507.128 711.036 448.361 613.428 405.636L613.418 405.631L613.408 405.627C612.824 405.344 612.21 405.11 611.567 404.865L611.773 404.325L611.567 404.865L611.552 404.859L611.542 404.856L611.533 404.852L611.532 404.851L611.525 404.849C610.577 404.49 609.569 404.108 608.656 403.52C576.51 390.111 541.06 386.711 506.943 393.768C472.804 400.83 441.593 418.025 417.379 443.104C417.378 443.106 417.376 443.107 417.375 443.109L413.056 447.778C377.111 486.709 344.514 528.481 315.571 572.65C286.664 616.844 261.415 663.426 240.11 711.941L237.557 717.767C237.557 717.769 237.556 717.771 237.555 717.774C224.253 749.996 220.976 785.479 228.157 819.594C235.334 853.686 252.628 884.817 277.775 908.917C278.679 909.518 279.433 910.29 280.141 911.015L280.161 911.036L280.162 911.037L280.172 911.047C280.172 911.048 280.173 911.048 280.173 911.048C280.654 911.539 281.114 912.008 281.606 912.43L281.615 912.437L281.623 912.445C359.82 984.818 449.582 1043.58 547.185 1086.31Z" stroke="url(#paint29_linear_101_13)" stroke-width="1.15517"/>
<path d="M526.086 1111.67L526.13 1111.69L526.171 1111.72C526.843 1112.16 527.597 1112.49 528.396 1112.81C528.662 1112.92 528.938 1113.02 529.217 1113.13C529.753 1113.33 530.301 1113.54 530.815 1113.77C563.1 1127.22 598.704 1130.58 632.938 1123.39C667.173 1116.2 698.43 1098.81 722.592 1073.5C759.815 1033.26 793.559 990.066 823.517 944.376C853.411 898.645 879.508 850.441 901.502 800.231C915.034 767.963 918.473 732.36 911.369 698.108C904.264 663.856 886.95 632.565 861.705 608.356C861.293 607.976 860.882 607.557 860.481 607.148C860.272 606.934 860.064 606.723 859.861 606.522C859.251 605.916 858.639 605.36 857.967 604.92L857.927 604.894L857.891 604.861C779.699 532.491 689.937 473.724 592.329 430.999L592.319 430.994L592.309 430.989C591.725 430.706 591.111 430.472 590.468 430.228L590.674 429.688L590.468 430.228L590.453 430.222L590.443 430.218L590.434 430.214L590.433 430.214L590.426 430.212C589.478 429.853 588.469 429.471 587.557 428.883C555.411 415.474 519.961 412.074 485.844 419.131C451.705 426.193 420.494 443.388 396.28 468.467C396.279 468.469 396.277 468.47 396.276 468.472L391.957 473.141C356.012 512.072 323.415 553.843 294.472 598.013C265.564 642.206 240.316 688.789 219.011 737.304L216.458 743.13C216.457 743.132 216.457 743.134 216.456 743.136C203.154 775.359 199.877 810.842 207.058 844.956C214.235 879.048 231.529 910.18 256.676 934.28C257.58 934.881 258.334 935.653 259.042 936.378L259.062 936.399L259.063 936.4L259.073 936.41C259.073 936.41 259.073 936.411 259.074 936.411C259.554 936.902 260.015 937.371 260.507 937.793L260.516 937.8L260.524 937.808C338.721 1010.18 428.483 1068.95 526.086 1111.67Z" stroke="url(#paint30_linear_101_13)" stroke-width="1.15517"/>
<path d="M503.68 1135.89L503.724 1135.91L503.764 1135.94C504.437 1136.38 505.191 1136.72 505.99 1137.03C506.255 1137.14 506.531 1137.24 506.811 1137.35C507.347 1137.55 507.895 1137.76 508.408 1137.99C540.694 1151.45 576.297 1154.8 610.532 1147.61C644.767 1140.43 676.023 1123.03 700.186 1097.73C737.409 1057.49 771.152 1014.29 801.11 968.598C831.005 922.867 857.102 874.663 879.096 824.453C892.627 792.185 896.067 756.582 888.962 722.33C881.858 688.078 864.544 656.787 839.299 632.578C838.887 632.198 838.476 631.779 838.075 631.37C837.865 631.157 837.658 630.945 837.455 630.744C836.844 630.138 836.233 629.583 835.561 629.142L835.52 629.116L835.485 629.083C757.292 556.713 667.53 497.946 569.923 455.221L569.913 455.216L569.903 455.211C569.319 454.929 568.704 454.694 568.062 454.45L568.267 453.91L568.062 454.45L568.047 454.444L568.037 454.441L568.027 454.436L568.026 454.436L568.02 454.434C567.072 454.075 566.063 453.693 565.151 453.105C533.005 439.696 497.555 436.296 463.438 443.353C429.298 450.415 398.088 467.61 373.874 492.689C373.873 492.691 373.871 492.692 373.869 492.694L369.551 497.363C333.605 536.294 301.009 578.066 272.066 622.235C243.158 666.428 217.909 713.011 196.604 761.526L194.052 767.352C194.051 767.354 194.05 767.356 194.049 767.358C180.747 799.581 177.471 835.064 184.652 869.179C191.829 903.271 209.123 934.402 234.27 958.502C235.174 959.103 235.927 959.875 236.636 960.6L236.656 960.621L236.656 960.622L236.667 960.632C236.667 960.633 236.667 960.633 236.667 960.633C237.148 961.124 237.608 961.593 238.101 962.015L238.109 962.022L238.118 962.03C316.315 1034.4 406.077 1093.17 503.68 1135.89Z" stroke="url(#paint31_linear_101_13)" stroke-width="1.15517"/>
<path d="M480.078 1158.95L480.122 1158.97L480.163 1159C480.835 1159.44 481.589 1159.78 482.388 1160.1C482.654 1160.2 482.93 1160.31 483.209 1160.41C483.745 1160.62 484.293 1160.83 484.807 1161.05C517.092 1174.51 552.696 1177.86 586.93 1170.67C621.165 1163.49 652.422 1146.09 676.584 1120.79C713.807 1080.55 747.551 1037.35 777.509 991.66C807.403 945.929 833.5 897.725 855.494 847.515C869.026 815.247 872.466 779.644 865.361 745.392C858.256 711.14 840.943 679.849 815.697 655.64C815.285 655.26 814.875 654.841 814.473 654.432C814.264 654.219 814.057 654.007 813.853 653.806C813.243 653.2 812.632 652.645 811.959 652.204L811.919 652.178L811.883 652.145C733.691 579.775 643.929 521.008 546.321 478.283L546.311 478.278L546.301 478.273C545.717 477.991 545.103 477.756 544.46 477.512L544.666 476.972L544.46 477.512L544.445 477.506L544.435 477.503L544.426 477.499L544.425 477.498L544.418 477.496C543.47 477.137 542.462 476.755 541.549 476.167C509.403 462.758 473.953 459.358 439.836 466.415C405.697 473.477 374.486 490.672 350.273 515.751C350.271 515.753 350.269 515.754 350.268 515.756L345.949 520.425C310.004 559.356 277.407 601.128 248.464 645.297C219.557 689.491 194.308 736.073 173.003 784.588L170.451 790.414C170.45 790.416 170.449 790.418 170.448 790.42C157.146 822.643 153.869 858.126 161.051 892.241C168.227 926.333 185.521 957.464 210.668 981.564C211.572 982.165 212.326 982.937 213.034 983.662L213.054 983.683L213.055 983.684L213.065 983.694C213.065 983.695 213.066 983.695 213.066 983.695C213.547 984.186 214.007 984.655 214.499 985.077L214.508 985.084L214.516 985.092C292.713 1057.47 382.475 1116.23 480.078 1158.95Z" stroke="url(#paint32_linear_101_13)" stroke-width="1.15517"/>
<path d="M455.404 1180.85L455.448 1180.87L455.489 1180.9C456.161 1181.34 456.915 1181.68 457.714 1181.99C457.98 1182.1 458.256 1182.2 458.536 1182.31C459.071 1182.51 459.619 1182.72 460.133 1182.95C492.418 1196.41 528.022 1199.76 562.257 1192.57C596.491 1185.38 627.748 1167.99 651.91 1142.68C689.133 1102.45 722.877 1059.25 752.835 1013.56C782.73 967.827 808.827 919.622 830.82 869.412C844.352 837.145 847.792 801.541 840.687 767.289C833.582 733.038 816.269 701.747 791.024 677.538C790.611 677.158 790.201 676.739 789.8 676.33C789.59 676.116 789.383 675.905 789.179 675.703C788.569 675.098 787.958 674.542 787.286 674.102L787.245 674.075L787.21 674.042C709.017 601.672 619.255 542.906 521.648 500.18L521.637 500.176L521.627 500.171C521.044 499.888 520.429 499.654 519.787 499.41L519.992 498.87L519.786 499.409L519.771 499.404L519.761 499.4L519.752 499.396L519.751 499.396L519.744 499.394C518.797 499.035 517.788 498.653 516.876 498.064C484.729 484.655 449.279 481.256 415.162 488.313C381.023 495.375 349.812 512.569 325.599 537.649C325.597 537.65 325.596 537.652 325.594 537.653L321.275 542.323C285.33 581.253 252.734 623.025 223.79 667.194C194.883 711.388 169.634 757.97 148.329 806.486L145.777 812.311C145.776 812.314 145.775 812.316 145.774 812.318C132.472 844.541 129.195 880.024 136.377 914.138C143.553 948.23 160.848 979.362 185.994 1003.46C186.898 1004.06 187.652 1004.83 188.36 1005.56L188.381 1005.58L188.381 1005.58L188.391 1005.59C188.392 1005.59 188.392 1005.59 188.392 1005.59C188.873 1006.08 189.333 1006.55 189.825 1006.97L189.834 1006.98L189.842 1006.99C268.039 1079.36 357.801 1138.13 455.404 1180.85Z" stroke="url(#paint33_linear_101_13)" stroke-width="1.15517"/>
<path d="M429.742 1201.6L429.786 1201.62L429.827 1201.65C430.499 1202.09 431.253 1202.42 432.052 1202.74C432.318 1202.85 432.594 1202.95 432.873 1203.06C433.409 1203.26 433.957 1203.47 434.471 1203.7C466.756 1217.15 502.36 1220.51 536.594 1213.32C570.829 1206.13 602.086 1188.74 626.248 1163.43C663.471 1123.19 697.215 1080 727.173 1034.31C757.067 988.575 783.164 940.371 805.158 890.16C818.69 857.893 822.13 822.289 815.025 788.037C807.92 753.786 790.607 722.495 765.361 698.286C764.949 697.906 764.539 697.487 764.137 697.078C763.928 696.864 763.721 696.653 763.517 696.451C762.907 695.846 762.296 695.29 761.623 694.85L761.583 694.823L761.547 694.79C683.355 622.42 593.593 563.654 495.985 520.928L495.975 520.924L495.965 520.919C495.382 520.636 494.767 520.402 494.124 520.158L494.33 519.618L494.124 520.158L494.109 520.152L494.099 520.148L494.09 520.144L494.089 520.144L494.082 520.142C493.135 519.783 492.126 519.401 491.213 518.813C459.067 505.403 423.617 502.004 389.5 509.061C355.361 516.123 324.15 533.317 299.937 558.397C299.935 558.398 299.933 558.4 299.932 558.401L295.613 563.071C259.668 602.001 227.071 643.773 198.128 687.943C169.221 732.136 143.972 778.718 122.667 827.234L120.115 833.059C120.114 833.062 120.113 833.064 120.112 833.066C106.81 865.289 103.533 900.772 110.715 934.886C117.891 968.978 135.185 1000.11 160.332 1024.21C161.236 1024.81 161.99 1025.58 162.698 1026.31L162.719 1026.33L162.719 1026.33L162.729 1026.34C162.73 1026.34 162.73 1026.34 162.73 1026.34C163.211 1026.83 163.671 1027.3 164.163 1027.72L164.172 1027.73L164.18 1027.74C242.377 1100.11 332.139 1158.88 429.742 1201.6Z" stroke="url(#paint34_linear_101_13)" stroke-width="1.15517"/>
<path d="M403.208 1221.21L403.253 1221.22L403.293 1221.25C403.965 1221.69 404.719 1222.03 405.518 1222.35C405.784 1222.45 406.06 1222.56 406.34 1222.66C406.875 1222.87 407.424 1223.08 407.937 1223.3C440.222 1236.76 475.826 1240.11 510.061 1232.93C544.296 1225.74 575.552 1208.35 599.714 1183.04C636.938 1142.8 670.681 1099.6 700.639 1053.91C730.534 1008.18 756.631 959.976 778.624 909.766C792.156 877.499 795.596 841.895 788.491 807.643C781.386 773.392 764.073 742.101 738.828 717.892C738.415 717.512 738.005 717.093 737.604 716.684C737.394 716.47 737.187 716.259 736.984 716.057C736.373 715.452 735.762 714.896 735.09 714.456L735.049 714.429L735.014 714.396C656.821 642.026 567.059 583.26 469.452 540.534L469.441 540.53L469.431 540.525C468.848 540.242 468.233 540.008 467.591 539.764L467.796 539.224L467.591 539.763L467.575 539.758L467.566 539.754L467.556 539.75L467.555 539.75L467.549 539.748C466.601 539.389 465.592 539.007 464.68 538.418C432.534 525.009 397.084 521.61 362.967 528.667C328.827 535.729 297.616 552.923 273.403 578.003C273.401 578.004 273.4 578.006 273.398 578.007L269.08 582.677C233.134 621.607 200.538 663.379 171.594 707.548C142.687 751.742 117.438 798.324 96.1333 846.84L93.5809 852.665C93.58 852.668 93.5792 852.67 93.5782 852.672C80.2762 884.895 76.9994 920.378 84.1809 954.492C91.3577 988.584 108.652 1019.72 133.799 1043.82C134.703 1044.42 135.456 1045.19 136.164 1045.91L136.185 1045.93L136.185 1045.94L136.196 1045.95C136.196 1045.95 136.196 1045.95 136.196 1045.95C136.677 1046.44 137.137 1046.91 137.63 1047.33L137.638 1047.34L137.646 1047.34C215.844 1119.72 305.605 1178.48 403.208 1221.21Z" stroke="url(#paint35_linear_101_13)" stroke-width="1.15517"/>
<path d="M375.882 1239.69L375.927 1239.71L375.967 1239.74C376.639 1240.18 377.393 1240.51 378.192 1240.83C378.458 1240.94 378.734 1241.04 379.014 1241.15C379.549 1241.35 380.097 1241.56 380.611 1241.79C412.896 1255.24 448.5 1258.6 482.735 1251.41C516.97 1244.22 548.226 1226.83 572.388 1201.52C609.611 1161.28 643.355 1118.09 673.313 1072.4C703.208 1026.67 729.305 978.461 751.298 928.251C764.83 895.984 768.27 860.38 761.165 826.128C754.06 791.876 736.747 760.586 711.502 736.376C711.089 735.996 710.679 735.578 710.278 735.169C710.068 734.955 709.861 734.744 709.657 734.542C709.047 733.937 708.436 733.381 707.764 732.941L707.723 732.914L707.688 732.881C629.495 660.511 539.733 601.744 442.126 559.019L442.115 559.015L442.105 559.01C441.522 558.727 440.907 558.493 440.265 558.248L440.47 557.709L440.264 558.248L440.249 558.243L440.239 558.239L440.23 558.235L440.229 558.234L440.222 558.232C439.275 557.873 438.266 557.492 437.354 556.903C405.207 543.494 369.757 540.094 335.641 547.152C301.501 554.213 270.29 571.408 246.077 596.487C246.075 596.489 246.074 596.491 246.072 596.492L241.753 601.162C205.808 640.092 173.212 681.864 144.268 726.033C115.361 770.227 90.1121 816.809 68.8071 865.325L66.2547 871.15C66.2538 871.152 66.253 871.155 66.2521 871.157C52.9501 903.38 49.6732 938.863 56.8548 972.977C64.0315 1007.07 81.3255 1038.2 106.472 1062.3C107.376 1062.9 108.13 1063.67 108.838 1064.4L108.859 1064.42L108.859 1064.42L108.869 1064.43C108.87 1064.43 108.87 1064.43 108.87 1064.43C109.351 1064.92 109.811 1065.39 110.303 1065.81L110.312 1065.82L110.32 1065.83C188.517 1138.2 278.279 1196.97 375.882 1239.69Z" stroke="url(#paint36_linear_101_13)" stroke-width="1.15517"/>
<path d="M347.844 1257.08L347.888 1257.1L347.929 1257.13C348.601 1257.57 349.355 1257.91 350.154 1258.22C350.42 1258.33 350.696 1258.43 350.975 1258.54C351.511 1258.74 352.059 1258.95 352.573 1259.18C384.858 1272.64 420.462 1275.99 454.696 1268.8C488.931 1261.61 520.188 1244.22 544.35 1218.92C581.573 1178.68 615.317 1135.48 645.275 1089.79C675.169 1044.06 701.267 995.853 723.26 945.643C736.792 913.375 740.232 877.772 733.127 843.52C726.022 809.268 708.709 777.977 683.464 753.768C683.051 753.388 682.641 752.969 682.24 752.56C682.03 752.347 681.823 752.135 681.619 751.934C681.009 751.328 680.398 750.772 679.725 750.332L679.685 750.306L679.65 750.273C601.457 677.903 511.695 619.136 414.087 576.411L414.077 576.406L414.067 576.401C413.484 576.119 412.869 575.884 412.226 575.64L412.432 575.1L412.226 575.64L412.211 575.634L412.201 575.63L412.192 575.626L412.191 575.626L412.184 575.624C411.237 575.265 410.228 574.883 409.316 574.295C377.169 560.886 341.719 557.486 307.602 564.543C273.463 571.605 242.252 588.8 218.039 613.879C218.037 613.881 218.035 613.882 218.034 613.884L213.715 618.553C177.77 657.484 145.174 699.256 116.23 743.425C87.3228 787.618 62.074 834.201 40.769 882.716L38.2167 888.542C38.2158 888.544 38.2149 888.546 38.214 888.548C24.912 920.771 21.6351 956.254 28.8167 990.369C35.9934 1024.46 53.2875 1055.59 78.4343 1079.69C79.3383 1080.29 80.092 1081.07 80.8001 1081.79L80.8206 1081.81L80.8209 1081.81L80.8314 1081.82C80.8316 1081.82 80.8318 1081.82 80.832 1081.82C81.3128 1082.31 81.773 1082.78 82.2654 1083.2L82.2739 1083.21L82.2821 1083.22C160.479 1155.59 250.241 1214.36 347.844 1257.08Z" stroke="url(#paint37_linear_101_13)" stroke-width="1.15517"/>
<path d="M319.162 1273.4L319.206 1273.42L319.246 1273.44C319.919 1273.88 320.673 1274.22 321.471 1274.54C321.737 1274.65 322.013 1274.75 322.293 1274.86C322.829 1275.06 323.377 1275.27 323.89 1275.5C356.175 1288.95 391.779 1292.31 426.014 1285.12C460.249 1277.93 491.505 1260.54 515.667 1235.23C552.891 1194.99 586.634 1151.79 616.592 1106.1C646.487 1060.37 672.584 1012.17 694.578 961.959C708.109 929.692 711.549 894.088 704.444 859.836C697.34 825.584 680.026 794.294 654.781 770.084C654.369 769.704 653.958 769.286 653.557 768.877C653.347 768.663 653.14 768.452 652.937 768.25C652.326 767.645 651.715 767.089 651.043 766.649L651.002 766.622L650.967 766.589C572.774 694.219 483.012 635.452 385.405 592.727L385.395 592.723L385.385 592.718C384.801 592.435 384.186 592.201 383.544 591.956L383.749 591.417L383.544 591.956L383.528 591.951L383.519 591.947L383.509 591.943L383.508 591.942L383.502 591.94C382.554 591.581 381.545 591.2 380.633 590.611C348.487 577.202 313.037 573.802 278.92 580.86C244.78 587.921 213.569 605.116 189.356 630.195C189.354 630.197 189.353 630.199 189.351 630.2L185.033 634.87C149.087 673.8 116.491 715.572 87.5475 759.741C58.6402 803.935 33.3914 850.517 12.0864 899.033L9.53405 904.858C9.53314 904.86 9.53228 904.863 9.53137 904.865C-3.77063 937.088 -7.04747 972.571 0.134053 1006.68C7.31081 1040.78 24.6048 1071.91 49.7517 1096.01C50.6557 1096.61 51.4094 1097.38 52.1175 1098.11L52.138 1098.13L52.1383 1098.13L52.1487 1098.14C52.1489 1098.14 52.1492 1098.14 52.1494 1098.14C52.6301 1098.63 53.0904 1099.1 53.5828 1099.52L53.5913 1099.53L53.5995 1099.54C131.797 1171.91 221.558 1230.68 319.162 1273.4Z" stroke="url(#paint38_linear_101_13)" stroke-width="1.15517"/>
<path d="M289.917 1288.66L289.961 1288.67L290.002 1288.7C290.674 1289.14 291.428 1289.48 292.227 1289.8C292.493 1289.9 292.769 1290.01 293.048 1290.11C293.584 1290.32 294.132 1290.53 294.646 1290.75C326.931 1304.21 362.535 1307.56 396.769 1300.38C431.004 1293.19 462.261 1275.8 486.423 1250.49C523.646 1210.25 557.39 1167.05 587.348 1121.36C617.242 1075.63 643.339 1027.43 665.333 977.216C678.865 944.949 682.304 909.345 675.2 875.093C668.095 840.841 650.782 809.55 625.536 785.341C625.124 784.961 624.713 784.543 624.312 784.134C624.103 783.92 623.896 783.709 623.692 783.507C623.082 782.902 622.471 782.346 621.798 781.906L621.758 781.879L621.722 781.846C543.53 709.476 453.768 650.709 356.16 607.984L356.15 607.98L356.14 607.975C355.556 607.692 354.942 607.458 354.299 607.213L354.505 606.673L354.299 607.213L354.284 607.207L354.274 607.204L354.265 607.2L354.264 607.199L354.257 607.197C353.309 606.838 352.301 606.456 351.388 605.868C319.242 592.459 283.792 589.059 249.675 596.116C215.536 603.178 184.325 620.373 160.111 645.452C160.11 645.454 160.108 645.456 160.107 645.457L155.788 650.126C119.843 689.057 87.2463 730.829 58.3029 774.998C29.3955 819.192 4.14677 865.774 -17.1582 914.29L-19.7106 920.115C-19.7115 920.117 -19.7123 920.12 -19.7133 920.122C-33.0153 952.345 -36.2921 987.827 -29.1106 1021.94C-21.9338 1056.03 -4.6398 1087.17 20.5071 1111.27C21.4111 1111.87 22.1647 1112.64 22.8729 1113.36L22.8934 1113.38L22.8936 1113.38L22.9041 1113.4C22.9043 1113.4 22.9045 1113.4 22.9047 1113.4C23.3855 1113.89 23.8457 1114.36 24.3381 1114.78L24.3466 1114.79L24.3548 1114.79C102.552 1187.17 192.314 1245.93 289.917 1288.66Z" stroke="url(#paint39_linear_101_13)" stroke-width="1.15517"/>
<path d="M260.152 1302.89L260.196 1302.91L260.237 1302.93C260.909 1303.38 261.663 1303.71 262.462 1304.03C262.728 1304.14 263.004 1304.24 263.283 1304.35C263.819 1304.55 264.367 1304.76 264.88 1304.99C297.166 1318.44 332.77 1321.8 367.004 1314.61C401.239 1307.42 432.495 1290.03 456.658 1264.72C493.881 1224.48 527.625 1181.28 557.583 1135.6C587.477 1089.86 613.574 1041.66 635.568 991.45C649.1 959.183 652.539 923.579 645.434 889.327C638.33 855.075 621.016 823.784 595.771 799.575C595.359 799.195 594.948 798.777 594.547 798.367C594.337 798.154 594.13 797.942 593.927 797.741C593.317 797.136 592.705 796.58 592.033 796.139L591.993 796.113L591.957 796.08C513.764 723.71 424.003 664.943 326.395 622.218L326.385 622.213L326.375 622.209C325.791 621.926 325.177 621.692 324.534 621.447L324.739 620.907L324.534 621.447L324.519 621.441L324.509 621.438L324.499 621.434L324.498 621.433L324.492 621.431C323.544 621.072 322.535 620.69 321.623 620.102C289.477 606.693 254.027 603.293 219.91 610.35C185.771 617.412 154.56 634.607 130.346 659.686C130.345 659.688 130.343 659.689 130.342 659.691L126.023 664.36C90.0775 703.291 57.4811 745.063 28.5378 789.232C-0.369609 833.426 -25.6184 880.008 -46.9234 928.523L-49.4757 934.349C-49.4766 934.351 -49.4775 934.353 -49.4784 934.356C-62.7804 966.578 -66.0572 1002.06 -58.8757 1036.18C-51.699 1070.27 -34.4049 1101.4 -9.25808 1125.5C-8.35406 1126.1 -7.6004 1126.87 -6.89228 1127.6L-6.87178 1127.62L-6.87149 1127.62L-6.86102 1127.63C-6.86082 1127.63 -6.8606 1127.63 -6.86041 1127.63C-6.37963 1128.12 -5.9194 1128.59 -5.42699 1129.01L-5.41851 1129.02L-5.41031 1129.03C72.7869 1201.4 162.549 1260.17 260.152 1302.89Z" stroke="url(#paint40_linear_101_13)" stroke-width="1.15517"/>
<path d="M229.921 1316.1L229.965 1316.12L230.006 1316.15C230.678 1316.59 231.432 1316.93 232.231 1317.24C232.497 1317.35 232.773 1317.45 233.052 1317.56C233.588 1317.77 234.136 1317.97 234.649 1318.2C266.935 1331.66 302.539 1335.01 336.773 1327.82C371.008 1320.64 402.264 1303.24 426.427 1277.94C463.65 1237.7 497.394 1194.5 527.352 1148.81C557.246 1103.08 583.343 1054.87 605.337 1004.66C618.869 972.396 622.308 936.792 615.204 902.54C608.099 868.288 590.785 836.998 565.54 812.789C565.128 812.408 564.717 811.99 564.316 811.581C564.107 811.367 563.899 811.156 563.696 810.954C563.086 810.349 562.474 809.793 561.802 809.353L561.762 809.326L561.726 809.293C483.534 736.923 393.772 678.157 296.164 635.431L296.154 635.427L296.144 635.422C295.56 635.139 294.946 634.905 294.303 634.661L294.508 634.121L294.303 634.66L294.288 634.655L294.278 634.651L294.268 634.647L294.268 634.647L294.261 634.645C293.313 634.286 292.304 633.904 291.392 633.315C259.246 619.906 223.796 616.506 189.679 623.564C155.54 630.626 124.329 647.82 100.115 672.9C100.114 672.901 100.112 672.903 100.111 672.904L95.792 677.574C59.8465 716.504 27.2502 758.276 -1.69319 802.445C-30.6006 846.639 -55.8493 893.221 -77.1543 941.737L-79.7067 947.562C-79.7076 947.565 -79.7084 947.567 -79.7093 947.569C-93.0114 979.792 -96.2882 1015.27 -89.1067 1049.39C-81.9299 1083.48 -64.6359 1114.61 -39.489 1138.71C-38.585 1139.31 -37.8314 1140.09 -37.1232 1140.81L-37.1027 1140.83L-37.1024 1140.83L-37.092 1140.84C-37.0918 1140.84 -37.0916 1140.84 -37.0914 1140.84C-36.6106 1141.33 -36.1504 1141.8 -35.6579 1142.23L-35.6495 1142.23L-35.6413 1142.24C42.5559 1214.61 132.318 1273.38 229.921 1316.1Z" stroke="url(#paint41_linear_101_13)" stroke-width="1.15517"/>
<path d="M199.27 1328.3L199.314 1328.32L199.355 1328.35C200.027 1328.79 200.781 1329.12 201.58 1329.44C201.846 1329.55 202.122 1329.65 202.401 1329.76C202.937 1329.96 203.485 1330.17 203.999 1330.4C236.284 1343.85 271.888 1347.21 306.122 1340.02C340.357 1332.83 371.614 1315.44 395.776 1290.13C432.999 1249.89 466.743 1206.7 496.701 1161.01C526.595 1115.27 552.692 1067.07 574.686 1016.86C588.218 984.593 591.657 948.99 584.553 914.737C577.448 880.486 560.135 849.195 534.889 824.986C534.477 824.606 534.067 824.187 533.665 823.778C533.456 823.564 533.249 823.353 533.045 823.151C532.435 822.546 531.824 821.99 531.151 821.55L531.111 821.524L531.075 821.491C452.883 749.12 363.121 690.354 265.513 647.629L265.503 647.624L265.493 647.619C264.909 647.336 264.295 647.102 263.652 646.858L263.858 646.318L263.652 646.858L263.637 646.852L263.627 646.848L263.618 646.844L263.617 646.844L263.61 646.842C262.662 646.483 261.654 646.101 260.741 645.513C228.595 632.103 193.145 628.704 159.028 635.761C124.889 642.823 93.6779 660.018 69.4644 685.097C69.4628 685.098 69.4613 685.1 69.4597 685.102L65.1411 689.771C29.1956 728.701 -3.40069 770.473 -32.3441 814.643C-61.2514 858.836 -86.5002 905.419 -107.805 953.934L-110.358 959.76C-110.358 959.762 -110.359 959.764 -110.36 959.766C-123.662 991.989 -126.939 1027.47 -119.758 1061.59C-112.581 1095.68 -95.2868 1126.81 -70.1399 1150.91C-69.2359 1151.51 -68.4822 1152.28 -67.7741 1153.01L-67.7536 1153.03L-67.7533 1153.03L-67.7429 1153.04C-67.7427 1153.04 -67.7424 1153.04 -67.7422 1153.04C-67.2615 1153.53 -66.8012 1154 -66.3088 1154.42L-66.3003 1154.43L-66.2921 1154.44C11.905 1226.81 101.667 1285.58 199.27 1328.3Z" stroke="url(#paint42_linear_101_13)" stroke-width="1.15517"/>
<path d="M168.25 1339.5L168.295 1339.52L168.335 1339.55C169.007 1339.99 169.761 1340.33 170.56 1340.64C170.826 1340.75 171.102 1340.85 171.382 1340.96C171.917 1341.17 172.466 1341.37 172.979 1341.6C205.264 1355.06 240.868 1358.41 275.103 1351.22C309.338 1344.04 340.594 1326.64 364.756 1301.34C401.98 1261.1 435.723 1217.9 465.681 1172.21C495.576 1126.48 521.673 1078.27 543.666 1028.06C557.198 995.796 560.638 960.193 553.533 925.941C546.428 891.689 529.115 860.398 503.87 836.189C503.457 835.809 503.047 835.39 502.646 834.981C502.436 834.767 502.229 834.556 502.026 834.355C501.415 833.749 500.804 833.193 500.132 832.753L500.091 832.727L500.056 832.694C421.863 760.324 332.101 701.557 234.494 658.832L234.483 658.827L234.473 658.822C233.89 658.54 233.275 658.305 232.633 658.061L232.838 657.521L232.633 658.061L232.617 658.055L232.608 658.051L232.598 658.047L232.597 658.047L232.591 658.045C231.643 657.686 230.634 657.304 229.722 656.716C197.576 643.307 162.126 639.907 128.009 646.964C93.8693 654.026 62.6583 671.221 38.4449 696.3C38.4433 696.302 38.4417 696.303 38.4401 696.305L34.1216 700.974C-1.82391 739.905 -34.4202 781.676 -63.3636 825.846C-92.271 870.039 -117.52 916.622 -138.825 965.137L-141.377 970.963C-141.378 970.965 -141.379 970.967 -141.38 970.969C-154.682 1003.19 -157.959 1038.68 -150.777 1072.79C-143.6 1106.88 -126.306 1138.01 -101.159 1162.11C-100.255 1162.71 -99.5018 1163.49 -98.7936 1164.21L-98.7731 1164.23L-98.7729 1164.23L-98.7624 1164.24C-98.7622 1164.24 -98.762 1164.24 -98.7618 1164.24C-98.281 1164.73 -97.8208 1165.2 -97.3284 1165.63L-97.3199 1165.63L-97.3117 1165.64C-19.1145 1238.01 70.6474 1296.78 168.25 1339.5Z" stroke="url(#paint43_linear_101_13)" stroke-width="1.15517"/>
<path d="M136.883 1349.69L136.927 1349.71L136.967 1349.74C137.64 1350.18 138.394 1350.52 139.193 1350.83C139.459 1350.94 139.735 1351.04 140.014 1351.15C140.55 1351.35 141.098 1351.56 141.611 1351.79C173.897 1365.25 209.5 1368.6 243.735 1361.41C277.97 1354.22 309.226 1336.83 333.389 1311.52C370.612 1271.29 404.355 1228.09 434.314 1182.4C464.208 1136.67 490.305 1088.46 512.299 1038.25C525.831 1005.98 529.27 970.381 522.165 936.129C515.061 901.877 497.747 870.586 472.502 846.377C472.09 845.997 471.679 845.579 471.278 845.17C471.068 844.956 470.861 844.745 470.658 844.543C470.047 843.938 469.436 843.382 468.764 842.942L468.724 842.915L468.688 842.882C390.495 770.512 300.734 711.745 203.126 669.02L203.116 669.016L203.106 669.011C202.522 668.728 201.908 668.494 201.265 668.249L201.47 667.71L201.265 668.249L201.25 668.244L201.24 668.24L201.23 668.236L201.229 668.235L201.223 668.233C200.275 667.874 199.266 667.492 198.354 666.904C166.208 653.495 130.758 650.095 96.641 657.153C62.5016 664.214 31.2906 681.409 7.07721 706.488C7.07563 706.49 7.07405 706.492 7.07247 706.493L2.75389 711.163C-33.1916 750.093 -65.7879 791.865 -94.7313 836.034C-123.639 880.228 -148.887 926.81 -170.192 975.326L-172.745 981.151C-172.746 981.153 -172.747 981.156 -172.747 981.158C-186.049 1013.38 -189.326 1048.86 -182.145 1082.98C-174.968 1117.07 -157.674 1148.2 -132.527 1172.3C-131.623 1172.9 -130.869 1173.67 -130.161 1174.4L-130.141 1174.42L-130.141 1174.42L-130.13 1174.43C-130.13 1174.43 -130.13 1174.43 -130.129 1174.43C-129.649 1174.92 -129.188 1175.39 -128.696 1175.81L-128.688 1175.82L-128.679 1175.83C-50.4822 1248.2 39.2797 1306.97 136.883 1349.69Z" stroke="url(#paint44_linear_101_13)" stroke-width="1.15517"/>
<path d="M105.208 1358.85L105.253 1358.87L105.293 1358.9C105.965 1359.34 106.719 1359.67 107.518 1359.99C107.784 1360.1 108.06 1360.2 108.34 1360.31C108.875 1360.51 109.424 1360.72 109.937 1360.95C142.222 1374.4 177.826 1377.76 212.061 1370.57C246.296 1363.38 277.552 1345.99 301.714 1320.68C338.938 1280.44 372.681 1237.25 402.639 1191.56C432.534 1145.83 458.631 1097.62 480.624 1047.41C494.156 1015.14 497.596 979.541 490.491 945.289C483.386 911.037 466.073 879.746 440.828 855.537C440.415 855.157 440.005 854.738 439.604 854.329C439.394 854.116 439.187 853.904 438.984 853.703C438.373 853.097 437.762 852.541 437.09 852.101L437.049 852.075L437.014 852.042C358.821 779.672 269.059 720.905 171.452 678.18L171.441 678.175L171.431 678.17C170.848 677.888 170.233 677.653 169.591 677.409L169.796 676.869L169.591 677.409L169.575 677.403L169.566 677.399L169.556 677.395L169.555 677.395L169.549 677.393C168.601 677.034 167.592 676.652 166.68 676.064C134.534 662.655 99.0836 659.255 64.9667 666.312C30.8273 673.374 -0.383671 690.569 -24.5971 715.648C-24.5987 715.65 -24.6003 715.651 -24.6018 715.653L-28.9204 720.322C-64.8659 759.253 -97.4622 801.025 -126.406 845.194C-155.313 889.387 -180.562 935.97 -201.867 984.485L-204.419 990.311C-204.42 990.313 -204.421 990.315 -204.422 990.317C-217.724 1022.54 -221.001 1058.02 -213.819 1092.14C-206.642 1126.23 -189.348 1157.36 -164.201 1181.46C-163.297 1182.06 -162.544 1182.83 -161.836 1183.56L-161.815 1183.58L-161.815 1183.58L-161.804 1183.59C-161.804 1183.59 -161.804 1183.59 -161.804 1183.59C-161.323 1184.08 -160.863 1184.55 -160.37 1184.97L-160.362 1184.98L-160.354 1184.99C-82.1565 1257.36 7.60537 1316.13 105.208 1358.85Z" stroke="url(#paint45_linear_101_13)" stroke-width="1.15517"/>
<path d="M73.2738 1366.95L73.3181 1366.97L73.3586 1367C74.0309 1367.44 74.7849 1367.78 75.5837 1368.09C75.8497 1368.2 76.1257 1368.3 76.4051 1368.41C76.9408 1368.61 77.489 1368.82 78.0025 1369.05C110.288 1382.51 145.892 1385.86 180.126 1378.67C214.361 1371.49 245.618 1354.09 269.78 1328.79C307.003 1288.55 340.747 1245.35 370.705 1199.66C400.599 1153.93 426.696 1105.72 448.69 1055.51C462.222 1023.25 465.661 987.642 458.557 953.39C451.452 919.138 434.138 887.847 408.893 863.638C408.481 863.258 408.07 862.84 407.669 862.43C407.46 862.217 407.252 862.005 407.049 861.804C406.439 861.198 405.827 860.643 405.155 860.202L405.115 860.176L405.079 860.143C326.887 787.773 237.125 729.006 139.517 686.281L139.507 686.276L139.497 686.272C138.913 685.989 138.299 685.755 137.656 685.51L137.862 684.97L137.656 685.51L137.641 685.504L137.631 685.501L137.622 685.497L137.621 685.496L137.614 685.494C136.666 685.135 135.657 684.753 134.745 684.165C102.599 670.756 67.1491 667.356 33.0321 674.413C-1.1073 681.475 -32.3182 698.67 -56.5317 723.749C-56.5333 723.751 -56.5348 723.752 -56.5364 723.754L-60.855 728.423C-96.8005 767.354 -129.397 809.126 -158.34 853.295C-187.248 897.489 -212.496 944.071 -233.801 992.586L-236.354 998.412C-236.355 998.414 -236.355 998.416 -236.356 998.419C-249.658 1030.64 -252.935 1066.12 -245.754 1100.24C-238.577 1134.33 -221.283 1165.46 -196.136 1189.56C-195.232 1190.16 -194.478 1190.94 -193.77 1191.66L-193.75 1191.68L-193.749 1191.68L-193.739 1191.69C-193.739 1191.69 -193.739 1191.69 -193.738 1191.69C-193.258 1192.18 -192.797 1192.65 -192.305 1193.08L-192.296 1193.08L-192.288 1193.09C-114.091 1265.46 -24.3292 1324.23 73.2738 1366.95Z" stroke="url(#paint46_linear_101_13)" stroke-width="1.15517"/>
</g>
<defs>
<linearGradient id="paint0_linear_101_13" x1="870.11" y1="0.00163825" x2="340.098" y2="-346.994" gradientUnits="userSpaceOnUse">
<stop offset="0.158794" stop-color="#4D4D4F" stop-opacity="0"/>
<stop offset="1" stop-color="#4D4D4F"/>
</linearGradient>
<linearGradient id="paint1_linear_101_13" x1="872.939" y1="32.8771" x2="342.927" y2="-314.119" gradientUnits="userSpaceOnUse">
<stop offset="0.158794" stop-color="#4D4D4F" stop-opacity="0"/>
<stop offset="1" stop-color="#4D4D4F"/>
</linearGradient>
<linearGradient id="paint2_linear_101_13" x1="876.484" y1="65.6755" x2="346.473" y2="-281.32" gradientUnits="userSpaceOnUse">
<stop offset="0.158794" stop-color="#4D4D4F" stop-opacity="0"/>
<stop offset="1" stop-color="#4D4D4F"/>
</linearGradient>
<linearGradient id="paint3_linear_101_13" x1="880.731" y1="98.3932" x2="350.719" y2="-248.603" gradientUnits="userSpaceOnUse">
<stop offset="0.158794" stop-color="#4D4D4F" stop-opacity="0"/>
<stop offset="1" stop-color="#4D4D4F"/>
</linearGradient>
<linearGradient id="paint4_linear_101_13" x1="885.656" y1="131.011" x2="355.645" y2="-215.984" gradientUnits="userSpaceOnUse">
<stop offset="0.158794" stop-color="#4D4D4F" stop-opacity="0"/>
<stop offset="1" stop-color="#4D4D4F"/>
</linearGradient>
<linearGradient id="paint5_linear_101_13" x1="891.238" y1="163.529" x2="361.226" y2="-183.466" gradientUnits="userSpaceOnUse">
<stop offset="0.158794" stop-color="#4D4D4F" stop-opacity="0"/>
<stop offset="1" stop-color="#4D4D4F"/>
</linearGradient>
<linearGradient id="paint6_linear_101_13" x1="897.463" y1="195.926" x2="367.452" y2="-151.07" gradientUnits="userSpaceOnUse">
<stop offset="0.158794" stop-color="#4D4D4F" stop-opacity="0"/>
<stop offset="1" stop-color="#4D4D4F"/>
</linearGradient>
<linearGradient id="paint7_linear_101_13" x1="904.32" y1="228.197" x2="374.309" y2="-118.799" gradientUnits="userSpaceOnUse">
<stop offset="0.158794" stop-color="#4D4D4F" stop-opacity="0"/>
<stop offset="1" stop-color="#4D4D4F"/>
</linearGradient>
<linearGradient id="paint8_linear_101_13" x1="911.786" y1="260.338" x2="381.775" y2="-86.6583" gradientUnits="userSpaceOnUse">
<stop offset="0.158794" stop-color="#4D4D4F" stop-opacity="0"/>
<stop offset="1" stop-color="#4D4D4F"/>
</linearGradient>
<linearGradient id="paint9_linear_101_13" x1="919.843" y1="292.329" x2="389.831" y2="-54.6666" gradientUnits="userSpaceOnUse">
<stop offset="0.158794" stop-color="#4D4D4F" stop-opacity="0"/>
<stop offset="1" stop-color="#4D4D4F"/>
</linearGradient>
<linearGradient id="paint10_linear_101_13" x1="928.511" y1="324.273" x2="398.499" y2="-22.7228" gradientUnits="userSpaceOnUse">
<stop offset="0.158794" stop-color="#4D4D4F" stop-opacity="0"/>
<stop offset="1" stop-color="#4D4D4F"/>
</linearGradient>
<linearGradient id="paint11_linear_101_13" x1="937.315" y1="355.582" x2="407.303" y2="8.58584" gradientUnits="userSpaceOnUse">
<stop offset="0.158794" stop-color="#4D4D4F" stop-opacity="0"/>
<stop offset="1" stop-color="#4D4D4F"/>
</linearGradient>
<linearGradient id="paint12_linear_101_13" x1="945.319" y1="387.572" x2="415.307" y2="40.5766" gradientUnits="userSpaceOnUse">
<stop offset="0.158794" stop-color="#4D4D4F" stop-opacity="0"/>
<stop offset="1" stop-color="#4D4D4F"/>
</linearGradient>
<linearGradient id="paint13_linear_101_13" x1="952.173" y1="419.83" x2="422.162" y2="72.8344" gradientUnits="userSpaceOnUse">
<stop offset="0.158794" stop-color="#4D4D4F" stop-opacity="0"/>
<stop offset="1" stop-color="#4D4D4F"/>
</linearGradient>
<linearGradient id="paint14_linear_101_13" x1="957.787" y1="452.332" x2="427.776" y2="105.336" gradientUnits="userSpaceOnUse">
<stop offset="0.158794" stop-color="#4D4D4F" stop-opacity="0"/>
<stop offset="1" stop-color="#4D4D4F"/>
</linearGradient>
<linearGradient id="paint15_linear_101_13" x1="962.079" y1="485.024" x2="432.068" y2="138.028" gradientUnits="userSpaceOnUse">
<stop offset="0.158794" stop-color="#4D4D4F" stop-opacity="0"/>
<stop offset="1" stop-color="#4D4D4F"/>
</linearGradient>
<linearGradient id="paint16_linear_101_13" x1="964.951" y1="517.88" x2="434.94" y2="170.884" gradientUnits="userSpaceOnUse">
<stop offset="0.158794" stop-color="#4D4D4F" stop-opacity="0"/>
<stop offset="1" stop-color="#4D4D4F"/>
</linearGradient>
<linearGradient id="paint17_linear_101_13" x1="966.312" y1="550.831" x2="436.301" y2="203.835" gradientUnits="userSpaceOnUse">
<stop offset="0.158794" stop-color="#4D4D4F" stop-opacity="0"/>
<stop offset="1" stop-color="#4D4D4F"/>
</linearGradient>
<linearGradient id="paint18_linear_101_13" x1="966.075" y1="583.811" x2="436.063" y2="236.815" gradientUnits="userSpaceOnUse">
<stop offset="0.158794" stop-color="#4D4D4F" stop-opacity="0"/>
<stop offset="1" stop-color="#4D4D4F"/>
</linearGradient>
<linearGradient id="paint19_linear_101_13" x1="964.149" y1="616.733" x2="434.137" y2="269.737" gradientUnits="userSpaceOnUse">
<stop offset="0.158794" stop-color="#4D4D4F" stop-opacity="0"/>
<stop offset="1" stop-color="#4D4D4F"/>
</linearGradient>
<linearGradient id="paint20_linear_101_13" x1="960.466" y1="649.514" x2="430.454" y2="302.518" gradientUnits="userSpaceOnUse">
<stop offset="0.158794" stop-color="#4D4D4F" stop-opacity="0"/>
<stop offset="1" stop-color="#4D4D4F"/>
</linearGradient>
<linearGradient id="paint21_linear_101_13" x1="954.96" y1="682.032" x2="424.949" y2="335.036" gradientUnits="userSpaceOnUse">
<stop offset="0.158794" stop-color="#4D4D4F" stop-opacity="0"/>
<stop offset="1" stop-color="#4D4D4F"/>
</linearGradient>
<linearGradient id="paint22_linear_101_13" x1="947.592" y1="714.189" x2="417.58" y2="367.193" gradientUnits="userSpaceOnUse">
<stop offset="0.158794" stop-color="#4D4D4F" stop-opacity="0"/>
<stop offset="1" stop-color="#4D4D4F"/>
</linearGradient>
<linearGradient id="paint23_linear_101_13" x1="938.341" y1="745.852" x2="408.329" y2="398.856" gradientUnits="userSpaceOnUse">
<stop offset="0.158794" stop-color="#4D4D4F" stop-opacity="0"/>
<stop offset="1" stop-color="#4D4D4F"/>
</linearGradient>
<linearGradient id="paint24_linear_101_13" x1="927.207" y1="776.909" x2="397.196" y2="429.913" gradientUnits="userSpaceOnUse">
<stop offset="0.158794" stop-color="#4D4D4F" stop-opacity="0"/>
<stop offset="1" stop-color="#4D4D4F"/>
</linearGradient>
<linearGradient id="paint25_linear_101_13" x1="914.226" y1="807.239" x2="384.215" y2="460.244" gradientUnits="userSpaceOnUse">
<stop offset="0.158794" stop-color="#4D4D4F" stop-opacity="0"/>
<stop offset="1" stop-color="#4D4D4F"/>
</linearGradient>
<linearGradient id="paint26_linear_101_13" x1="899.436" y1="836.732" x2="369.425" y2="489.736" gradientUnits="userSpaceOnUse">
<stop offset="0.158794" stop-color="#4D4D4F" stop-opacity="0"/>
<stop offset="1" stop-color="#4D4D4F"/>
</linearGradient>
<linearGradient id="paint27_linear_101_13" x1="882.926" y1="865.295" x2="352.915" y2="518.299" gradientUnits="userSpaceOnUse">
<stop offset="0.158794" stop-color="#4D4D4F" stop-opacity="0"/>
<stop offset="1" stop-color="#4D4D4F"/>
</linearGradient>
<linearGradient id="paint28_linear_101_13" x1="864.779" y1="892.847" x2="334.768" y2="545.851" gradientUnits="userSpaceOnUse">
<stop offset="0.158794" stop-color="#4D4D4F" stop-opacity="0"/>
<stop offset="1" stop-color="#4D4D4F"/>
</linearGradient>
<linearGradient id="paint29_linear_101_13" x1="845.099" y1="919.33" x2="315.088" y2="572.334" gradientUnits="userSpaceOnUse">
<stop offset="0.158794" stop-color="#4D4D4F" stop-opacity="0"/>
<stop offset="1" stop-color="#4D4D4F"/>
</linearGradient>
<linearGradient id="paint30_linear_101_13" x1="824" y1="944.693" x2="293.988" y2="597.697" gradientUnits="userSpaceOnUse">
<stop offset="0.158794" stop-color="#4D4D4F" stop-opacity="0"/>
<stop offset="1" stop-color="#4D4D4F"/>
</linearGradient>
<linearGradient id="paint31_linear_101_13" x1="801.594" y1="968.915" x2="271.582" y2="621.919" gradientUnits="userSpaceOnUse">
<stop offset="0.158794" stop-color="#4D4D4F" stop-opacity="0"/>
<stop offset="1" stop-color="#4D4D4F"/>
</linearGradient>
<linearGradient id="paint32_linear_101_13" x1="777.992" y1="991.977" x2="247.981" y2="644.981" gradientUnits="userSpaceOnUse">
<stop offset="0.158794" stop-color="#4D4D4F" stop-opacity="0"/>
<stop offset="1" stop-color="#4D4D4F"/>
</linearGradient>
<linearGradient id="paint33_linear_101_13" x1="753.318" y1="1013.87" x2="223.307" y2="666.878" gradientUnits="userSpaceOnUse">
<stop offset="0.158794" stop-color="#4D4D4F" stop-opacity="0"/>
<stop offset="1" stop-color="#4D4D4F"/>
</linearGradient>
<linearGradient id="paint34_linear_101_13" x1="727.656" y1="1034.62" x2="197.645" y2="687.626" gradientUnits="userSpaceOnUse">
<stop offset="0.158794" stop-color="#4D4D4F" stop-opacity="0"/>
<stop offset="1" stop-color="#4D4D4F"/>
</linearGradient>
<linearGradient id="paint35_linear_101_13" x1="701.122" y1="1054.23" x2="171.111" y2="707.232" gradientUnits="userSpaceOnUse">
<stop offset="0.158794" stop-color="#4D4D4F" stop-opacity="0"/>
<stop offset="1" stop-color="#4D4D4F"/>
</linearGradient>
<linearGradient id="paint36_linear_101_13" x1="673.796" y1="1072.71" x2="143.785" y2="725.717" gradientUnits="userSpaceOnUse">
<stop offset="0.158794" stop-color="#4D4D4F" stop-opacity="0"/>
<stop offset="1" stop-color="#4D4D4F"/>
</linearGradient>
<linearGradient id="paint37_linear_101_13" x1="645.758" y1="1090.1" x2="115.747" y2="743.109" gradientUnits="userSpaceOnUse">
<stop offset="0.158794" stop-color="#4D4D4F" stop-opacity="0"/>
<stop offset="1" stop-color="#4D4D4F"/>
</linearGradient>
<linearGradient id="paint38_linear_101_13" x1="617.076" y1="1106.42" x2="87.0642" y2="759.425" gradientUnits="userSpaceOnUse">
<stop offset="0.158794" stop-color="#4D4D4F" stop-opacity="0"/>
<stop offset="1" stop-color="#4D4D4F"/>
</linearGradient>
<linearGradient id="paint39_linear_101_13" x1="587.831" y1="1121.68" x2="57.8195" y2="774.682" gradientUnits="userSpaceOnUse">
<stop offset="0.158794" stop-color="#4D4D4F" stop-opacity="0"/>
<stop offset="1" stop-color="#4D4D4F"/>
</linearGradient>
<linearGradient id="paint40_linear_101_13" x1="558.066" y1="1135.91" x2="28.0544" y2="788.916" gradientUnits="userSpaceOnUse">
<stop offset="0.158794" stop-color="#4D4D4F" stop-opacity="0"/>
<stop offset="1" stop-color="#4D4D4F"/>
</linearGradient>
<linearGradient id="paint41_linear_101_13" x1="527.835" y1="1149.13" x2="-2.17656" y2="802.129" gradientUnits="userSpaceOnUse">
<stop offset="0.158794" stop-color="#4D4D4F" stop-opacity="0"/>
<stop offset="1" stop-color="#4D4D4F"/>
</linearGradient>
<linearGradient id="paint42_linear_101_13" x1="497.184" y1="1161.32" x2="-32.8274" y2="814.327" gradientUnits="userSpaceOnUse">
<stop offset="0.158794" stop-color="#4D4D4F" stop-opacity="0"/>
<stop offset="1" stop-color="#4D4D4F"/>
</linearGradient>
<linearGradient id="paint43_linear_101_13" x1="466.164" y1="1172.53" x2="-63.847" y2="825.53" gradientUnits="userSpaceOnUse">
<stop offset="0.158794" stop-color="#4D4D4F" stop-opacity="0"/>
<stop offset="1" stop-color="#4D4D4F"/>
</linearGradient>
<linearGradient id="paint44_linear_101_13" x1="434.797" y1="1182.71" x2="-95.2146" y2="835.718" gradientUnits="userSpaceOnUse">
<stop offset="0.158794" stop-color="#4D4D4F" stop-opacity="0"/>
<stop offset="1" stop-color="#4D4D4F"/>
</linearGradient>
<linearGradient id="paint45_linear_101_13" x1="403.122" y1="1191.87" x2="-126.889" y2="844.878" gradientUnits="userSpaceOnUse">
<stop offset="0.158794" stop-color="#4D4D4F" stop-opacity="0"/>
<stop offset="1" stop-color="#4D4D4F"/>
</linearGradient>
<linearGradient id="paint46_linear_101_13" x1="371.188" y1="1199.97" x2="-158.824" y2="852.979" gradientUnits="userSpaceOnUse">
<stop offset="0.158794" stop-color="#4D4D4F" stop-opacity="0"/>
<stop offset="1" stop-color="#4D4D4F"/>
</linearGradient>
</defs>
</svg>
