<svg width="720" height="981" viewBox="0 0 720 981" fill="none" xmlns="http://www.w3.org/2000/svg">
<path d="M747.124 -160.544L747.167 -160.567L747.212 -160.582C747.974 -160.837 748.706 -161.219 749.45 -161.649C749.698 -161.792 749.951 -161.944 750.208 -162.097C750.7 -162.391 751.203 -162.691 751.699 -162.954C782.253 -179.944 806.939 -205.796 822.508 -237.103C838.077 -268.41 843.796 -303.703 838.911 -338.333C830.404 -392.459 817.42 -445.688 800.137 -497.491C782.783 -549.27 761.135 -599.602 735.373 -647.957C718.443 -678.56 692.645 -703.313 661.375 -718.958C630.106 -734.602 594.835 -740.404 560.207 -735.597C559.652 -735.509 559.069 -735.446 558.499 -735.385C558.202 -735.353 557.909 -735.321 557.625 -735.287C556.772 -735.183 555.958 -735.048 555.196 -734.793L555.15 -734.778L555.102 -734.77C449.896 -718.263 348.193 -684.254 254.214 -634.153L254.205 -634.148L254.195 -634.143C253.612 -633.861 253.048 -633.524 252.458 -633.171L252.445 -633.163L252.443 -633.162L252.431 -633.155L252.43 -633.154L252.418 -633.147C251.55 -632.626 250.625 -632.072 249.599 -631.72C219.167 -614.81 194.54 -589.108 178.942 -557.974C163.334 -526.819 157.489 -491.685 162.163 -457.155C162.163 -457.153 162.163 -457.151 162.164 -457.148L163.151 -450.869C171.423 -398.556 183.999 -347.11 200.718 -297.045C217.478 -246.993 238.378 -198.331 263.238 -151.565L266.227 -145.955C266.228 -145.953 266.229 -145.951 266.23 -145.948C283.267 -115.553 309.072 -91.0028 340.281 -75.5039C371.469 -60.0152 406.603 -54.2967 441.085 -59.0938C442.117 -59.4307 443.189 -59.5438 444.197 -59.65L444.226 -59.6532L444.227 -59.6532L444.236 -59.654L444.236 -59.6541L444.241 -59.6547C444.924 -59.7278 445.578 -59.798 446.214 -59.9232L446.225 -59.9254L446.236 -59.9271C551.448 -76.4359 653.15 -110.445 747.124 -160.544Z" stroke="#A7A9AC" stroke-width="1.15517"/>
<path d="M777.138 -148.056L777.18 -148.079L777.226 -148.094C777.988 -148.349 778.72 -148.731 779.464 -149.161C779.711 -149.304 779.965 -149.455 780.222 -149.609C780.714 -149.902 781.217 -150.203 781.713 -150.466C812.267 -167.456 836.953 -193.308 852.522 -224.615C868.091 -255.922 873.81 -291.214 868.925 -325.845C860.418 -379.971 847.434 -433.2 830.151 -485.003C812.796 -536.781 791.149 -587.113 765.386 -635.469C748.457 -666.072 722.659 -690.825 691.389 -706.469C660.12 -722.114 624.849 -727.916 590.22 -723.109C589.666 -723.021 589.083 -722.958 588.513 -722.896C588.216 -722.864 587.923 -722.833 587.639 -722.798C586.786 -722.694 585.972 -722.559 585.21 -722.305L585.164 -722.289L585.116 -722.282C479.909 -705.775 378.207 -671.765 284.228 -621.665L284.218 -621.659L284.208 -621.655C283.625 -621.372 283.062 -621.036 282.472 -620.683L282.459 -620.675L282.457 -620.674L282.445 -620.667L282.444 -620.666L282.432 -620.659C281.563 -620.138 280.639 -619.583 279.613 -619.232C249.181 -602.322 224.554 -576.619 208.956 -545.485C193.348 -514.331 187.502 -479.196 192.176 -444.667C192.177 -444.665 192.177 -444.662 192.177 -444.66L193.165 -438.381C201.437 -386.067 214.012 -334.622 230.731 -284.557C247.492 -234.505 268.392 -185.843 293.252 -139.077L296.241 -133.466C296.242 -133.464 296.243 -133.462 296.244 -133.46C313.281 -103.065 339.085 -78.5145 370.294 -63.0157C401.483 -47.527 436.617 -41.8084 471.099 -46.6055C472.131 -46.9424 473.203 -47.0555 474.21 -47.1617L474.239 -47.1649L474.24 -47.1649L474.249 -47.1658L474.25 -47.1658L474.255 -47.1664C474.938 -47.2395 475.592 -47.3098 476.228 -47.4349L476.239 -47.4371L476.25 -47.4388C581.462 -63.9477 683.164 -97.957 777.138 -148.056Z" stroke="#A7A9AC" stroke-width="1.15517"/>
<path d="M807.19 -134.518L807.233 -134.541L807.279 -134.556C808.04 -134.811 808.772 -135.193 809.516 -135.623C809.764 -135.766 810.017 -135.917 810.274 -136.071C810.766 -136.364 811.27 -136.665 811.765 -136.928C842.32 -153.918 867.005 -179.77 882.574 -211.077C898.143 -242.384 903.862 -277.676 898.977 -312.307C890.47 -366.433 877.486 -419.662 860.204 -471.465C842.849 -523.243 821.201 -573.575 795.439 -621.931C778.509 -652.534 752.711 -677.287 721.442 -692.931C690.172 -708.575 654.902 -714.377 620.273 -709.571C619.719 -709.482 619.135 -709.42 618.565 -709.358C618.268 -709.326 617.975 -709.295 617.692 -709.26C616.839 -709.156 616.024 -709.021 615.262 -708.767L615.216 -708.751L615.169 -708.744C509.962 -692.237 408.259 -658.227 314.281 -608.127L314.271 -608.121L314.261 -608.116C313.678 -607.834 313.114 -607.497 312.525 -607.145L312.511 -607.137L312.509 -607.136L312.498 -607.129L312.496 -607.128L312.484 -607.121C311.616 -606.6 310.691 -606.045 309.665 -605.694C279.233 -588.784 254.607 -563.081 239.009 -531.947C223.4 -500.793 217.555 -465.658 222.229 -431.129C222.229 -431.127 222.229 -431.124 222.23 -431.122L223.217 -424.842C231.489 -372.529 244.065 -321.084 260.784 -271.018C277.544 -220.966 298.445 -172.305 323.304 -125.539L326.293 -119.928C326.294 -119.926 326.296 -119.924 326.297 -119.922C343.333 -89.5269 369.138 -64.9764 400.347 -49.4776C431.536 -33.9889 466.669 -28.2703 501.152 -33.0674C502.183 -33.4043 503.255 -33.5174 504.263 -33.6237L504.292 -33.6268L504.293 -33.6268L504.302 -33.6277L504.302 -33.6277L504.307 -33.6283C504.991 -33.7014 505.644 -33.7717 506.28 -33.8968L506.291 -33.899L506.302 -33.9007C611.514 -50.4096 713.216 -84.4189 807.19 -134.518Z" stroke="#A7A9AC" stroke-width="1.15517"/>
<path d="M836.741 -119.912L836.784 -119.935L836.83 -119.95C837.591 -120.205 838.323 -120.587 839.067 -121.017C839.315 -121.16 839.568 -121.311 839.825 -121.465C840.317 -121.758 840.82 -122.059 841.316 -122.322C871.87 -139.312 896.556 -165.164 912.125 -196.471C927.694 -227.778 933.413 -263.07 928.528 -297.701C920.021 -351.827 907.037 -405.056 889.754 -456.859C872.4 -508.637 850.752 -558.969 824.99 -607.325C808.06 -637.928 782.262 -662.681 750.992 -678.325C719.723 -693.97 684.452 -699.772 649.824 -694.965C649.269 -694.876 648.686 -694.814 648.116 -694.752C647.819 -694.72 647.526 -694.689 647.242 -694.654C646.389 -694.55 645.575 -694.415 644.813 -694.161L644.767 -694.145L644.719 -694.138C539.513 -677.631 437.81 -643.621 343.832 -593.521L343.822 -593.515L343.812 -593.511C343.229 -593.228 342.665 -592.891 342.075 -592.539L342.062 -592.531L342.06 -592.53L342.049 -592.523L342.047 -592.522L342.035 -592.515C341.167 -591.994 340.242 -591.439 339.216 -591.088C308.784 -574.178 284.157 -548.475 268.56 -517.341C252.951 -486.187 247.106 -451.052 251.78 -416.523C251.78 -416.521 251.78 -416.518 251.781 -416.516L252.768 -410.237C261.04 -357.923 273.616 -306.478 290.335 -256.412C307.095 -206.361 327.995 -157.699 352.855 -110.933L355.844 -105.322C355.845 -105.32 355.846 -105.318 355.847 -105.316C372.884 -74.9209 398.689 -50.3705 429.898 -34.8716C461.086 -19.3829 496.22 -13.6644 530.703 -18.4615C531.734 -18.7984 532.806 -18.9114 533.814 -19.0177L533.843 -19.0208L533.844 -19.0208L533.853 -19.0217L533.853 -19.0217L533.858 -19.0224C534.542 -19.0954 535.195 -19.1657 535.831 -19.2909L535.842 -19.293L535.853 -19.2948C641.065 -35.8036 742.767 -69.8129 836.741 -119.912Z" stroke="#A7A9AC" stroke-width="1.15517"/>
<path d="M865.713 -104.183L865.755 -104.206L865.801 -104.221C866.563 -104.476 867.295 -104.858 868.039 -105.288C868.287 -105.431 868.54 -105.582 868.797 -105.736C869.289 -106.029 869.792 -106.33 870.288 -106.593C900.842 -123.583 925.528 -149.435 941.097 -180.742C956.666 -212.049 962.385 -247.341 957.5 -281.972C948.993 -336.098 936.009 -389.327 918.726 -441.13C901.371 -492.908 879.724 -543.24 853.961 -591.596C837.032 -622.199 811.234 -646.952 779.964 -662.596C748.695 -678.241 713.424 -684.043 678.795 -679.236C678.241 -679.147 677.658 -679.085 677.088 -679.023C676.791 -678.991 676.498 -678.96 676.214 -678.925C675.361 -678.821 674.547 -678.686 673.785 -678.432L673.739 -678.416L673.691 -678.409C568.484 -661.902 466.782 -627.892 372.803 -577.792L372.793 -577.786L372.783 -577.781C372.2 -577.499 371.637 -577.162 371.047 -576.81L371.034 -576.802L371.032 -576.801L371.02 -576.794L371.019 -576.793L371.007 -576.786C370.138 -576.265 369.214 -575.71 368.188 -575.359C337.756 -558.449 313.129 -532.746 297.531 -501.612C281.923 -470.458 276.077 -435.323 280.751 -400.794C280.752 -400.792 280.752 -400.789 280.752 -400.787L281.74 -394.508C290.012 -342.194 302.587 -290.749 319.306 -240.683C336.067 -190.632 356.967 -141.97 381.827 -95.2041L384.816 -89.5933C384.817 -89.5912 384.818 -89.5892 384.819 -89.5871C401.856 -59.1919 427.66 -34.6414 458.87 -19.1426C490.058 -3.6539 525.192 2.06462 559.674 -2.73248C560.706 -3.06937 561.778 -3.18244 562.785 -3.28869L562.814 -3.29183L562.815 -3.29183L562.825 -3.29272L562.825 -3.29274L562.83 -3.29337C563.513 -3.36643 564.167 -3.43671 564.803 -3.56188L564.814 -3.56403L564.825 -3.56576C670.037 -20.0746 771.739 -54.0839 865.713 -104.183Z" stroke="#A7A9AC" stroke-width="1.15517"/>
<path d="M894.016 -87.2971L894.059 -87.3199L894.104 -87.3352C894.866 -87.59 895.598 -87.9722 896.342 -88.4022C896.59 -88.5453 896.843 -88.6967 897.1 -88.8499C897.592 -89.1436 898.095 -89.4441 898.591 -89.707C929.145 -106.697 953.831 -132.549 969.4 -163.856C984.969 -195.163 990.688 -230.456 985.803 -265.086C977.296 -319.212 964.312 -372.441 947.029 -424.244C929.674 -476.023 908.027 -526.355 882.264 -574.71C865.335 -605.313 839.537 -630.066 808.267 -645.711C776.998 -661.355 741.727 -667.157 707.099 -662.35C706.544 -662.262 705.961 -662.199 705.391 -662.138C705.094 -662.106 704.801 -662.074 704.517 -662.04C703.664 -661.936 702.85 -661.801 702.088 -661.546L702.042 -661.531L701.994 -661.523C596.788 -645.016 495.085 -611.007 401.106 -560.906L401.097 -560.901L401.086 -560.896C400.504 -560.613 399.94 -560.277 399.35 -559.924L399.337 -559.916L399.335 -559.915L399.323 -559.908L399.322 -559.907L399.31 -559.9C398.442 -559.379 397.517 -558.825 396.491 -558.473C366.059 -541.563 341.432 -515.861 325.834 -484.726C310.226 -453.572 304.381 -418.437 309.055 -383.908C309.055 -383.906 309.055 -383.904 309.055 -383.901L310.043 -377.622C318.315 -325.309 330.891 -273.863 347.61 -223.798C364.37 -173.746 385.27 -125.084 410.13 -78.3184L413.119 -72.7075C413.12 -72.7055 413.121 -72.7034 413.122 -72.7014C430.159 -42.3062 455.963 -17.7557 487.173 -2.25687C518.361 13.2318 553.495 18.9504 587.977 14.1533C589.009 13.8164 590.081 13.7033 591.089 13.5971L591.118 13.5939L591.118 13.5939L591.128 13.593L591.128 13.593L591.133 13.5924C591.816 13.5193 592.47 13.449 593.106 13.3239L593.117 13.3217L593.128 13.32C698.34 -3.18887 800.042 -37.1982 894.016 -87.2971Z" stroke="#A7A9AC" stroke-width="1.15517"/>
<path d="M921.568 -69.1975L921.611 -69.2203L921.657 -69.2356C922.419 -69.4904 923.151 -69.8726 923.895 -70.3026C924.142 -70.4457 924.396 -70.597 924.652 -70.7503C925.144 -71.044 925.648 -71.3445 926.143 -71.6074C956.698 -88.5978 981.384 -114.449 996.952 -145.756C1012.52 -177.064 1018.24 -212.356 1013.36 -246.987C1004.85 -301.112 991.865 -354.342 974.582 -406.144C957.227 -457.923 935.58 -508.255 909.817 -556.611C892.888 -587.214 867.09 -611.967 835.82 -627.611C804.551 -643.255 769.28 -649.057 734.651 -644.25C734.097 -644.162 733.514 -644.099 732.944 -644.038C732.647 -644.006 732.354 -643.974 732.07 -643.94C731.217 -643.836 730.402 -643.701 729.641 -643.446L729.595 -643.431L729.547 -643.423C624.34 -626.916 522.638 -592.907 428.659 -542.806L428.649 -542.801L428.639 -542.796C428.056 -542.514 427.492 -542.177 426.903 -541.825L426.89 -541.817L426.887 -541.816L426.876 -541.809L426.874 -541.808L426.863 -541.801C425.994 -541.28 425.07 -540.725 424.043 -540.374C393.612 -523.463 368.985 -497.761 353.387 -466.627C337.779 -435.472 331.933 -400.338 336.607 -365.808C336.607 -365.806 336.608 -365.804 336.608 -365.802L337.596 -359.522C345.868 -307.209 358.443 -255.763 375.162 -205.698C391.922 -155.646 412.823 -106.984 437.683 -60.2188L440.672 -54.6079C440.673 -54.6059 440.674 -54.6038 440.675 -54.6018C457.712 -24.2066 483.516 0.343903 514.725 15.8427C545.914 31.3314 581.048 37.05 615.53 32.2529C616.561 31.916 617.634 31.8029 618.641 31.6967L618.67 31.6935L618.671 31.6935L618.68 31.6926L618.681 31.6926L618.686 31.692C619.369 31.6189 620.023 31.5486 620.659 31.4235L620.67 31.4213L620.681 31.4196C725.893 14.9107 827.595 -19.0986 921.568 -69.1975Z" stroke="#A7A9AC" stroke-width="1.15517"/>
<path d="M948.26 -49.8538L948.303 -49.8765L948.349 -49.8919C949.11 -50.1466 949.842 -50.5288 950.586 -50.9588C950.834 -51.102 951.087 -51.2533 951.344 -51.4065C951.836 -51.7002 952.34 -52.0008 952.835 -52.2636C983.39 -69.254 1008.08 -95.1055 1023.64 -126.413C1039.21 -157.72 1044.93 -193.012 1040.05 -227.643C1031.54 -281.769 1018.56 -334.998 1001.27 -386.801C983.919 -438.579 962.271 -488.911 936.509 -537.267C919.579 -567.87 893.781 -592.623 862.512 -608.267C831.242 -623.911 795.972 -629.713 761.343 -624.906C760.789 -624.818 760.205 -624.756 759.635 -624.694C759.338 -624.662 759.045 -624.631 758.762 -624.596C757.909 -624.492 757.094 -624.357 756.332 -624.102L756.286 -624.087L756.239 -624.08C651.032 -607.573 549.33 -573.563 455.351 -523.463L455.341 -523.457L455.331 -523.452C454.748 -523.17 454.184 -522.833 453.595 -522.481L453.581 -522.473L453.579 -522.472L453.568 -522.465L453.566 -522.464L453.554 -522.457C452.686 -521.936 451.761 -521.381 450.735 -521.03C420.303 -504.12 395.677 -478.417 380.079 -447.283C364.471 -416.128 358.625 -380.994 363.299 -346.465C363.299 -346.462 363.3 -346.46 363.3 -346.458L364.287 -340.178C372.559 -287.865 385.135 -236.42 401.854 -186.354C418.614 -136.302 439.515 -87.6407 464.375 -40.875L467.363 -35.2642C467.364 -35.2621 467.366 -35.2601 467.367 -35.258C484.404 -4.86283 510.208 19.6877 541.417 35.1865C572.606 50.6752 607.739 56.3937 642.222 51.5966C643.253 51.2597 644.325 51.1467 645.333 51.0404L645.362 51.0373L645.363 51.0373L645.372 51.0364L645.372 51.0364L645.377 51.0357C646.061 50.9627 646.714 50.8924 647.35 50.7672L647.361 50.7651L647.372 50.7633C752.584 34.2545 854.287 0.245171 948.26 -49.8538Z" stroke="#A7A9AC" stroke-width="1.15517"/>
<path d="M973.984 -29.2386L974.027 -29.2613L974.073 -29.2766C974.834 -29.5314 975.566 -29.9136 976.31 -30.3436C976.558 -30.4867 976.811 -30.6381 977.068 -30.7913C977.56 -31.085 978.063 -31.3856 978.559 -31.6484C1009.11 -48.6388 1033.8 -74.4903 1049.37 -105.797C1064.94 -137.105 1070.66 -172.397 1065.77 -207.028C1057.26 -261.153 1044.28 -314.383 1027 -366.185C1009.64 -417.964 987.995 -468.296 962.233 -516.652C945.303 -547.255 919.505 -572.008 888.235 -587.652C856.966 -603.296 821.695 -609.098 787.067 -604.291C786.512 -604.203 785.929 -604.14 785.359 -604.079C785.062 -604.047 784.769 -604.015 784.485 -603.981C783.632 -603.877 782.818 -603.742 782.056 -603.487L782.01 -603.472L781.962 -603.464C676.756 -586.957 575.053 -552.948 481.075 -502.847L481.065 -502.842L481.055 -502.837C480.472 -502.555 479.908 -502.218 479.318 -501.866L479.305 -501.858L479.303 -501.857L479.292 -501.85L479.29 -501.849L479.278 -501.842C478.41 -501.321 477.485 -500.766 476.459 -500.415C446.027 -483.504 421.401 -457.802 405.803 -426.668C390.194 -395.513 384.349 -360.379 389.023 -325.849C389.023 -325.847 389.023 -325.845 389.024 -325.843L390.011 -319.563C398.283 -267.25 410.859 -215.804 427.578 -165.739C444.338 -115.687 465.238 -67.0254 490.098 -20.2598L493.087 -14.6489C493.088 -14.6469 493.089 -14.6448 493.091 -14.6428C510.127 15.7524 535.932 40.3029 567.141 55.8017C598.329 71.2904 633.463 77.009 667.946 72.2119C668.977 71.875 670.049 71.7619 671.057 71.6556L671.086 71.6525L671.087 71.6525L671.096 71.6516L671.096 71.6516L671.101 71.651C671.785 71.5779 672.438 71.5076 673.074 71.3825L673.085 71.3803L673.096 71.3786C778.308 54.8697 880.01 20.8604 973.984 -29.2386Z" stroke="#A7A9AC" stroke-width="1.15517"/>
<path d="M998.616 -7.33377L998.658 -7.35652L998.704 -7.37186C999.466 -7.62658 1000.2 -8.00878 1000.94 -8.43881C1001.19 -8.58195 1001.44 -8.73328 1001.7 -8.88648C1002.19 -9.1802 1002.7 -9.48077 1003.19 -9.74361C1033.75 -26.734 1058.43 -52.5855 1074 -83.8925C1089.57 -115.2 1095.29 -150.492 1090.4 -185.123C1081.9 -239.249 1068.91 -292.478 1051.63 -344.281C1034.27 -396.059 1012.63 -446.391 986.864 -494.747C969.935 -525.35 944.137 -550.103 912.867 -565.747C881.598 -581.391 846.327 -587.193 811.698 -582.386C811.144 -582.298 810.561 -582.236 809.991 -582.174C809.694 -582.142 809.401 -582.111 809.117 -582.076C808.264 -581.972 807.449 -581.837 806.688 -581.582L806.642 -581.567L806.594 -581.56C701.387 -565.053 599.685 -531.043 505.706 -480.943L505.696 -480.937L505.686 -480.932C505.103 -480.65 504.539 -480.313 503.95 -479.961L503.937 -479.953L503.935 -479.952L503.923 -479.945L503.922 -479.944L503.91 -479.937C503.041 -479.416 502.117 -478.861 501.09 -478.51C470.659 -461.6 446.032 -435.897 430.434 -404.763C414.826 -373.608 408.98 -338.474 413.654 -303.945C413.655 -303.942 413.655 -303.94 413.655 -303.938L414.643 -297.658C422.915 -245.345 435.49 -193.9 452.209 -143.834C468.97 -93.7824 489.87 -45.1207 514.73 1.64498L517.719 7.25584C517.72 7.25789 517.721 7.25994 517.722 7.26199C534.759 37.6572 560.563 62.2077 591.772 77.7065C622.961 93.1952 658.095 98.9137 692.577 94.1166C693.609 93.7798 694.681 93.6667 695.688 93.5604L695.717 93.5573L695.718 93.5573L695.727 93.5564L695.728 93.5564L695.733 93.5558C696.416 93.4827 697.07 93.4124 697.706 93.2872L697.717 93.2851L697.728 93.2834C802.94 76.7745 904.642 42.7652 998.616 -7.33377Z" stroke="#A7A9AC" stroke-width="1.15517"/>
<path d="M1022.05 15.8625L1022.09 15.8398L1022.14 15.8244C1022.9 15.5697 1023.63 15.1875 1024.38 14.7575C1024.62 14.6143 1024.88 14.463 1025.13 14.3098C1025.63 14.0161 1026.13 13.7155 1026.62 13.4527C1057.18 -3.5377 1081.86 -29.3892 1097.43 -60.6962C1113 -92.0036 1118.72 -127.296 1113.84 -161.927C1105.33 -216.052 1092.35 -269.281 1075.06 -321.084C1057.71 -372.863 1036.06 -423.195 1010.3 -471.551C993.369 -502.154 967.571 -526.907 936.301 -542.551C905.031 -558.195 869.761 -563.997 835.132 -559.19C834.578 -559.102 833.995 -559.039 833.425 -558.978C833.128 -558.946 832.834 -558.914 832.551 -558.88C831.698 -558.776 830.883 -558.641 830.121 -558.386L830.076 -558.371L830.028 -558.363C724.821 -541.856 623.119 -507.847 529.14 -457.746L529.13 -457.741L529.12 -457.736C528.537 -457.454 527.973 -457.117 527.384 -456.765L527.37 -456.757L527.368 -456.755L527.357 -456.748L527.355 -456.748L527.344 -456.741C526.475 -456.22 525.551 -455.665 524.524 -455.314C494.092 -438.403 469.466 -412.701 453.868 -381.567C438.26 -350.412 432.414 -315.278 437.088 -280.748C437.088 -280.746 437.089 -280.744 437.089 -280.742L438.077 -274.462C446.349 -222.149 458.924 -170.703 475.643 -120.638C492.403 -70.5861 513.304 -21.9244 538.164 24.8413L541.152 30.4521C541.154 30.4542 541.155 30.4562 541.156 30.4583C558.193 60.8535 583.997 85.404 615.206 100.903C646.395 116.392 681.528 122.11 716.011 117.313C717.042 116.976 718.115 116.863 719.122 116.757L719.151 116.754L719.152 116.754L719.161 116.753L719.161 116.753L719.167 116.752C719.85 116.679 720.503 116.609 721.139 116.484L721.15 116.481L721.161 116.48C826.373 99.9708 928.076 65.9615 1022.05 15.8625Z" stroke="#A7A9AC" stroke-width="1.15517"/>
<path d="M1044.15 40.3244L1044.19 40.3017L1044.24 40.2863C1045 40.0316 1045.73 39.6494 1046.47 39.2194C1046.72 39.0763 1046.97 38.9249 1047.23 38.7717C1047.72 38.478 1048.23 38.1774 1048.72 37.9146C1079.28 20.9242 1103.96 -4.92732 1119.53 -36.2343C1135.1 -67.5416 1140.82 -102.834 1135.93 -137.465C1127.43 -191.59 1114.44 -244.82 1097.16 -296.622C1079.81 -348.401 1058.16 -398.733 1032.4 -447.089C1015.47 -477.692 989.669 -502.445 958.399 -518.089C927.13 -533.733 891.859 -539.535 857.23 -534.728C856.676 -534.64 856.093 -534.577 855.523 -534.516C855.226 -534.484 854.933 -534.452 854.649 -534.418C853.796 -534.314 852.982 -534.179 852.22 -533.924L852.174 -533.909L852.126 -533.901C746.919 -517.394 645.217 -483.385 551.238 -433.284L551.228 -433.279L551.218 -433.274C550.635 -432.992 550.071 -432.655 549.482 -432.303L549.469 -432.295L549.467 -432.294L549.455 -432.287L549.454 -432.286L549.442 -432.279C548.573 -431.758 547.649 -431.203 546.623 -430.852C516.191 -413.941 491.564 -388.239 475.966 -357.105C460.358 -325.95 454.512 -290.816 459.186 -256.286C459.187 -256.284 459.187 -256.282 459.187 -256.28L460.175 -250C468.447 -197.687 481.022 -146.241 497.741 -96.1762C514.502 -46.1242 535.402 2.53755 560.262 49.3032L563.251 54.914C563.252 54.9161 563.253 54.9181 563.254 54.9202C580.291 85.3154 606.095 109.866 637.304 125.365C668.493 140.853 703.627 146.572 738.109 141.775C739.141 141.438 740.213 141.325 741.22 141.219L741.249 141.215L741.25 141.215L741.259 141.215L741.26 141.215L741.265 141.214C741.948 141.141 742.602 141.071 743.238 140.945L743.249 140.943L743.26 140.942C848.472 124.433 950.174 90.4234 1044.15 40.3244Z" stroke="#A7A9AC" stroke-width="1.15517"/>
<path d="M1064.76 65.9929L1064.8 65.9701L1064.85 65.9548C1065.61 65.7001 1066.34 65.3179 1067.08 64.8879C1067.33 64.7447 1067.58 64.5934 1067.84 64.4402C1068.33 64.1465 1068.84 63.8459 1069.33 63.583C1099.89 46.5927 1124.57 20.7411 1140.14 -10.5659C1155.71 -41.8732 1161.43 -77.1655 1156.54 -111.796C1148.04 -165.922 1135.05 -219.151 1117.77 -270.954C1100.42 -322.733 1078.77 -373.065 1053.01 -421.42C1036.08 -452.023 1010.28 -476.776 979.009 -492.42C947.739 -508.065 912.469 -513.867 877.84 -509.06C877.286 -508.972 876.703 -508.909 876.133 -508.848C875.836 -508.816 875.542 -508.784 875.259 -508.749C874.406 -508.646 873.591 -508.511 872.829 -508.256L872.784 -508.24L872.736 -508.233C767.529 -491.726 665.827 -457.717 571.848 -407.616L571.838 -407.611L571.828 -407.606C571.245 -407.323 570.681 -406.987 570.092 -406.634L570.078 -406.626L570.076 -406.625L570.065 -406.618L570.063 -406.617L570.052 -406.61C569.183 -406.089 568.259 -405.534 567.232 -405.183C536.8 -388.273 512.174 -362.571 496.576 -331.436C480.968 -300.282 475.122 -265.147 479.796 -230.618C479.796 -230.616 479.797 -230.614 479.797 -230.611L480.784 -224.332C489.057 -172.019 501.632 -120.573 518.351 -70.5077C535.111 -20.4557 556.012 28.206 580.872 74.9716L583.86 80.5825C583.862 80.5846 583.863 80.5866 583.864 80.5886C600.901 110.984 626.705 135.534 657.914 151.033C689.103 166.522 724.236 172.24 758.719 167.443C759.75 167.106 760.823 166.993 761.83 166.887L761.859 166.884L761.86 166.884L761.869 166.883L761.869 166.883L761.875 166.882C762.558 166.809 763.211 166.739 763.847 166.614L763.858 166.612L763.869 166.61C869.081 150.101 970.784 116.092 1064.76 65.9929Z" stroke="#A7A9AC" stroke-width="1.15517"/>
<path d="M1083.86 92.864L1083.91 92.8412L1083.95 92.8259C1084.71 92.5712 1085.45 92.189 1086.19 91.7589C1086.44 91.6158 1086.69 91.4645 1086.95 91.3113C1087.44 91.0175 1087.94 90.717 1088.44 90.4541C1118.99 73.4638 1143.68 47.6122 1159.25 16.3052C1174.82 -15.0021 1180.54 -50.2944 1175.65 -84.9252C1167.14 -139.051 1154.16 -192.28 1136.88 -244.083C1119.52 -295.862 1097.88 -346.193 1072.11 -394.549C1055.18 -425.152 1029.39 -449.905 998.116 -465.549C966.847 -481.194 931.576 -486.996 896.947 -482.189C896.393 -482.101 895.81 -482.038 895.24 -481.976C894.943 -481.945 894.65 -481.913 894.366 -481.878C893.513 -481.774 892.699 -481.639 891.937 -481.385L891.891 -481.369L891.843 -481.362C786.636 -464.855 684.934 -430.845 590.955 -380.745L590.945 -380.739L590.935 -380.735C590.352 -380.452 589.788 -380.116 589.199 -379.763L589.186 -379.755L589.184 -379.754L589.172 -379.747L589.171 -379.746L589.159 -379.739C588.29 -379.218 587.366 -378.663 586.34 -378.312C555.908 -361.402 531.281 -335.7 515.683 -304.565C500.075 -273.411 494.229 -238.276 498.903 -203.747C498.904 -203.745 498.904 -203.742 498.904 -203.74L499.892 -197.461C508.164 -145.147 520.739 -93.7019 537.458 -43.6366C554.219 6.41535 575.119 55.0771 599.979 101.843L602.968 107.454C602.969 107.456 602.97 107.458 602.971 107.46C620.008 137.855 645.812 162.405 677.021 177.904C708.21 193.393 743.344 199.111 777.826 194.314C778.858 193.978 779.93 193.864 780.937 193.758L780.966 193.755L780.967 193.755L780.976 193.754L780.977 193.754L780.982 193.754C781.665 193.68 782.319 193.61 782.955 193.485L782.966 193.483L782.977 193.481C888.189 176.972 989.891 142.963 1083.86 92.864Z" stroke="#A7A9AC" stroke-width="1.15517"/>
<path d="M1101.33 120.837L1101.37 120.814L1101.42 120.799C1102.18 120.544 1102.91 120.162 1103.66 119.732C1103.9 119.589 1104.16 119.438 1104.41 119.284C1104.91 118.991 1105.41 118.69 1105.91 118.427C1136.46 101.437 1161.15 75.5854 1176.71 44.2784C1192.28 12.9711 1198 -22.3212 1193.12 -56.952C1184.61 -111.078 1171.63 -164.307 1154.34 -216.11C1136.99 -267.888 1115.34 -318.22 1089.58 -366.576C1072.65 -397.179 1046.85 -421.932 1015.58 -437.576C984.313 -453.22 949.042 -459.023 914.413 -454.216C913.859 -454.127 913.276 -454.065 912.706 -454.003C912.409 -453.971 912.116 -453.94 911.832 -453.905C910.979 -453.801 910.164 -453.666 909.403 -453.412L909.357 -453.396L909.309 -453.389C804.102 -436.882 702.4 -402.872 608.421 -352.772L608.411 -352.766L608.401 -352.761C607.818 -352.479 607.254 -352.142 606.665 -351.79L606.652 -351.782L606.649 -351.781L606.638 -351.774L606.636 -351.773L606.625 -351.766C605.756 -351.245 604.832 -350.69 603.805 -350.339C573.374 -333.429 548.747 -307.726 533.149 -276.592C517.541 -245.438 511.695 -210.303 516.369 -175.774C516.37 -175.772 516.37 -175.769 516.37 -175.767L517.358 -169.488C525.63 -117.174 538.205 -65.7287 554.924 -15.6635C571.684 34.3885 592.585 83.0502 617.445 129.816L620.434 135.427C620.435 135.429 620.436 135.431 620.437 135.433C637.474 165.828 663.278 190.379 694.487 205.877C725.676 221.366 760.81 227.085 795.292 222.288C796.323 221.951 797.396 221.838 798.403 221.731L798.432 221.728L798.433 221.728L798.442 221.727L798.443 221.727L798.448 221.727C799.131 221.654 799.785 221.583 800.421 221.458L800.432 221.456L800.443 221.454C905.655 204.945 1007.36 170.936 1101.33 120.837Z" stroke="#A7A9AC" stroke-width="1.15517"/>
<path d="M1117.08 149.808L1117.12 149.785L1117.17 149.77C1117.93 149.515 1118.66 149.133 1119.41 148.703C1119.66 148.56 1119.91 148.408 1120.17 148.255C1120.66 147.961 1121.16 147.661 1121.66 147.398C1152.21 130.408 1176.9 104.556 1192.47 73.2491C1208.03 41.9418 1213.75 6.64946 1208.87 -27.9813C1200.36 -82.1071 1187.38 -135.336 1170.09 -187.139C1152.74 -238.918 1131.09 -289.25 1105.33 -337.605C1088.4 -368.208 1062.6 -392.961 1031.33 -408.606C1000.06 -424.25 964.793 -430.052 930.164 -425.245C929.61 -425.157 929.027 -425.094 928.457 -425.033C928.16 -425.001 927.867 -424.969 927.583 -424.935C926.73 -424.831 925.915 -424.696 925.154 -424.441L925.108 -424.426L925.06 -424.418C819.853 -407.911 718.151 -373.902 624.172 -323.801L624.162 -323.796L624.152 -323.791C623.569 -323.508 623.005 -323.172 622.416 -322.819L622.403 -322.811L622.4 -322.81L622.389 -322.803L622.387 -322.802L622.376 -322.795C621.507 -322.274 620.583 -321.72 619.556 -321.368C589.124 -304.458 564.498 -278.756 548.9 -247.622C533.292 -216.467 527.446 -181.332 532.12 -146.803C532.12 -146.801 532.121 -146.799 532.121 -146.796L533.109 -140.517C541.381 -88.2036 553.956 -36.758 570.675 13.3072C587.435 63.3592 608.336 112.021 633.196 158.787L636.184 164.397C636.186 164.399 636.187 164.402 636.188 164.404C653.225 194.799 679.029 219.349 710.238 234.848C741.427 250.337 776.561 256.055 811.043 251.258C812.074 250.921 813.147 250.808 814.154 250.702L814.183 250.699L814.184 250.699L814.193 250.698L814.194 250.698L814.199 250.697C814.882 250.624 815.536 250.554 816.172 250.429L816.183 250.427L816.194 250.425C921.405 233.916 1023.11 199.907 1117.08 149.808Z" stroke="#A7A9AC" stroke-width="1.15517"/>
<path d="M1131.06 179.679L1131.1 179.657L1131.14 179.641C1131.91 179.387 1132.64 179.004 1133.38 178.574C1133.63 178.431 1133.88 178.28 1134.14 178.127C1134.63 177.833 1135.13 177.532 1135.63 177.27C1166.18 160.279 1190.87 134.428 1206.44 103.121C1222.01 71.8133 1227.73 36.521 1222.84 1.89028C1214.34 -52.2355 1201.35 -105.465 1184.07 -157.267C1166.71 -209.046 1145.07 -259.378 1119.3 -307.734C1102.37 -338.337 1076.58 -363.09 1045.31 -378.734C1014.04 -394.378 978.767 -400.18 944.138 -395.373C943.584 -395.285 943.001 -395.222 942.431 -395.161C942.134 -395.129 941.841 -395.097 941.557 -395.063C940.704 -394.959 939.889 -394.824 939.128 -394.569L939.082 -394.554L939.034 -394.546C833.827 -378.039 732.125 -344.03 638.146 -293.929L638.136 -293.924L638.126 -293.919C637.543 -293.637 636.979 -293.3 636.39 -292.948L636.377 -292.94L636.374 -292.939L636.363 -292.932L636.361 -292.931L636.35 -292.924C635.481 -292.403 634.557 -291.848 633.53 -291.497C603.099 -274.586 578.472 -248.884 562.874 -217.75C547.266 -186.595 541.42 -151.461 546.094 -116.931C546.094 -116.929 546.095 -116.927 546.095 -116.925L547.083 -110.645C555.355 -58.332 567.93 -6.88642 584.649 43.1788C601.409 93.2308 622.31 141.893 647.17 188.658L650.159 194.269C650.16 194.271 650.161 194.273 650.162 194.275C667.199 224.67 693.003 249.221 724.212 264.72C755.401 280.208 790.535 285.927 825.017 281.13C826.048 280.793 827.121 280.68 828.128 280.574L828.157 280.57L828.158 280.57L828.167 280.57L828.168 280.57L828.173 280.569C828.856 280.496 829.51 280.426 830.146 280.3L830.157 280.298L830.168 280.297C935.38 263.788 1037.08 229.778 1131.06 179.679Z" stroke="#A7A9AC" stroke-width="1.15517"/>
<path d="M1143.23 210.323L1143.28 210.3L1143.32 210.285C1144.08 210.03 1144.82 209.648 1145.56 209.218C1145.81 209.075 1146.06 208.923 1146.32 208.77C1146.81 208.477 1147.31 208.176 1147.81 207.913C1178.36 190.923 1203.05 165.071 1218.62 133.764C1234.19 102.457 1239.91 67.1646 1235.02 32.5338C1226.51 -21.592 1213.53 -74.821 1196.25 -126.624C1178.89 -178.403 1157.24 -228.734 1131.48 -277.09C1114.55 -307.693 1088.75 -332.446 1057.48 -348.09C1026.22 -363.735 990.945 -369.537 956.316 -364.73C955.762 -364.642 955.178 -364.579 954.608 -364.517C954.312 -364.486 954.018 -364.454 953.735 -364.419C952.882 -364.315 952.067 -364.18 951.305 -363.926L951.259 -363.91L951.212 -363.903C846.005 -347.396 744.303 -313.386 650.324 -263.286L650.314 -263.28L650.304 -263.276C649.721 -262.993 649.157 -262.657 648.568 -262.304L648.554 -262.296L648.552 -262.295L648.541 -262.288L648.539 -262.287L648.528 -262.28C647.659 -261.759 646.734 -261.204 645.708 -260.853C615.276 -243.943 590.65 -218.241 575.052 -187.106C559.444 -155.952 553.598 -120.817 558.272 -86.2879C558.272 -86.2857 558.273 -86.2834 558.273 -86.2812L559.26 -80.0017C567.532 -27.6885 580.108 23.7571 596.827 73.8224C613.587 123.874 634.488 172.536 659.348 219.302L662.336 224.913C662.337 224.915 662.339 224.917 662.34 224.919C679.377 255.314 705.181 279.864 736.39 295.363C767.579 310.852 802.712 316.57 837.195 311.773C838.226 311.436 839.298 311.323 840.306 311.217L840.335 311.214L840.336 311.214L840.345 311.213L840.345 311.213L840.351 311.212C841.034 311.139 841.687 311.069 842.323 310.944L842.334 310.942L842.345 310.94C947.557 294.431 1049.26 260.422 1143.23 210.323Z" stroke="#A7A9AC" stroke-width="1.15517"/>
<path d="M1153.61 241.626L1153.65 241.603L1153.69 241.588C1154.46 241.333 1155.19 240.951 1155.93 240.521C1156.18 240.378 1156.43 240.227 1156.69 240.073C1157.18 239.78 1157.68 239.479 1158.18 239.216C1188.73 222.226 1213.42 196.374 1228.99 165.067C1244.56 133.76 1250.28 98.4678 1245.39 63.8371C1236.89 9.71127 1223.9 -43.5178 1206.62 -95.3206C1189.26 -147.099 1167.62 -197.431 1141.85 -245.787C1124.92 -276.39 1099.13 -301.143 1067.86 -316.787C1036.59 -332.431 1001.32 -338.233 966.688 -333.427C966.134 -333.338 965.551 -333.276 964.981 -333.214C964.684 -333.182 964.39 -333.151 964.107 -333.116C963.254 -333.012 962.439 -332.877 961.677 -332.623L961.632 -332.607L961.584 -332.6C856.377 -316.093 754.675 -282.083 660.696 -231.983L660.686 -231.977L660.676 -231.972C660.093 -231.69 659.529 -231.353 658.94 -231.001L658.926 -230.993L658.924 -230.992L658.913 -230.985L658.911 -230.984L658.9 -230.977C658.031 -230.456 657.107 -229.901 656.08 -229.55C625.648 -212.64 601.022 -186.937 585.424 -155.803C569.816 -124.649 563.97 -89.5141 568.644 -54.9847C568.644 -54.9825 568.645 -54.9802 568.645 -54.978L569.632 -48.6984C577.904 3.61477 590.48 55.0604 607.199 105.126C623.959 155.178 644.86 203.839 669.72 250.605L672.708 256.216C672.71 256.218 672.711 256.22 672.712 256.222C689.749 286.617 715.553 311.168 746.762 326.666C777.951 342.155 813.084 347.874 847.567 343.077C848.598 342.74 849.671 342.627 850.678 342.52L850.707 342.517L850.708 342.517L850.717 342.516L850.717 342.516L850.723 342.516C851.406 342.443 852.059 342.372 852.695 342.247L852.706 342.245L852.717 342.243C957.929 325.734 1059.63 291.725 1153.61 241.626Z" stroke="#A7A9AC" stroke-width="1.15517"/>
<path d="M1162.19 273.468L1162.23 273.446L1162.28 273.43C1163.04 273.176 1163.77 272.793 1164.51 272.363C1164.76 272.22 1165.02 272.069 1165.27 271.916C1165.76 271.622 1166.27 271.321 1166.76 271.059C1197.32 254.068 1222 228.217 1237.57 196.91C1253.14 165.602 1258.86 130.31 1253.98 95.6793C1245.47 41.5536 1232.48 -11.6755 1215.2 -63.4783C1197.85 -115.257 1176.2 -165.589 1150.44 -213.945C1133.51 -244.548 1107.71 -269.301 1076.44 -284.945C1045.17 -300.589 1009.9 -306.391 975.271 -301.584C974.717 -301.496 974.134 -301.433 973.564 -301.372C973.267 -301.34 972.974 -301.308 972.69 -301.274C971.837 -301.17 971.022 -301.035 970.261 -300.78L970.215 -300.765L970.167 -300.757C864.96 -284.25 763.258 -250.241 669.279 -200.14L669.269 -200.135L669.259 -200.13C668.676 -199.848 668.112 -199.511 667.523 -199.159L667.51 -199.151L667.507 -199.149L667.496 -199.143L667.494 -199.142L667.483 -199.135C666.614 -198.614 665.69 -198.059 664.663 -197.708C634.231 -180.797 609.605 -155.095 594.007 -123.961C578.399 -92.8062 572.553 -57.6718 577.227 -23.1424C577.227 -23.1402 577.228 -23.1379 577.228 -23.1357L578.216 -16.8562C586.488 35.4571 599.063 86.9026 615.782 136.968C632.542 187.02 653.443 235.682 678.303 282.447L681.292 288.058C681.293 288.06 681.294 288.062 681.295 288.064C698.332 318.459 724.136 343.01 755.345 358.509C786.534 373.997 821.668 379.716 856.15 374.919C857.181 374.582 858.254 374.469 859.261 374.363L859.29 374.36L859.291 374.36L859.3 374.359L859.301 374.359L859.306 374.358C859.989 374.285 860.643 374.215 861.279 374.089L861.29 374.087L861.301 374.086C966.513 357.577 1068.21 323.567 1162.19 273.468Z" stroke="#A7A9AC" stroke-width="1.15517"/>
<path d="M1169.01 305.73L1169.06 305.707L1169.1 305.692C1169.86 305.437 1170.6 305.055 1171.34 304.625C1171.59 304.482 1171.84 304.331 1172.1 304.177C1172.59 303.884 1173.09 303.583 1173.59 303.32C1204.14 286.33 1228.83 260.478 1244.4 229.171C1259.97 197.864 1265.69 162.572 1260.8 127.941C1252.29 73.8153 1239.31 20.5862 1222.03 -31.2166C1204.67 -82.9953 1183.03 -133.327 1157.26 -181.683C1140.33 -212.286 1114.54 -237.039 1083.27 -252.683C1052 -268.327 1016.73 -274.129 982.097 -269.323C981.542 -269.234 980.959 -269.172 980.389 -269.11C980.092 -269.078 979.799 -269.047 979.515 -269.012C978.662 -268.908 977.848 -268.773 977.086 -268.519L977.04 -268.503L976.992 -268.496C871.786 -251.989 770.083 -217.979 676.105 -167.879L676.095 -167.873L676.085 -167.868C675.502 -167.586 674.938 -167.249 674.348 -166.897L674.335 -166.889L674.333 -166.888L674.322 -166.881L674.32 -166.88L674.308 -166.873C673.44 -166.352 672.515 -165.797 671.489 -165.446C641.057 -148.536 616.43 -122.833 600.833 -91.6991C585.224 -60.5445 579.379 -25.4101 584.053 9.11928C584.053 9.12153 584.053 9.12378 584.054 9.12603L585.041 15.4056C593.313 67.7188 605.889 119.164 622.608 169.23C639.368 219.282 660.268 267.943 685.128 314.709L688.117 320.32C688.118 320.322 688.119 320.324 688.12 320.326C705.157 350.721 730.962 375.272 762.171 390.77C793.359 406.259 828.493 411.978 862.976 407.181C864.007 406.844 865.079 406.731 866.087 406.624L866.116 406.621L866.117 406.621L866.126 406.62L866.126 406.62L866.131 406.62C866.815 406.547 867.468 406.476 868.104 406.351L868.115 406.349L868.126 406.347C973.338 389.838 1075.04 355.829 1169.01 305.73Z" stroke="#A7A9AC" stroke-width="1.15517"/>
<path d="M1174.14 338.312L1174.18 338.289L1174.22 338.274C1174.99 338.019 1175.72 337.637 1176.46 337.207C1176.71 337.064 1176.96 336.913 1177.22 336.76C1177.71 336.466 1178.21 336.165 1178.71 335.902C1209.27 318.912 1233.95 293.06 1249.52 261.753C1265.09 230.446 1270.81 195.154 1265.92 160.523C1257.42 106.397 1244.43 53.1683 1227.15 1.36548C1209.79 -50.4133 1188.15 -100.745 1162.38 -149.101C1145.45 -179.704 1119.66 -204.457 1088.39 -220.101C1057.12 -235.745 1021.85 -241.547 987.218 -236.74C986.664 -236.652 986.081 -236.59 985.511 -236.528C985.214 -236.496 984.921 -236.465 984.637 -236.43C983.784 -236.326 982.969 -236.191 982.208 -235.936L982.162 -235.921L982.114 -235.914C876.907 -219.407 775.205 -185.397 681.226 -135.297L681.216 -135.291L681.206 -135.286C680.623 -135.004 680.059 -134.667 679.47 -134.315L679.457 -134.307L679.455 -134.306L679.443 -134.299L679.442 -134.298L679.43 -134.291C678.561 -133.77 677.637 -133.215 676.61 -132.864C646.179 -115.954 621.552 -90.2513 605.954 -59.1171C590.346 -27.9625 584.5 7.17191 589.174 41.7013C589.175 41.7036 589.175 41.7058 589.175 41.7081L590.163 47.9876C598.435 100.301 611.01 151.746 627.729 201.812C644.489 251.864 665.39 300.525 690.25 347.291L693.239 352.902C693.24 352.904 693.241 352.906 693.242 352.908C710.279 383.303 736.083 407.854 767.292 423.353C798.481 438.841 833.615 444.56 868.097 439.763C869.128 439.426 870.201 439.313 871.208 439.206L871.237 439.203L871.238 439.203L871.247 439.202L871.248 439.202L871.253 439.202C871.936 439.129 872.59 439.058 873.226 438.933L873.237 438.931L873.248 438.929C978.46 422.421 1080.16 388.411 1174.14 338.312Z" stroke="#A7A9AC" stroke-width="1.15517"/>
<path d="M1177.61 371.112L1177.65 371.089L1177.69 371.074C1178.46 370.819 1179.19 370.437 1179.93 370.007C1180.18 369.864 1180.43 369.713 1180.69 369.559C1181.18 369.266 1181.69 368.965 1182.18 368.702C1212.74 351.712 1237.42 325.86 1252.99 294.553C1268.56 263.246 1274.28 227.954 1269.39 193.323C1260.89 139.197 1247.9 85.9681 1230.62 34.1653C1213.26 -17.6135 1191.62 -67.9454 1165.85 -116.301C1148.93 -146.904 1123.13 -171.657 1091.86 -187.301C1060.59 -202.946 1025.32 -208.748 990.689 -203.941C990.134 -203.853 989.551 -203.79 988.981 -203.728C988.684 -203.696 988.391 -203.665 988.107 -203.63C987.254 -203.526 986.44 -203.391 985.678 -203.137L985.632 -203.121L985.584 -203.114C880.378 -186.607 778.675 -152.597 684.696 -102.497L684.687 -102.491L684.677 -102.487C684.094 -102.204 683.53 -101.868 682.94 -101.515L682.927 -101.507L682.925 -101.506L682.913 -101.499L682.912 -101.498L682.9 -101.491C682.032 -100.97 681.107 -100.415 680.081 -100.064C649.649 -83.1538 625.022 -57.4515 609.424 -26.3173C593.816 4.83732 587.971 39.9717 592.645 74.5011C592.645 74.5034 592.645 74.5056 592.646 74.5079L593.633 80.7874C601.905 133.101 614.481 184.546 631.2 234.611C647.96 284.663 668.86 333.325 693.72 380.091L696.709 385.702C696.71 385.704 696.711 385.706 696.712 385.708C713.749 416.103 739.554 440.653 770.763 456.152C801.951 471.641 837.085 477.36 871.567 472.562C872.599 472.226 873.671 472.112 874.679 472.006L874.708 472.003L874.709 472.003L874.718 472.002L874.718 472.002L874.723 472.002C875.406 471.928 876.06 471.858 876.696 471.733L876.707 471.731L876.718 471.729C981.93 455.22 1083.63 421.211 1177.61 371.112Z" stroke="#A7A9AC" stroke-width="1.15517"/>
<path d="M1179.5 404.031L1179.54 404.008L1179.59 403.993C1180.35 403.738 1181.08 403.356 1181.82 402.926C1182.07 402.783 1182.33 402.631 1182.58 402.478C1183.07 402.185 1183.58 401.884 1184.07 401.621C1214.63 384.631 1239.31 358.779 1254.88 327.472C1270.45 296.165 1276.17 260.873 1271.29 226.242C1262.78 172.116 1249.8 118.887 1232.51 67.0842C1215.16 15.3055 1193.51 -35.0265 1167.75 -83.3821C1150.82 -113.985 1125.02 -138.738 1093.75 -154.382C1062.48 -170.027 1027.21 -175.829 992.581 -171.022C992.027 -170.934 991.444 -170.871 990.874 -170.809C990.577 -170.778 990.284 -170.746 990 -170.711C989.147 -170.607 988.332 -170.472 987.571 -170.218L987.525 -170.202L987.477 -170.195C882.27 -153.688 780.568 -119.678 686.589 -69.5778L686.579 -69.5725L686.569 -69.5676C685.986 -69.2853 685.422 -68.9486 684.833 -68.5963L684.82 -68.5882L684.818 -68.587L684.806 -68.58L684.805 -68.5792L684.793 -68.5722C683.924 -68.0511 683 -67.4964 681.973 -67.1452C651.542 -50.2349 626.915 -24.5326 611.317 6.60163C595.709 37.7563 589.863 72.8907 594.537 107.42C594.538 107.422 594.538 107.425 594.538 107.427L595.526 113.706C603.798 166.02 616.373 217.465 633.092 267.53C649.853 317.582 670.753 366.244 695.613 413.01L698.602 418.621C698.603 418.623 698.604 418.625 698.605 418.627C715.642 449.022 741.446 473.572 772.655 489.071C803.844 504.56 838.978 510.278 873.46 505.481C874.492 505.145 875.564 505.031 876.571 504.925L876.6 504.922L876.601 504.922L876.61 504.921L876.611 504.921L876.616 504.921C877.299 504.847 877.953 504.777 878.589 504.652L878.6 504.65L878.611 504.648C983.823 488.139 1085.52 454.13 1179.5 404.031Z" stroke="#A7A9AC" stroke-width="1.15517"/>
<path d="M1179.88 437.014L1179.92 436.992L1179.97 436.976C1180.73 436.722 1181.46 436.339 1182.2 435.909C1182.45 435.766 1182.7 435.615 1182.96 435.462C1183.45 435.168 1183.96 434.867 1184.45 434.605C1215.01 417.614 1239.69 391.763 1255.26 360.456C1270.83 329.148 1276.55 293.856 1271.66 259.225C1263.16 205.099 1250.17 151.87 1232.89 100.068C1215.54 48.2889 1193.89 -2.04307 1168.13 -50.3987C1151.2 -81.0017 1125.4 -105.755 1094.13 -121.399C1062.86 -137.043 1027.59 -142.845 992.96 -138.038C992.406 -137.95 991.823 -137.887 991.253 -137.826C990.956 -137.794 990.663 -137.763 990.379 -137.728C989.526 -137.624 988.711 -137.489 987.95 -137.234L987.904 -137.219L987.856 -137.212C882.649 -120.704 780.947 -86.6951 686.968 -36.5944L686.958 -36.5891L686.948 -36.5842C686.365 -36.3019 685.801 -35.9652 685.212 -35.6129L685.199 -35.6048L685.197 -35.6036L685.185 -35.5966L685.184 -35.5958L685.172 -35.5888C684.303 -35.0677 683.379 -34.513 682.352 -34.1618C651.921 -17.2515 627.294 8.45083 611.696 39.585C596.088 70.7397 590.242 105.874 594.916 140.403C594.917 140.406 594.917 140.408 594.917 140.41L595.905 146.69C604.177 199.003 616.752 250.449 633.471 300.514C650.231 350.566 671.132 399.227 695.992 445.993L698.981 451.604C698.982 451.606 698.983 451.608 698.984 451.61C716.021 482.005 741.825 506.556 773.034 522.055C804.223 537.543 839.357 543.262 873.839 538.465C874.87 538.128 875.943 538.015 876.95 537.909L876.979 537.905L876.98 537.905L876.989 537.905L876.99 537.905L876.995 537.904C877.678 537.831 878.332 537.761 878.968 537.635L878.979 537.633L878.99 537.632C984.202 521.123 1085.9 487.113 1179.88 437.014Z" stroke="#A7A9AC" stroke-width="1.15517"/>
<path d="M1178.82 469.973L1178.86 469.951L1178.91 469.935C1179.67 469.681 1180.4 469.298 1181.15 468.868C1181.4 468.725 1181.65 468.574 1181.91 468.421C1182.4 468.127 1182.9 467.826 1183.4 467.564C1213.95 450.573 1238.64 424.722 1254.21 393.415C1269.77 362.107 1275.49 326.815 1270.61 292.184C1262.1 238.058 1249.12 184.829 1231.83 133.027C1214.48 81.2479 1192.83 30.9159 1167.07 -17.4397C1150.14 -48.0427 1124.34 -72.7957 1093.07 -88.44C1061.8 -104.084 1026.53 -109.886 991.904 -105.079C991.35 -104.991 990.767 -104.928 990.197 -104.867C989.9 -104.835 989.606 -104.804 989.323 -104.769C988.47 -104.665 987.655 -104.53 986.893 -104.275L986.848 -104.26L986.8 -104.253C881.593 -87.7454 779.891 -53.7361 685.912 -3.63539L685.902 -3.6301L685.892 -3.62525C685.309 -3.34292 684.745 -3.00621 684.156 -2.65391L684.142 -2.64582L684.14 -2.64461L684.129 -2.63763L684.127 -2.63678L684.116 -2.62978C683.247 -2.10867 682.323 -1.55402 681.296 -1.20279C650.864 15.7075 626.238 41.4098 610.64 72.544C595.032 103.699 589.186 138.833 593.86 173.362C593.86 173.365 593.861 173.367 593.861 173.369L594.848 179.649C603.12 231.962 615.696 283.408 632.415 333.473C649.175 383.525 670.076 432.186 694.936 478.952L697.924 484.563C697.926 484.565 697.927 484.567 697.928 484.569C714.965 514.964 740.769 539.515 771.978 555.014C803.167 570.502 838.3 576.221 872.783 571.424C873.814 571.087 874.887 570.974 875.894 570.868L875.923 570.864L875.924 570.864L875.933 570.864L875.933 570.864L875.939 570.863C876.622 570.79 877.275 570.72 877.911 570.594L877.922 570.592L877.933 570.59C983.145 554.082 1084.85 520.072 1178.82 469.973Z" stroke="#A7A9AC" stroke-width="1.15517"/>
<path d="M1176.39 502.86L1176.44 502.837L1176.48 502.822C1177.24 502.567 1177.98 502.185 1178.72 501.755C1178.97 501.611 1179.22 501.46 1179.48 501.307C1179.97 501.013 1180.47 500.713 1180.97 500.45C1211.52 483.459 1236.21 457.608 1251.78 426.301C1267.35 394.994 1273.07 359.701 1268.18 325.07C1259.67 270.945 1246.69 217.716 1229.41 165.913C1212.05 114.134 1190.41 63.8021 1164.64 15.4466C1147.71 -15.1564 1121.91 -39.9094 1090.65 -55.5538C1059.38 -71.198 1024.11 -77 989.476 -72.1931C988.922 -72.105 988.339 -72.0422 987.769 -71.9809C987.472 -71.9489 987.179 -71.9173 986.895 -71.8828C986.042 -71.7788 985.228 -71.6438 984.466 -71.3891L984.42 -71.3738L984.372 -71.3663C879.165 -54.8592 777.463 -20.8499 683.484 29.2508L683.475 29.2561L683.464 29.261C682.882 29.5433 682.318 29.88 681.728 30.2323L681.715 30.2404L681.713 30.2416L681.701 30.2486L681.7 30.2495L681.688 30.2564C680.82 30.7776 679.895 31.3322 678.869 31.6834C648.437 48.5938 623.81 74.296 608.212 105.43C592.604 136.585 586.759 171.719 591.433 206.249C591.433 206.251 591.433 206.253 591.433 206.255L592.421 212.535C600.693 264.848 613.268 316.294 629.987 366.359C646.748 416.411 667.648 465.073 692.508 511.838L695.497 517.449C695.498 517.451 695.499 517.453 695.5 517.455C712.537 547.851 738.341 572.401 769.551 587.9C800.739 603.389 835.873 609.107 870.355 604.31C871.387 603.973 872.459 603.86 873.467 603.754L873.496 603.751L873.496 603.751L873.506 603.75L873.506 603.75L873.511 603.749C874.194 603.676 874.848 603.606 875.484 603.481L875.495 603.478L875.506 603.477C980.718 586.968 1082.42 552.959 1176.39 502.86Z" stroke="#A7A9AC" stroke-width="1.15517"/>
<path d="M1172.67 535.627L1172.71 535.604L1172.76 535.589C1173.52 535.334 1174.25 534.952 1174.99 534.522C1175.24 534.379 1175.5 534.227 1175.75 534.074C1176.24 533.78 1176.75 533.48 1177.24 533.217C1207.8 516.226 1232.48 490.375 1248.05 459.068C1263.62 427.761 1269.34 392.468 1264.46 357.838C1255.95 303.712 1242.96 250.483 1225.68 198.68C1208.33 146.901 1186.68 96.5692 1160.92 48.2136C1143.99 17.6106 1118.19 -7.14236 1086.92 -22.7867C1055.65 -38.4309 1020.38 -44.233 985.751 -39.426C985.197 -39.3379 984.613 -39.2751 984.043 -39.2138C983.746 -39.1818 983.453 -39.1502 983.17 -39.1157C982.317 -39.0118 981.502 -38.8767 980.74 -38.622L980.694 -38.6067L980.647 -38.5992C875.44 -22.0921 773.737 11.9172 679.759 62.0179L679.749 62.0232L679.739 62.0281C679.156 62.3104 678.592 62.6471 678.003 62.9994L677.989 63.0075L677.987 63.0087L677.976 63.0157L677.974 63.0165L677.962 63.0235C677.094 63.5447 676.169 64.0993 675.143 64.4505C644.711 81.3608 620.085 107.063 604.487 138.197C588.878 169.352 583.033 204.486 587.707 239.016C587.707 239.018 587.707 239.02 587.708 239.023L588.695 245.302C596.967 297.615 609.543 349.061 626.262 399.126C643.022 449.178 663.922 497.84 688.782 544.605L691.771 550.216C691.772 550.218 691.773 550.22 691.775 550.222C708.811 580.618 734.616 605.168 765.825 620.667C797.014 636.156 832.147 641.874 866.63 637.077C867.661 636.74 868.733 636.627 869.741 636.521L869.77 636.518L869.771 636.518L869.78 636.517L869.78 636.517L869.785 636.516C870.469 636.443 871.122 636.373 871.758 636.248L871.769 636.246L871.78 636.244C976.992 619.735 1078.69 585.726 1172.67 535.627Z" stroke="#A7A9AC" stroke-width="1.15517"/>
<path d="M1167.7 568.234L1167.74 568.211L1167.79 568.196C1168.55 567.941 1169.28 567.559 1170.03 567.129C1170.27 566.986 1170.53 566.835 1170.78 566.681C1171.28 566.388 1171.78 566.087 1172.27 565.824C1202.83 548.834 1227.51 522.982 1243.08 491.675C1258.65 460.368 1264.37 425.076 1259.49 390.445C1250.98 336.319 1238 283.09 1220.71 231.287C1203.36 179.509 1181.71 129.177 1155.95 80.8211C1139.02 50.2181 1113.22 25.4651 1081.95 9.82072C1050.68 -5.82353 1015.41 -11.6255 980.782 -6.8186C980.228 -6.73047 979.645 -6.66767 979.075 -6.60635C978.778 -6.57439 978.485 -6.54281 978.201 -6.50826C977.348 -6.40434 976.534 -6.26932 975.772 -6.0146L975.726 -5.99926L975.678 -5.99178C870.471 10.5153 768.769 44.5247 674.79 94.6254L674.78 94.6306L674.77 94.6355C674.187 94.9178 673.624 95.2545 673.034 95.6068L673.021 95.6149L673.019 95.6161L673.007 95.6231L673.006 95.624L672.994 95.631C672.125 96.1521 671.201 96.7067 670.175 97.0579C639.743 113.968 615.116 139.671 599.518 170.805C583.91 201.959 578.064 237.094 582.738 271.623C582.739 271.625 582.739 271.628 582.739 271.63L583.727 277.909C591.999 330.223 604.574 381.668 621.293 431.734C638.054 481.785 658.954 530.447 683.814 577.213L686.803 582.824C686.804 582.826 686.805 582.828 686.806 582.83C703.843 613.225 729.647 637.776 760.856 653.274C792.045 668.763 827.179 674.482 861.661 669.685C862.693 669.348 863.765 669.235 864.772 669.128L864.801 669.125L864.802 669.125L864.812 669.124L864.812 669.124L864.817 669.124C865.5 669.051 866.154 668.98 866.79 668.855L866.801 668.853L866.812 668.851C972.024 652.342 1073.73 618.333 1167.7 568.234Z" stroke="#A7A9AC" stroke-width="1.15517"/>
<path d="M1161.55 600.625L1161.59 600.602L1161.64 600.587C1162.4 600.332 1163.13 599.95 1163.88 599.52C1164.13 599.377 1164.38 599.226 1164.64 599.073C1165.13 598.779 1165.63 598.478 1166.13 598.215C1196.68 581.225 1221.37 555.373 1236.94 524.066C1252.51 492.759 1258.22 457.467 1253.34 422.836C1244.83 368.71 1231.85 315.481 1214.57 263.678C1197.21 211.9 1175.56 161.568 1149.8 113.212C1132.87 82.6092 1107.07 57.8562 1075.8 42.2118C1044.53 26.5676 1009.26 20.7656 974.635 25.5725C974.08 25.6606 973.497 25.7234 972.927 25.7848C972.63 25.8167 972.337 25.8483 972.053 25.8829C971.2 25.9868 970.386 26.1218 969.624 26.3765L969.578 26.3919L969.53 26.3993C864.324 42.9065 762.621 76.9158 668.643 127.016L668.633 127.022L668.623 127.027C668.04 127.309 667.476 127.646 666.886 127.998L666.873 128.006L666.871 128.007L666.86 128.014L666.858 128.015L666.846 128.022C665.978 128.543 665.053 129.098 664.027 129.449C633.595 146.359 608.968 172.062 593.371 203.196C577.762 234.351 571.917 269.485 576.591 304.014C576.591 304.017 576.591 304.019 576.592 304.021L577.579 310.301C585.851 362.614 598.427 414.059 615.146 464.125C631.906 514.177 652.806 562.838 677.666 609.604L680.655 615.215C680.656 615.217 680.657 615.219 680.658 615.221C697.695 645.616 723.5 670.167 754.709 685.665C785.897 701.154 821.031 706.873 855.513 702.076C856.545 701.739 857.617 701.626 858.625 701.519L858.654 701.516L858.655 701.516L858.664 701.515L858.664 701.515L858.669 701.515C859.353 701.442 860.006 701.371 860.642 701.246L860.653 701.244L860.664 701.242C965.876 684.733 1067.58 650.724 1161.55 600.625Z" stroke="#A7A9AC" stroke-width="1.15517"/>
<path d="M1154.28 632.791L1154.32 632.768L1154.37 632.753C1155.13 632.498 1155.86 632.116 1156.6 631.686C1156.85 631.543 1157.11 631.392 1157.36 631.239C1157.85 630.945 1158.36 630.644 1158.85 630.381C1189.41 613.391 1214.09 587.539 1229.66 556.232C1245.23 524.925 1250.95 489.633 1246.07 455.002C1237.56 400.876 1224.57 347.647 1207.29 295.844C1189.94 244.066 1168.29 193.734 1142.53 145.378C1125.6 114.775 1099.8 90.0222 1068.53 74.3778C1037.26 58.7336 1001.99 52.9316 967.361 57.7385C966.807 57.8267 966.224 57.8895 965.654 57.9508C965.357 57.9827 965.064 58.0143 964.78 58.0489C963.927 58.1528 963.112 58.2878 962.351 58.5425L962.305 58.5579L962.257 58.5654C857.05 75.0725 755.348 109.082 661.369 159.182L661.359 159.188L661.349 159.193C660.766 159.475 660.202 159.812 659.613 160.164L659.6 160.172L659.598 160.173L659.586 160.18L659.585 160.181L659.573 160.188C658.704 160.709 657.78 161.264 656.753 161.615C626.322 178.525 601.695 204.228 586.097 235.362C570.489 266.517 564.643 301.651 569.317 336.18C569.318 336.183 569.318 336.185 569.318 336.187L570.306 342.467C578.578 394.78 591.153 446.225 607.872 496.291C624.632 546.343 645.533 595.004 670.393 641.77L673.382 647.381C673.383 647.383 673.384 647.385 673.385 647.387C690.422 677.782 716.226 702.333 747.435 717.832C778.624 733.32 813.758 739.039 848.24 734.242C849.271 733.905 850.344 733.792 851.351 733.685L851.38 733.682L851.381 733.682L851.39 733.681L851.391 733.681L851.396 733.681C852.079 733.608 852.733 733.537 853.369 733.412L853.38 733.41L853.391 733.408C958.603 716.9 1060.3 682.89 1154.28 632.791Z" stroke="#A7A9AC" stroke-width="1.15517"/>
<path d="M1145.92 664.691L1145.96 664.668L1146.01 664.653C1146.77 664.398 1147.5 664.016 1148.24 663.586C1148.49 663.442 1148.74 663.291 1149 663.138C1149.49 662.844 1150 662.544 1150.49 662.281C1181.05 645.29 1205.73 619.439 1221.3 588.132C1236.87 556.825 1242.59 521.532 1237.7 486.902C1229.2 432.776 1216.21 379.547 1198.93 327.744C1181.58 275.965 1159.93 225.633 1134.17 177.278C1117.24 146.675 1091.44 121.922 1060.17 106.277C1028.9 90.633 993.629 84.831 959 89.6379C958.446 89.7261 957.862 89.7889 957.292 89.8502C956.995 89.8822 956.702 89.9137 956.418 89.9483C955.566 90.0522 954.751 90.1872 953.989 90.4419L953.943 90.4573L953.896 90.4648C848.689 106.972 746.986 140.981 653.008 191.082L652.998 191.087L652.988 191.092C652.405 191.374 651.841 191.711 651.252 192.063L651.238 192.071L651.236 192.073L651.225 192.08L651.223 192.081L651.211 192.088C650.343 192.609 649.418 193.163 648.392 193.514C617.96 210.425 593.334 236.127 577.736 267.261C562.127 298.416 556.282 333.55 560.956 368.08C560.956 368.082 560.956 368.084 560.957 368.086L561.944 374.366C570.216 426.679 582.792 478.125 599.511 528.19C616.271 578.242 637.171 626.904 662.031 673.669L665.02 679.28C665.021 679.282 665.022 679.284 665.024 679.286C682.06 709.682 707.865 734.232 739.074 749.731C770.263 765.22 805.396 770.938 839.879 766.141C840.91 765.804 841.982 765.691 842.99 765.585L843.019 765.582L843.02 765.582L843.029 765.581L843.029 765.581L843.034 765.58C843.718 765.507 844.371 765.437 845.007 765.312L845.018 765.31L845.029 765.308C950.241 748.799 1051.94 714.79 1145.92 664.691Z" stroke="#A7A9AC" stroke-width="1.15517"/>
<path d="M1136.5 696.29L1136.54 696.268L1136.59 696.252C1137.35 695.997 1138.08 695.615 1138.82 695.185C1139.07 695.042 1139.33 694.891 1139.58 694.738C1140.07 694.444 1140.58 694.143 1141.07 693.88C1171.63 676.89 1196.31 651.039 1211.88 619.732C1227.45 588.424 1233.17 553.132 1228.29 518.501C1219.78 464.375 1206.8 411.146 1189.51 359.344C1172.16 307.565 1150.51 257.233 1124.75 208.877C1107.82 178.274 1082.02 153.521 1050.75 137.877C1019.48 122.233 984.21 116.431 949.581 121.238C949.027 121.326 948.444 121.388 947.874 121.45C947.577 121.482 947.284 121.513 947 121.548C946.147 121.652 945.333 121.787 944.571 122.042L944.525 122.057L944.477 122.064C839.27 138.571 737.568 172.581 643.589 222.682L643.579 222.687L643.569 222.692C642.986 222.974 642.422 223.311 641.833 223.663L641.82 223.671L641.818 223.672L641.806 223.679L641.805 223.68L641.793 223.687C640.924 224.208 640 224.763 638.974 225.114C608.542 242.024 583.915 267.727 568.317 298.861C552.709 330.016 546.863 365.15 551.537 399.679C551.538 399.682 551.538 399.684 551.538 399.686L552.526 405.966C560.798 458.279 573.373 509.724 590.092 559.79C606.853 609.842 627.753 658.503 652.613 705.269L655.602 710.88C655.603 710.882 655.604 710.884 655.605 710.886C672.642 741.281 698.446 765.832 729.655 781.331C760.844 796.819 795.978 802.538 830.46 797.741C831.492 797.404 832.564 797.291 833.571 797.184L833.6 797.181L833.601 797.181L833.61 797.18L833.611 797.18L833.616 797.18C834.299 797.107 834.953 797.036 835.589 796.911L835.6 796.909L835.611 796.907C940.823 780.399 1042.53 746.389 1136.5 696.29Z" stroke="#A7A9AC" stroke-width="1.15517"/>
<path d="M1126.07 727.563L1126.11 727.54L1126.16 727.525C1126.92 727.27 1127.65 726.888 1128.4 726.458C1128.65 726.315 1128.9 726.164 1129.16 726.01C1129.65 725.717 1130.15 725.416 1130.65 725.153C1161.2 708.163 1185.89 682.311 1201.46 651.004C1217.02 619.697 1222.74 584.405 1217.86 549.774C1209.35 495.648 1196.37 442.419 1179.09 390.616C1161.73 338.838 1140.08 288.506 1114.32 240.15C1097.39 209.547 1071.59 184.794 1040.32 169.15C1009.05 153.506 973.783 147.704 939.154 152.511C938.6 152.599 938.017 152.661 937.447 152.723C937.15 152.755 936.857 152.786 936.573 152.821C935.72 152.925 934.905 153.06 934.144 153.315L934.098 153.33L934.05 153.337C828.843 169.844 727.141 203.854 633.162 253.954L633.152 253.96L633.142 253.965C632.559 254.247 631.995 254.584 631.406 254.936L631.393 254.944L631.391 254.945L631.379 254.952L631.378 254.953L631.366 254.96C630.497 255.481 629.573 256.036 628.546 256.387C598.115 273.297 573.488 299 557.89 330.134C542.282 361.288 536.436 396.423 541.11 430.952C541.111 430.955 541.111 430.957 541.111 430.959L542.099 437.239C550.371 489.552 562.946 540.997 579.665 591.063C596.426 641.115 617.326 689.776 642.186 736.542L645.175 742.153C645.176 742.155 645.177 742.157 645.178 742.159C662.215 772.554 688.019 797.105 719.228 812.603C750.417 828.092 785.551 833.811 820.033 829.014C821.065 828.677 822.137 828.564 823.144 828.457L823.173 828.454L823.174 828.454L823.183 828.453L823.184 828.453L823.189 828.453C823.872 828.38 824.526 828.309 825.162 828.184L825.173 828.182L825.184 828.18C930.396 811.671 1032.1 777.662 1126.07 727.563Z" stroke="#A7A9AC" stroke-width="1.15517"/>
<path d="M1114.63 758.48L1114.68 758.457L1114.72 758.442C1115.48 758.187 1116.22 757.805 1116.96 757.375C1117.21 757.232 1117.46 757.081 1117.72 756.927C1118.21 756.634 1118.71 756.333 1119.21 756.07C1149.76 739.08 1174.45 713.228 1190.02 681.921C1205.59 650.614 1211.31 615.322 1206.42 580.691C1197.91 526.565 1184.93 473.336 1167.65 421.533C1150.29 369.755 1128.64 319.423 1102.88 271.067C1085.95 240.464 1060.15 215.711 1028.88 200.067C997.615 184.423 962.345 178.621 927.716 183.427C927.162 183.516 926.578 183.578 926.008 183.64C925.712 183.672 925.418 183.703 925.135 183.738C924.282 183.842 923.467 183.977 922.705 184.231L922.659 184.247L922.612 184.254C817.405 200.761 715.703 234.771 621.724 284.871L621.714 284.877L621.704 284.882C621.121 285.164 620.557 285.501 619.968 285.853L619.954 285.861L619.952 285.862L619.941 285.869L619.939 285.87L619.928 285.877C619.059 286.398 618.135 286.953 617.108 287.304C586.676 304.214 562.05 329.917 546.452 361.051C530.844 392.205 524.998 427.34 529.672 461.869C529.672 461.872 529.673 461.874 529.673 461.876L530.66 468.156C538.932 520.469 551.508 571.914 568.227 621.98C584.987 672.032 605.888 720.693 630.748 767.459L633.736 773.07C633.737 773.072 633.739 773.074 633.74 773.076C650.777 803.471 676.581 828.022 707.79 843.52C738.979 859.009 774.112 864.728 808.595 859.931C809.626 859.594 810.698 859.481 811.706 859.374L811.735 859.371L811.736 859.371L811.745 859.37L811.745 859.37L811.751 859.37C812.434 859.297 813.087 859.226 813.723 859.101L813.734 859.099L813.745 859.097C918.957 842.588 1020.66 808.579 1114.63 758.48Z" stroke="#A7A9AC" stroke-width="1.15517"/>
<path d="M1102.2 789.001L1102.24 788.978L1102.29 788.963C1103.05 788.708 1103.78 788.326 1104.52 787.896C1104.77 787.753 1105.03 787.601 1105.28 787.448C1105.77 787.154 1106.28 786.854 1106.77 786.591C1137.33 769.6 1162.01 743.749 1177.58 712.442C1193.15 681.135 1198.87 645.842 1193.99 611.212C1185.48 557.086 1172.49 503.857 1155.21 452.054C1137.86 400.275 1116.21 349.943 1090.45 301.588C1073.52 270.985 1047.72 246.232 1016.45 230.587C985.18 214.943 949.91 209.141 915.281 213.948C914.727 214.036 914.143 214.099 913.573 214.16C913.276 214.192 912.983 214.224 912.7 214.258C911.847 214.362 911.032 214.497 910.27 214.752L910.224 214.767L910.177 214.775C804.97 231.282 703.267 265.291 609.289 315.392L609.279 315.397L609.269 315.402C608.686 315.684 608.122 316.021 607.533 316.373L607.519 316.382L607.517 316.383L607.506 316.39L607.504 316.391L607.492 316.398C606.624 316.919 605.699 317.473 604.673 317.825C574.241 334.735 549.615 360.437 534.017 391.571C518.408 422.726 512.563 457.86 517.237 492.39C517.237 492.392 517.237 492.394 517.238 492.397L518.225 498.676C526.497 550.989 539.073 602.435 555.792 652.5C572.552 702.552 593.452 751.214 618.312 797.979L621.301 803.59C621.302 803.592 621.303 803.594 621.305 803.596C638.341 833.992 664.146 858.542 695.355 874.041C726.544 889.53 761.677 895.248 796.16 890.451C797.191 890.114 798.263 890.001 799.271 889.895L799.3 889.892L799.301 889.892L799.31 889.891L799.31 889.891L799.315 889.89C799.999 889.817 800.652 889.747 801.288 889.622L801.299 889.62L801.31 889.618C906.522 873.109 1008.22 839.1 1102.2 789.001Z" stroke="#A7A9AC" stroke-width="1.15517"/>
<path d="M1088.77 819.069L1088.81 819.046L1088.86 819.031C1089.62 818.776 1090.35 818.394 1091.1 817.964C1091.34 817.821 1091.6 817.67 1091.85 817.516C1092.35 817.223 1092.85 816.922 1093.34 816.659C1123.9 799.669 1148.59 773.817 1164.15 742.51C1179.72 711.203 1185.44 675.911 1180.56 641.28C1172.05 587.154 1159.07 533.925 1141.78 482.122C1124.43 430.344 1102.78 380.012 1077.02 331.656C1060.09 301.053 1034.29 276.3 1003.02 260.656C971.752 245.011 936.481 239.209 901.853 244.016C901.298 244.104 900.715 244.167 900.145 244.229C899.848 244.261 899.555 244.292 899.271 244.327C898.418 244.431 897.604 244.566 896.842 244.82L896.796 244.836L896.748 244.843C791.542 261.35 689.839 295.36 595.86 345.46L595.851 345.466L595.841 345.47C595.258 345.753 594.694 346.089 594.104 346.442L594.091 346.45L594.089 346.451L594.078 346.458L594.076 346.459L594.064 346.466C593.196 346.987 592.271 347.542 591.245 347.893C560.813 364.803 536.186 390.506 520.589 421.64C504.98 452.794 499.135 487.929 503.809 522.458C503.809 522.46 503.809 522.463 503.81 522.465L504.797 528.744C513.069 581.058 525.645 632.503 542.364 682.568C559.124 732.62 580.024 781.282 604.884 828.048L607.873 833.659C607.874 833.661 607.875 833.663 607.876 833.665C624.913 864.06 650.718 888.611 681.927 904.109C713.115 919.598 748.249 925.317 782.731 920.519C783.763 920.183 784.835 920.07 785.843 919.963L785.872 919.96L785.873 919.96L785.882 919.959L785.882 919.959L785.887 919.959C786.57 919.886 787.224 919.815 787.86 919.69L787.871 919.688L787.882 919.686C893.094 903.177 994.796 869.168 1088.77 819.069Z" stroke="#A7A9AC" stroke-width="1.15517"/>
</svg>
